<?xml version="1.0" standalone="no"?>
<!DOCTYPE svg PUBLIC "-//W3C//DTD SVG 1.1//EN" "http://www.w3.org/Graphics/SVG/1.1/DTD/svg11.dtd" >
<svg xmlns="http://www.w3.org/2000/svg" xmlns:xlink="http://www.w3.org/1999/xlink" version="1.1">
<metadata></metadata>
<defs>
<font id="im_fell_englishbold" horiz-adv-x="1607" >
<font-face units-per-em="2048" ascent="1638" descent="-410" />
<missing-glyph horiz-adv-x="559" />
<glyph horiz-adv-x="0" />
<glyph unicode="&#xd;" horiz-adv-x="1224" />
<glyph unicode=" "  horiz-adv-x="559" />
<glyph unicode="&#x09;" horiz-adv-x="559" />
<glyph unicode="&#xa0;" horiz-adv-x="559" />
<glyph unicode="!" horiz-adv-x="569" d="M182 115q0 35 8.5 67.5t36.5 55.5q6 0 26.5 1t27.5 1q51 0 92 -22.5t41 -82.5q0 -66 -29 -96.5t-96 -30.5h-23q-14 0 -28.5 2t-20.5 13q-4 8 -17.5 33.5t-17.5 33.5v25v0zM195 614q0 12 1 45t3 70t4 68.5t2 44.5q12 4 12 20v10q0 33 -15.5 65t-19.5 64v150q0 4 -5 17.5 t-5 15.5q-4 12 -8 38.5t-4 30.5v97v96q6 20 26.5 46t40.5 26q4 0 24.5 -7.5t24.5 -7.5q2 0 10.5 5t10.5 10h10h12q23 -16 51.5 -40t39.5 -55q2 -4 3 -13t1 -21v-25v-14v-43q0 -27 -4 -31q0 -6 -3.5 -27.5t-7.5 -46t-7 -47t-5 -29.5q0 -4 1 -31.5t1 -50.5q0 -27 -2 -30 q0 -8 -3 -29.5t-5 -28.5v-421q0 -8 -2 -25.5t-4 -36t-4 -34t-4 -19.5q-4 -16 -18.5 -30.5t-33.5 -14.5h-6q-59 41 -85.5 90t-26.5 125v24z" />
<glyph unicode="&#x22;" horiz-adv-x="1241" d="M150 891q0 20 8 38.5t20 36t25.5 35t23.5 35.5q0 2 4.5 10.5t9.5 18.5t10 19.5t7 11.5q12 18 32.5 36.5t41 38t36 41t15.5 45.5q0 10 1 30t3 30q2 20 5 31.5t3 35.5q0 23 -29.5 42.5t-50.5 29.5q-2 0 -2 2q-16 -2 -44.5 -7t-39.5 -5q-27 0 -52 13.5t-46.5 35t-35 48 t-13.5 50.5q0 25 11 54.5t29.5 54t43 41t53.5 16.5q16 4 29.5 7t30.5 3q16 0 31.5 -3t31.5 -7q4 0 8 -4l6 -6q51 -18 97.5 -50t81 -74t55 -94t20.5 -112q0 -160 -59 -273.5t-189 -211.5q-37 -29 -66.5 -51.5t-84.5 -22.5q-14 0 -37.5 4t-23.5 27zM666 891q0 37 30.5 71.5 t59.5 57.5q47 70 84 128t75 124q2 2 4.5 11t6.5 13q0 94 -11.5 130t-52.5 36q-31 -12 -69 -12q-43 0 -82 12q-14 6 -31.5 20.5t-33 33t-26 38t-10.5 35.5q0 39 15.5 74t42 60.5t63.5 40t78 14.5q20 0 54 -8.5t69 -21.5t64.5 -29.5t41.5 -32.5q4 -6 8.5 -13.5t4.5 -9.5 l10 -27q2 -4 11 -13t18.5 -19.5t17.5 -20.5t12 -16q4 -27 17.5 -51.5t13.5 -53.5q0 -23 -6 -47q-6 -18 -8 -31.5t-2 -29.5q0 -8 1 -14.5t3 -14.5q6 -18 6 -29q0 -45 -17.5 -74.5t-37.5 -64.5q-23 -35 -35.5 -65.5t-40.5 -71.5q-27 -33 -63 -61.5t-75.5 -50t-82.5 -34 t-84 -12.5h-29q-4 4 -9 11.5t-5 17.5z" />
<glyph unicode="#" horiz-adv-x="1898" d="M885 193q0 18 7 34.5t15 31.5t16.5 30.5t10.5 34.5q4 37 8 46t10 25q4 4 7.5 12.5t7.5 20.5q2 10 3 16.5t4 12.5t8 14t17 23q-2 10 -2 26v17q0 8 2 20q0 4 4.5 11t4.5 12h-2q-2 0 -4.5 1t-4.5 1q-16 0 -55 -4.5t-98 -12.5l-113 15q-29 0 -29 -11h-75q0 -20 -17 -30 q-4 -2 -10 -9.5t-12 -7.5q0 -10 1 -16t1 -12q0 -25 -4 -36.5t-13 -15.5q0 -37 -1 -63.5t-7 -40.5q-2 -4 -15 -14.5t-18 -12.5q-10 -16 -11 -26.5t-1 -26.5t-2 -20q-4 -16 -9 -22.5t-9 -11.5t-9.5 -11.5t-7.5 -20.5l-63 -25q-6 0 -17.5 11.5t-21.5 26t-17.5 27.5t-7.5 15 q0 39 16.5 63.5t22.5 59.5q2 4 4 17.5t7 19.5q2 16 11 30.5t13 37.5q0 4 2 26.5t4 26.5t16.5 17.5t16.5 21.5q0 4 -1 12t-5 8q-20 -10 -37.5 -15t-19.5 -5q-6 2 -19 2q-27 0 -43 -9.5t-41 -9.5l-78 11q-25 -4 -32 -6.5t-13 -2.5q-16 0 -35.5 2.5t-37 8.5t-29.5 18t-12 33 q0 20 20 51t37 41q59 10 97 12t73 2h51q27 0 53 -2q29 -8 39 -10t13 -2q53 14 75.5 41t31.5 60.5t14 72.5t26 82q8 18 21.5 22.5t13.5 26.5q-2 2 -2 4v4q-16 0 -20.5 3.5t-26.5 7.5q-8 -2 -13.5 -3t-15.5 -1l-45 8q-23 0 -44.5 -16.5t-43.5 -16.5l-74 18q-23 -6 -31 -9 t-14 -3q-16 0 -35.5 3t-36 10.5t-29 19.5t-12.5 33q0 18 18.5 50t37.5 42h32l242 12l47 -14q16 0 33.5 9t40.5 13q6 0 17.5 -4t15.5 -4l2 2q4 4 4 6q29 45 49.5 101.5t30.5 109.5v31q0 4 6 12t8 15q18 16 19 39q0 53 33.5 93t78.5 66q16 0 27.5 -11t17.5 -25.5t9.5 -29 t3.5 -20.5q0 -16 -10.5 -22t-10.5 -15q4 -10 7 -25.5t5 -21.5q0 -23 -12 -32t-22 -23q-2 -4 -5.5 -15.5t-7.5 -26.5t-7 -28.5t-3 -19.5q0 -31 -6 -50.5t-15.5 -34.5t-18.5 -30.5t-15 -36.5l159 -8h88q41 0 85.5 4t68.5 23l7 22q7 21 16.5 46.5t16.5 49t7 27.5v37 q4 14 22.5 25.5t18.5 27.5q0 57 23.5 98.5t42.5 79.5q20 4 28 5q39 0 39 -11q10 -20 20.5 -32.5t16.5 -18.5q0 -6 -4 -16.5t-8 -21.5t-8 -19t-4 -10q2 -14 2 -25v-14q0 -25 -6.5 -30t-20.5 -24q-10 -14 -10 -30q0 -14 -17 -47l9 -39q0 -18 -7.5 -46t-23.5 -34l80 6 q12 0 22 -9.5t27 -9.5q12 0 27.5 9.5t33.5 9.5l121 -6l90 6q23 0 33 -19.5t14 -37.5q-31 -37 -69.5 -58.5t-85.5 -21.5h-19q-2 0 -2 2q-25 -4 -46 -9.5t-25 -7.5t-13.5 -6t-21.5 -4q-14 0 -25 10q-18 -2 -26 -2h-11h-41t-14 2q-25 -12 -39 -18t-33 -6q-23 4 -32 5t-13 1 q-41 -37 -46 -76t-13 -88q-4 -12 -15.5 -28.5t-22.5 -33t-20.5 -29.5t-9.5 -20q4 -20 11 -26q12 4 30.5 7t40 4t41 2t33.5 1l45 -14q14 0 29.5 7t33.5 7l121 -8l90 8q23 0 34 -19.5t16 -35.5q-59 -84 -158 -84q-4 0 -12.5 3t-10.5 3t-15 -6t-17 -6q-10 0 -19.5 -2t-19.5 -6 q-16 -6 -29 -7q-10 0 -18 2l-25 5q-8 -2 -23 -2h-45t-10 2q-23 -18 -38 -21.5t-31 -3.5l-93 18q-8 -6 -9 -18t-1 -23l-39 -90q-4 -10 -7 -32.5t-3 -30.5q0 -23 -3 -37t-10.5 -26.5t-17.5 -24.5t-24 -33q-6 -12 -6 -18q0 -14 1 -20.5t1 -10.5t-1 -8t-1 -6q-2 -4 -11.5 -15.5 t-13.5 -13.5q-2 -6 -5 -17.5t-3 -15.5q-31 -18 -64 -18q-6 0 -17 10t-22.5 22.5t-18.5 26t-7 19.5zM854 1038q-66 0 -82 -22.5t-20 -81.5q-2 -31 -14.5 -47.5t-12.5 -18.5q-2 -2 -4 -19.5t-2 -19.5q-10 -16 -18.5 -22t-14.5 -11t-10 -10.5t-4 -19.5q-4 -4 -4 -33v-35l200 13 q8 0 31 -2t78 -11q27 0 52.5 1t43.5 12q2 0 9.5 24.5t16.5 56t17 62.5t12 41q6 14 11.5 11t13.5 9q20 41 21 103q-18 20 -32 25.5t-30 5.5l-147 -29z" />
<glyph unicode="$" horiz-adv-x="1241" d="M625 -127v61q0 16 -1 26.5t-3.5 23t-4.5 49.5l-196 8q-45 16 -99.5 21.5t-102.5 18.5t-80 45t-32 103v31l23 225q4 10 8 15.5t17 5.5q25 0 36 -23q47 -63 80 -123.5t72 -128.5q6 -14 38 -29.5t73 -28.5t83 -23.5t70 -14.5q-2 18 -3 36.5t-1 39.5l21 53q0 18 -10.5 32.5 t-10.5 39.5q4 57 6 102t2 88q0 63 -6 136v79q-12 10 -21.5 21.5t-25.5 19.5q-4 0 -12 2t-18.5 4.5t-19.5 4.5t-11 2l-62 63q-16 12 -29.5 17.5t-25.5 10.5t-23.5 11t-25.5 18q-23 18 -26 37t-15 39q-2 10 -10.5 22.5t-12.5 20.5q-27 33 -43 55.5t-25.5 45t-12.5 49t-3 67.5 q0 49 12.5 103.5t35 104.5t55 95t73.5 78q25 25 58 26t63 7q29 4 51.5 21.5t51.5 21.5l-7 139q0 10 4.5 26.5t22.5 20.5q33 6 53 7q23 0 37.5 -6.5t26.5 -10.5q0 -4 3 -23.5t3 -29.5q4 0 6 -12.5t4 -24.5v-25l13 -55l-5 -18q10 -2 19.5 -4t19.5 -4q31 -8 56.5 -19.5 t58.5 -11.5q23 0 41 13t35.5 28.5t37 29t44.5 13.5q23 0 30 -21.5t7 -40.5l-23 -77l10 -140v-30q0 -33 -2 -54.5t-10 -54.5q-2 -6 -7 -11t-9 -5q0 -2 -9 -2q-10 0 -32.5 32.5t-51 73.5t-57.5 81t-47 52q-29 16 -62.5 27.5t-68.5 15.5l-6 -37l18 -145l-10 -53 q10 -35 12 -43.5t2 -12.5q0 -18 -2 -25t-12 -20q8 -10 14 -39.5t11.5 -65.5t7.5 -67.5t2 -44.5l-6 -43q23 -10 45 -20l55 -25l137 -88q2 -2 5 -3t8 -5l8 -8l20 -60q4 -8 9.5 -18t9.5 -14q2 -2 11 -12.5t17 -21.5t15.5 -21.5t7.5 -12.5q2 -8 8 -21.5t11 -28t9.5 -26.5 t4.5 -18v-174q0 -2 -5.5 -15.5t-11.5 -23.5q-4 -2 -4 -4l-2 -2t-2 -7q-2 -4 -6 -16t-8 -25.5t-9.5 -25.5t-7.5 -14q-6 -23 -31.5 -46.5t-35.5 -29.5q-10 -14 -11.5 -30.5t-15.5 -24.5q-39 -14 -65.5 -32t-50 -34t-45 -30.5t-52.5 -20.5l-4 -17v17q-4 -2 -14 -2 q-4 -18 -6 -49q0 -31 7 -57.5t9 -63.5q-12 -4 -12 -21v-4q0 -23 -10.5 -49.5t-61.5 -26.5q-20 0 -32.5 5.5t-22.5 33.5v74zM586 1593q-59 -8 -91 -37.5t-57 -87.5q-12 -27 -20 -42t-13.5 -27.5t-7.5 -27.5t-2 -40q0 -106 56.5 -166.5t140.5 -93.5q2 12 4 25.5t6 29.5 q-2 4 -8 20.5t-8 27.5l16 59q0 14 -8 31.5t-8 40.5l8 137l-8 151v0zM745 287q4 -6 10.5 -34t14.5 -60h2l49 12q4 0 20.5 25.5t35.5 56.5l45 82q0 2 1 12t2 22.5t2 24.5t1 16v19q0 27 -3 43t-14 51l-2 6q-10 14 -24.5 24.5t-26.5 24.5q-14 20 -19 30.5t-11.5 18t-16.5 13.5 t-35 16q-8 0 -20 6q-6 -31 -13.5 -60.5t-7.5 -53.5q0 -35 9.5 -72t9.5 -74l-6 -45v-55q0 -18 -1.5 -28.5t-1.5 -14.5v-6z" />
<glyph unicode="%" horiz-adv-x="1548" d="M864 139q-23 47 -36 77t-13 52q0 55 7 103.5t32 85.5l55 88q8 10 28.5 26.5t45 30.5t47 24.5t37.5 10.5h92q29 0 50.5 -6t45.5 -27l51 -49l31 -16q14 -10 20.5 -24.5t9.5 -30t6 -30t13 -26.5q8 -12 14.5 -17t11.5 -9.5t9 -12.5t8 -22q0 -10 1 -41t1 -54q0 -6 -3 -19 t-8 -26.5t-9 -23.5l-4 -10q-4 -10 -11.5 -24.5t-15.5 -31t-16.5 -31t-12.5 -20.5q-18 -8 -28.5 -17.5t-18.5 -18.5t-15 -17t-20 -10q-23 -14 -47 -17.5t-49 -11.5h-39q-55 0 -91 10t-63.5 28.5t-54 45zM880 324q0 -16 9.5 -45t22.5 -57.5t30.5 -54.5t34.5 -36 q18 -12 43.5 -23.5t55.5 -19.5t57.5 -12t47.5 -4q10 0 15.5 7t15.5 11q23 10 31 12t22 25t35 34t27 40q0 4 1 17t3 13q4 23 10 34t6 34q0 33 -18.5 55.5t-18.5 51.5q0 23 -11 37t-30 34q-18 27 -32.5 37t-29.5 16.5t-30.5 10.5t-36.5 18h-73q-4 0 -22.5 -9t-31.5 -18 q-23 -12 -45 -36.5t-42.5 -54t-33 -61t-12.5 -56.5zM199 907q-23 47 -36 77t-13 52q0 55 7 103.5t32 85.5l55 88q8 10 28.5 26.5t45 30.5t47 24.5t37.5 10.5h92q29 0 50.5 -6t45.5 -27l51 -49l31 -16q14 -10 20.5 -24.5t9.5 -30t6 -30t13 -26.5q8 -12 14.5 -17t11.5 -9.5 t9 -12.5t8 -22q0 -10 1 -41t1 -54q0 -6 -3 -19t-8 -26.5t-9 -23.5l-4 -10q-4 -10 -11.5 -24.5t-15.5 -31t-16.5 -31t-12.5 -20.5q-18 -8 -28.5 -17.5t-18.5 -18.5t-15 -17t-20 -10q-23 -14 -47 -17.5t-49 -11.5h-39q-55 0 -91 10t-63.5 28.5t-54 45zM215 1092q0 -16 9.5 -45 t22.5 -57.5t30.5 -54.5t34.5 -36q18 -12 43.5 -23.5t55.5 -19.5t57.5 -12t47.5 -4q10 0 15.5 7t15.5 11q23 10 31 12t22 25t35 34t27 40q0 4 1 17t3 13q4 23 10 34t6 34q0 33 -18.5 55.5t-18.5 51.5q0 23 -11 37t-30 34q-18 27 -32.5 37t-29.5 16.5t-30.5 10.5t-36.5 18h-73 q-4 0 -22.5 -9t-31.5 -18q-23 -12 -45 -36.5t-42.5 -54t-33 -61t-12.5 -56.5zM190 -10q8 33 27 48t37 44l18 24q4 16 12.5 24.5t16.5 21.5l25 43q0 4 16 10t20 10l11 41q8 23 30.5 35t32.5 28q10 10 28.5 34t20.5 30q2 2 13.5 22.5t28 42t32.5 40t29 18.5q35 31 58.5 71.5 t43.5 75.5l72 82q23 41 37 63.5t22 35t13.5 16.5t9.5 6l24 33q12 29 28.5 39t37.5 37q37 41 64.5 84t56.5 84q10 18 25.5 32.5t31.5 30.5q2 4 11.5 16.5t20.5 27.5t20.5 31.5t15.5 26.5q12 23 26.5 39.5t48.5 16.5q8 0 9.5 -1t5.5 -1q16 -4 20 -7.5t13 -17.5l-13 -49 l-20 -21q-12 -16 -15.5 -34.5t-15.5 -38.5q-8 -12 -20.5 -16.5t-28.5 -12.5q-4 -6 -6 -13t-6 -24q-12 -23 -44 -44t-53 -38q-25 -18 -24 -30l-13 -29q-12 -25 -30.5 -45.5t-36.5 -32.5q-4 -10 -3 -16t-1 -11q-10 -31 -20.5 -37t-20.5 -16q-8 -10 -23.5 -30.5t-17.5 -34.5 q-6 -25 -17.5 -40.5t-23.5 -24.5t-21.5 -14t-11.5 -9q0 -4 -7 -10.5t-9 -8.5q-14 -39 -39 -57.5t-57 -42.5q-10 -10 -16.5 -19.5t-10.5 -19.5q-4 -31 -8 -41t-8 -18q-23 -12 -32 -27.5t-12 -18.5q-4 -4 -24.5 -13t-24.5 -9q-8 -6 -15 -21.5t-14.5 -34t-14.5 -35t-15 -22.5 q-4 -4 -19.5 -11t-13.5 -11q2 -8 2 -19q0 -4 -2 -8q-6 -23 -22.5 -33t-26.5 -12q-10 -20 -13 -30.5t-18 -14.5q-2 -4 -2 -12t-6 -19q-6 -29 -17.5 -41t-43.5 -28q-16 -8 -17.5 -22.5t-9.5 -29.5q-10 -10 -16 -14t-11.5 -6t-9.5 -7t-10 -18l-37 -6q-16 4 -22.5 32t-4.5 32z " />
<glyph unicode="&#x26;" horiz-adv-x="1873" d="M121 461q0 37 10 83t29 77q41 59 102.5 117.5t120.5 95.5q23 4 29 9t30 17q16 6 40 11.5t45.5 13.5t37 22.5t15.5 38.5q0 2 -15.5 18.5t-35 36t-37 38t-21.5 24.5q-8 12 -27.5 37.5t-40 53.5t-37 51.5t-16.5 31.5l6 27q2 4 4 26.5t5 34.5q2 33 11 55.5t23.5 43t35 40 t44.5 43.5q39 37 102.5 44.5t114.5 7.5q92 0 163 -39t116 -119q0 -4 11 -19.5t13 -19.5q0 -66 -14 -103.5t-36.5 -65.5t-54.5 -52.5t-65 -61.5q0 -10 16.5 -37.5t37 -57.5t41 -53.5t28.5 -27.5q12 -6 39 -16t37 -27q16 -25 30.5 -54.5t32 -57t42 -46t59.5 -18.5 q27 0 41 20.5t21.5 49t10.5 58.5t9 48q4 23 15 42.5t11 43.5q0 20 -20 44t-44 47.5t-44.5 44t-20.5 36.5v25q39 10 83 18t81 8q23 0 63 -1t58 -7q4 0 21.5 -13t21.5 -15q2 -2 6 -3h11q12 0 24 2.5t27 4.5q10 6 22.5 9t22.5 3l33 -6q25 -16 47 -23.5t22 -40.5q0 -18 -8 -23 t-20 -16q-6 -2 -20.5 -8t-31 -13t-31 -13.5t-20.5 -8.5q-6 2 -31 2q-43 0 -71.5 -27.5t-50 -67.5t-37 -82t-29.5 -70q-10 -20 -24.5 -40t-28 -41.5t-22.5 -44t-9 -46.5q0 -14 8 -28.5t20.5 -29t26 -28t21.5 -23.5q41 -51 82 -98t94 -86q16 -12 53 -23.5t74 -26t64.5 -34 t27.5 -49.5q0 -57 -38 -85t-89 -28q-20 0 -35.5 1l-31 2t-32 5t-40.5 10q-23 12 -35 33t-35 37q-20 14 -49 19.5t-39 25.5q-10 14 -19.5 39t-21.5 48.5t-27.5 40.5t-39.5 17q-18 0 -46 -30.5t-59 -71.5t-61.5 -81t-55.5 -60q-43 -33 -79.5 -54.5t-74.5 -37t-80 -25.5 t-91 -22l-66 -13q-35 0 -62.5 6.5t-52 15.5t-50 22.5t-58.5 25.5q-16 4 -25.5 5t-21.5 5q-16 12 -24.5 15.5t-14.5 4.5t-12 3t-19 10q-6 0 -6 6q-20 31 -49 73t-35 72q0 2 -2 14.5t-4 26.5q-6 16 -7 27.5t-3 17.5l-23 39q-6 10 -11 46t-5 67v35zM434 262q18 -41 39 -64.5 t68 -41.5q8 -2 13 -3t11 -1q8 0 23 -11q23 -18 34 -27.5t37 -9.5q45 0 84 10.5t80 26.5q4 4 27.5 7.5t32.5 7.5l32 32q2 2 21.5 13.5t30.5 15.5q20 10 41.5 21.5t27.5 35.5l92 88q8 8 11.5 24.5t3.5 27.5q-23 14 -35 32.5t-22.5 36t-21.5 33.5t-28 29q-18 12 -33.5 31.5 t-30 39t-28.5 36t-29 26.5q-37 14 -64.5 35.5t-57.5 46.5q-27 23 -41.5 43t-27.5 37.5t-31.5 32t-51.5 24.5q-20 0 -55 -28.5t-73 -65.5t-71.5 -73t-52.5 -52q-16 -25 -24.5 -54.5t-13.5 -60.5t-11 -60.5t-14 -56.5q0 -25 11 -59.5t19 -48.5zM563 1311q0 -29 14.5 -60.5 t38 -58.5t51 -44.5t56.5 -17.5q4 0 13 1.5t12 11.5v41q0 12 -3 16q-2 14 -4 23.5t-2 17.5q0 12 3 18.5t8 10.5q12 14 12 30q0 27 -4 58t-16.5 55.5t-35 40.5t-59.5 16q-23 0 -38 -19t-25.5 -46t-15.5 -53.5t-5 -40.5z" />
<glyph unicode="'" horiz-adv-x="667" d="M82 895q4 29 29.5 54.5t38.5 47.5q29 41 55 84t59 80l37 39q4 6 12.5 30.5t16.5 54.5t14 55.5t6 33.5q0 43 -19.5 60.5t-48 23.5t-61.5 7t-61.5 12.5t-48 37t-19.5 82.5v11l21 26q12 12 12 25q0 14 6 31q6 18 22.5 32.5t39 25.5t47 17.5t43.5 6.5l28 -7q39 -12 76 -33.5 t70 -33.5q10 -16 25.5 -27.5t25.5 -19.5q16 -35 23.5 -69t7.5 -69q0 -14 7 -17t19 -13q8 -10 10.5 -27.5t2.5 -34.5v-30q0 -39 -11.5 -69t-21.5 -65q0 -4 -2 -28.5t-4 -28.5q-23 -76 -76 -125t-105 -100l-69 -70q-33 -31 -82 -38t-94 -7q-12 0 -21 12l-8 9z" />
<glyph unicode="(" horiz-adv-x="729" d="M428 -350q0 25 -10 48t-24.5 46t-28 44.5t-19.5 43.5l-31 94q-12 27 -30.5 50.5t-26.5 46.5l-37 167q-25 41 -32 82t-7 88v29q-23 35 -22 80l2 15q2 14 5 32.5t6 33.5l3 15q0 23 -2 50.5t-6 52.5q-4 29 -6 55.5t-2 58.5l22 47q8 104 22.5 193.5t37.5 191.5q10 43 31.5 81 t41.5 83q2 2 4.5 18.5t2.5 20.5l24 43q20 35 24.5 42t6.5 18q6 4 7 17t7 30q4 12 24.5 23.5t26.5 23.5q6 4 11.5 17.5t10.5 26.5t9 25.5t8 16.5q2 0 14.5 2t16.5 4q33 18 59.5 43t71.5 25q16 0 36.5 -7.5t20.5 -31.5q0 -27 -21.5 -47.5t-49 -38t-55 -34t-39.5 -30.5 q-27 -31 -49.5 -76t-41 -95t-34 -99t-27.5 -88q-16 -47 -32.5 -86t-22.5 -90v-37q0 -10 -2 -35t-4 -29q0 -2 -6.5 -10t-12.5 -10q-6 -14 -7 -26.5t-1 -31.5v-36q0 -12 -2 -24.5t-8 -20.5v-93l-6 -45q16 -57 17 -112.5t19 -114.5q2 -2 7.5 -14.5t5.5 -14.5q6 -45 5 -86 t13 -86l66 -225q4 -12 12 -21.5t15 -17.5t13.5 -19.5t6.5 -27.5l69 -158q14 -8 23.5 -23.5t15.5 -31.5t12.5 -33.5t14.5 -29.5l31 -33q12 -10 24.5 -41t12.5 -58q0 -4 -2.5 -22.5t-4.5 -22.5q-33 0 -65.5 22.5t-62 53.5t-55.5 63t-44 50z" />
<glyph unicode=")" horiz-adv-x="720" d="M29 -496q12 31 29.5 44.5t23.5 23.5q0 2 2 12t4 13l35 36q0 18 7 33t11 23q37 45 48.5 58t13.5 15q14 39 39.5 84t50 92.5t44 92.5t23.5 82v61l35 66q18 76 24.5 153.5t6.5 155.5q0 51 -1 89t-7 89q-6 41 -22.5 81t-16.5 85l16 63q0 23 -15 40.5t-20 41.5q-2 6 -4 25.5 t-2 23.5v31l-26 29v43q-4 25 -17.5 38t-19.5 34l-23 75q-4 6 -16 31t-21 37q-10 16 -14 33.5t-14 38.5q-20 33 -48 67.5t-52.5 71.5t-42 76t-17.5 80q0 12 23 12q27 0 45 -9.5t31.5 -24.5t25.5 -33.5t25 -37.5q20 -23 45.5 -40t46.5 -48q10 -20 16 -46.5t21 -49.5l67 -129 q2 -27 10.5 -38t18.5 -34q23 -59 44 -118.5t40 -118.5q2 -4 5 -21.5t3 -21.5v-60q4 -29 16.5 -52t16.5 -58q8 -66 12 -135.5t4 -133.5q0 -25 -7 -55.5t-7 -48.5l-17 -180q-2 -2 -6 -12.5t-6 -14.5v-41l-37 -117v-49q-8 -47 -30.5 -82.5t-38.5 -76.5q-4 -12 -7.5 -31 t-8.5 -37t-10 -33.5t-11 -23.5l-37 -37l-8 -29q-4 -16 -36 -56t-73 -83t-83 -76t-66 -33q-25 0 -33 10t-8 35z" />
<glyph unicode="*" horiz-adv-x="1138" d="M379 889q0 47 18.5 91t18.5 91h-10q-2 0 -15.5 -10t-32 -24.5t-37 -31t-30.5 -26.5q-4 0 -12.5 -10.5t-10.5 -12.5q-6 -2 -18 -8t-24.5 -14t-24 -14.5t-15.5 -8.5h-12q-23 0 -34 23.5t-11 44.5q0 27 8 40t20.5 18t29 8.5t32.5 13.5q4 2 18.5 17.5t16.5 17.5q4 2 17.5 12 t29.5 21.5t29.5 21.5t17.5 12q0 4 4 12.5t4 12.5v6v4q0 4 -3 7l-5 5q-41 -6 -66.5 -9t-62.5 -3q-14 0 -43 4t-56.5 12.5t-49 22.5t-21.5 33q0 14 20.5 29.5t48 25.5t53.5 17.5t38 7.5q41 0 83 -7.5t83 -7.5h53q-10 25 -27.5 43.5t-39 33.5t-44 30.5t-41.5 32.5q-6 4 -18 17 t-26.5 26.5t-26.5 26.5t-19 18q-8 10 -10 20t-2 21v22v41q8 18 19.5 21.5t25.5 3.5q23 0 44.5 -10.5t35.5 -24.5l219 -219q8 2 10 10t2 16v15q0 25 -6 46t-6 48q0 39 2 74.5t10 76.5q4 20 31 45t49 25q4 -4 8 -6t7.5 -4t7.5 -2q29 -16 49 -28.5t20 -47.5q0 -31 -9 -61.5 t-20 -61.5t-22.5 -61.5t-17.5 -61.5v-43q-2 -10 -8.5 -17t-12.5 -13.5t-10 -12.5t-4 -16q0 -6 3 -20.5t13 -14.5h7q2 4 5 18.5t7 16.5q16 31 54 81t83 98t91 84t83 36q25 0 50.5 -11.5t25.5 -41.5v-5q-14 -41 -32.5 -78.5t-47.5 -68.5q-4 -4 -12 -13.5t-10 -13.5 q-6 -4 -32 -23.5t-55.5 -43t-54 -43t-31.5 -23.5q-10 -10 -10 -12t1 -5t1 -11q27 0 47.5 -4.5t46.5 -4.5q23 0 39.5 7.5t38.5 7.5q25 0 56.5 -1t59.5 -10.5t46.5 -28t18.5 -50.5q0 -47 -34 -72t-81 -25q-25 0 -46.5 10.5t-45.5 14.5q-37 8 -61.5 11t-59.5 3q-4 0 -8 -1 t-9 -1q-6 -2 -10 -2l-12 -22l127 -125q16 -16 25.5 -45t9.5 -52q0 -35 -18.5 -66.5t-57.5 -31.5q-49 0 -88 45t-68.5 98.5t-50 98.5t-33.5 45q-2 0 -3 -1t-5 -1l-4 -4q-4 -4 -4 -6v-183q-2 -18 -5 -41.5t-12.5 -45t-23.5 -36t-39 -14.5q-35 0 -53.5 12.5t-26.5 34t-10 47 t-4 54.5v12v0z" />
<glyph unicode="+" horiz-adv-x="1308" d="M117 827q31 27 98 27q23 0 32 -1t15 -5h178q41 0 70 4t39 14q20 20 20 84l-22 279q0 31 5 56.5t17 39.5q20 16 60 16q29 0 53.5 -7t36.5 -21l33 -72q2 -2 5 -14.5t9 -71.5q-10 -4 -18 -12q-18 -25 -19 -53q0 -29 4 -61t10 -56q2 -16 3.5 -21.5t1.5 -9.5q0 -18 -2.5 -37.5 t-2.5 -32.5l2 -4q8 -8 11 -8q41 0 85 10.5t81 10.5q18 0 32.5 -4.5t26.5 -8.5h182q4 0 14.5 -3t12.5 -5q10 -10 10 -35v-90l-20 -22q-39 -39 -107 -39q-53 0 -107.5 12t-99.5 14l-26 -10l-74 -6q-6 -10 -10 -30.5t-8.5 -47t-6.5 -55.5t-2 -55q0 -47 11 -88q6 -23 6 -35 q0 -4 -3 -20.5t-3 -18.5l4 -58q0 -25 -11 -34q-18 -12 -53 -13q-31 0 -57.5 7.5t-36.5 13.5q-16 29 -21.5 63.5t-8.5 71.5t-6 75t-11 75l24 92q0 14 -8 24q-27 23 -53 23q-20 0 -39.5 -5t-44.5 -5q-29 0 -35 2q-6 8 -28 8l-29 -2q-33 -8 -78 -8q-43 0 -78 8q-18 0 -31.5 4 t-25.5 20q-14 27 -14 72q4 37 6 47t2 12z" />
<glyph unicode="," horiz-adv-x="690" d="M121 -559q0 18 18.5 52t43 69t49 65.5t34.5 44.5l25 15q29 31 43 71.5t41 71.5q6 10 7 17.5t1 13.5v28q0 45 -20.5 68t-51 33t-65.5 14t-65.5 13.5t-51 30t-20.5 61.5q0 23 9 55.5t27.5 63t43 52t55.5 21.5q10 0 26.5 -1t32.5 -3q18 -2 39 -2q6 0 18.5 -7t24.5 -15.5 t22.5 -15.5t14.5 -9q27 -18 41 -25.5t22.5 -14.5t14.5 -17.5t16 -32.5l10 -15q16 -31 36 -55.5t20 -56.5v-31q0 -10 -4 -31q-2 -18 -4.5 -34.5t-2.5 -34.5v-31q-18 -31 -23 -62.5t-13 -64.5q-6 -29 -24.5 -50.5t-38 -41t-38 -40t-24.5 -44.5l-144 -146q-6 -6 -20.5 -9 t-22.5 -3h-28q-25 0 -49.5 4t-24.5 29z" />
<glyph unicode="-" horiz-adv-x="1026" d="M688 440l-14 2l-94 -16q-27 0 -50.5 8t-52.5 8q-23 0 -41 -6q-25 -10 -49 -10q-47 0 -91 10t-91 10q-45 25 -63.5 47.5t-18.5 53.5q0 59 37 102t100 43l64 -6h28h15q8 0 18 2q14 2 29.5 3t29.5 1h39q14 0 27.5 -1t26.5 -5q10 -2 20 -3t21 -1h81q10 0 20.5 1t20.5 3 q16 8 25.5 10t22.5 2q20 0 45.5 -3t48 -11t38 -22.5t15.5 -38.5q0 -35 -8 -72t-27.5 -65.5t-49.5 -47t-73 -18.5h-4q-4 2 -22.5 11t-22.5 9z" />
<glyph unicode="." horiz-adv-x="583" d="M147 168q0 72 31 108.5t107 36.5q25 0 43 -8t39 -16q51 -25 60 -51.5t9 -79.5v-70q-4 -10 -15 -25.5t-25.5 -29t-30 -23.5t-25.5 -10q-41 8 -76 18.5t-61.5 29t-41 47t-14.5 73.5z" />
<glyph unicode="/" horiz-adv-x="1550" d="M193 8q8 41 26.5 60.5t36.5 54.5l18 33q4 18 12.5 28.5t16.5 26.5l25 55q0 4 16 12.5t21 12.5l10 51q8 29 30.5 44t32.5 38q4 6 12.5 17.5t16.5 23.5t14 23.5t6 15.5q2 4 13.5 28.5t28 52t33 50t28.5 22.5q35 39 58.5 91.5t43.5 95.5l72 102q23 51 37 81t22 44t13.5 19.5 t9.5 7.5l24 41q6 18 13.5 29.5t15.5 20.5t17.5 19.5t19.5 26.5q37 51 64.5 105.5t56.5 107.5q10 23 25.5 40t31.5 40q2 6 11.5 21.5t20.5 35t20.5 38.5t15.5 34q12 29 26.5 49t48.5 20q8 0 15.5 -1t17.5 -3q16 -2 34.5 -12t27.5 -27l-13 -61q-2 -2 -10 -12.5t-10 -12.5 q-12 -23 -15.5 -46t-15.5 -48q-8 -16 -20.5 -21t-28.5 -16q-4 -8 -6 -15t-6 -30q-12 -29 -44 -56.5t-53 -47.5q-25 -25 -24 -37v-2l-12 -35q-12 -31 -31 -56.5t-37 -41.5q-4 -10 -3 -19.5t-1 -13.5q-10 -39 -20.5 -48t-20.5 -20q-8 -10 -23.5 -37.5t-17.5 -43.5 q-6 -31 -17.5 -50.5t-23.5 -32t-21.5 -18.5t-11.5 -12q0 -4 -7 -12.5t-9 -10.5q-14 -47 -39 -70.5t-57 -56.5q-10 -10 -16.5 -23t-10.5 -24q-4 -39 -8 -52t-8 -23q-23 -16 -32 -35t-11 -21q-2 -4 -9.5 -8t-15.5 -9t-15 -8t-10 -3q-8 -8 -15 -29t-14 -43.5t-14.5 -43 t-15.5 -28.5q-4 -6 -19.5 -15t-13.5 -13q2 -10 2 -23q0 -6 -2 -10q-6 -29 -22.5 -41t-26.5 -17q-10 -25 -13 -38t-18 -17q-2 -4 -2 -14t-6 -25q-6 -35 -17 -52t-44 -36q-16 -10 -17.5 -28.5t-9.5 -36.5q-10 -12 -16 -17.5t-11.5 -8.5t-9.5 -8t-10 -22l-70 -8q-8 2 -15 15.5 t-13 29t-9 28.5t-3 15z" />
<glyph unicode="0" horiz-adv-x="1118" d="M164 213q-35 70 -52.5 114t-17.5 81q0 86 8.5 156.5t47.5 129.5l81 131q12 16 44 41t69 46.5t72 37t57 15.5q20 -6 32.5 -8.5t20.5 -2.5q10 0 16.5 3.5t10.5 7.5h59q43 0 76 -10.5t72 -41.5l76 -73l45 -23q25 -16 33 -37.5t13 -44t9 -45t20 -41.5q12 -18 22.5 -25.5 t18 -14.5t13.5 -18t10 -34q2 -18 4 -63t2 -80q0 -10 -5 -29.5t-12.5 -40t-13.5 -36t-8 -17.5q-4 -12 -14 -36t-23.5 -48.5t-26 -46t-18.5 -29.5q-29 -12 -45 -26.5t-27.5 -29t-22.5 -25.5t-30 -17q-33 -18 -71.5 -23.5t-73.5 -19.5h-60q-82 0 -136 15t-97 44t-83 70t-95 94z M193 492q0 -27 13 -69t33.5 -87t45 -83t49.5 -56q27 -18 67.5 -35t84.5 -29t86 -18t73 -6q16 0 23.5 12t23.5 16q16 8 27.5 11.5t20 8.5t16.5 12t18 21q10 18 24.5 29.5t28 23t24.5 25t15 35.5q2 8 4 27.5t4 21.5q6 31 15.5 49.5t9.5 53.5q0 39 -7 69.5t-42 55.5 q-4 16 -5 23t-1 11q0 37 -18.5 57.5t-45.5 53.5q-29 39 -50 55.5t-43.5 23.5t-47.5 14t-55 28h-113l-9 -4t-21.5 -9.5t-26 -12.5t-21.5 -13q-35 -18 -69.5 -55t-64.5 -83t-48 -93t-18 -84z" />
<glyph unicode="1" horiz-adv-x="884" d="M119 43q0 37 27.5 50t64.5 19.5t71.5 11.5t49.5 26q8 16 19 51t11 51l-30 156q0 8 4 25.5t8 35.5t8 33.5t4 19.5l-24 217q0 12 4 22.5t10 22.5q-27 29 -52.5 46.5t-53.5 29.5q-18 6 -42 10t-45.5 12.5t-36 20.5t-14.5 37q0 29 30 35t48 6l125 -8q16 0 24.5 1t26.5 7 q27 -4 50.5 -6t48.5 -2q20 0 42.5 2t45.5 6q8 8 28.5 14t44 10.5t46 5.5t36.5 1q8 0 22.5 -1t29 -5.5t23.5 -12.5t9 -22q0 -31 -19.5 -48.5t-47 -27.5t-56 -16.5t-47.5 -12.5q-16 -6 -29.5 -33.5t-23.5 -46.5l-16 -223l20 -168l-20 -30q0 -2 4 -13.5t6 -13.5v-2 q0 -14 -5 -28.5t-5 -31.5q0 -29 11 -49t15 -47q6 -2 35 -6t41 -6q8 -4 30.5 -16.5t46 -27.5t42 -31.5t18.5 -31.5v-2q-2 -12 -11 -24t-21 -25l-168 -6q-2 2 -9.5 4t-9.5 2q-8 2 -33 2h-53q-57 0 -116.5 -2t-112.5 -10l-23 -12q-37 0 -64.5 16t-41.5 39z" />
<glyph unicode="2" horiz-adv-x="1001" d="M41 14q2 6 10 24.5t12 31.5q4 6 18.5 15t30 17.5t31 15.5t23.5 13q41 31 87 54.5t85 58.5q37 33 77 79t72.5 98t54 108.5t21.5 107.5q0 49 -42 91t-99 42l-45 -16h-45q-10 0 -22.5 -2t-22.5 -15q-18 -12 -32.5 -33.5t-29 -42t-32 -36t-43.5 -15.5q-12 0 -25.5 2t-22.5 13 v34q0 33 5.5 48.5t14.5 24.5t22.5 18.5t27.5 29.5l16 21q29 35 58.5 66.5t77.5 45.5l90 13l57 12q29 0 68 -5t77.5 -15.5t74.5 -28t59 -43.5q8 -10 14 -23.5t10 -15.5l37 -59v-138q0 -23 -16.5 -41t-28.5 -34q-2 -2 -7 -17.5t-26 -68.5q0 -2 -2 -5l-4 -2q-25 -16 -29 -36.5 t-24 -38.5q-25 -23 -49.5 -24t-49.5 -15q-2 0 -9 -6.5t-16 -14.5t-17.5 -15t-10.5 -9q-2 0 -11 -6.5t-19.5 -14.5t-19.5 -14t-11 -8q-6 -4 -16.5 -15.5t-20.5 -24t-17.5 -23.5t-7.5 -17t7 -6h38q31 0 56.5 -3.5t50.5 -13.5h59q63 0 127 9.5t121 35.5q10 6 12 14.5t7 16.5 q16 20 40.5 35.5t49.5 27.5l18 -59q0 -20 -9 -41.5t-22 -44.5q-4 -8 -7 -29.5t-10 -44t-19.5 -40t-30.5 -17.5l-21 -2q-47 -6 -91 -13.5t-89 -7.5q-29 0 -54.5 15.5t-51.5 15.5q-25 0 -54.5 -4t-50.5 -8q-4 0 -14 -6t-17 -13l-108 31q-14 0 -27.5 -8t-29.5 -10 q-45 -4 -83 -8.5t-92 -4.5q-20 0 -41.5 6.5t-21.5 26.5v4z" />
<glyph unicode="3" horiz-adv-x="808" d="M10 -399q0 23 2 36t9.5 21t21.5 12t37 11q10 4 29.5 12t29.5 8q18 0 34.5 -9t33 -19.5t34 -19.5t38.5 -9q57 0 104 37.5t74 85.5q2 4 4 18t2 20q10 10 24.5 14.5t14.5 24.5v119q0 8 -5 18.5t-12.5 20.5t-13.5 18.5t-8 10.5q-37 53 -83 82.5t-97 66.5q-2 4 -14.5 18.5 t-18.5 14.5q-27 0 -56.5 -16.5t-54.5 -16.5q-14 0 -27.5 16.5t-13.5 30.5q0 25 19.5 42.5t47.5 29.5t54.5 20.5t42.5 14.5q2 2 16.5 18.5t20.5 18.5q25 23 52.5 35t43.5 40l15 21q33 51 59.5 105.5t26.5 113.5q0 6 -25 29.5t-39 46.5q-10 18 -32.5 23.5t-41.5 5.5 q-43 -14 -72.5 -22.5t-68.5 -8.5l-55 2q-18 2 -24.5 19.5t-6.5 29.5q0 27 6 33l31 16q25 14 39 32.5t37 37.5q41 29 98 43t111 14q25 0 44 -10t44 -23q41 -16 67.5 -30.5t43 -35t25.5 -48t19 -66.5q2 -12 7.5 -25.5t5.5 -25.5q0 -27 -9.5 -59.5t-22.5 -65.5t-31.5 -62.5 t-37.5 -50.5q-16 -23 -39.5 -27.5t-42.5 -23.5q-18 -18 -23 -35.5t-20 -33.5q-25 -8 -24 -33q0 -4 1 -5t1 -3q6 -16 28.5 -35t48 -39.5t49 -38.5t34.5 -31q4 -35 14 -57.5t21.5 -44t20.5 -46t9 -63.5q0 -12 -2 -37.5t-6 -52t-9 -51.5t-12 -33l-30 -39q-16 -16 -23.5 -43.5 t-25.5 -44.5q-31 -33 -85.5 -71.5t-118 -71.5t-126 -55.5t-107.5 -22.5q-20 0 -33.5 15.5t-27.5 31.5q-33 20 -51.5 40t-18.5 67z" />
<glyph unicode="4" horiz-adv-x="1132" d="M500 -367l22 64l-8 74q0 25 5 45t11 45t10.5 48t4.5 48q0 10 -12.5 23.5t-18.5 17.5l-135 6q-16 0 -39 -2t-47 -6q-55 -12 -96 -12l-45 10q-2 0 -29 -10q-10 0 -15.5 3t-10.5 8t-12 8t-22 3q-16 0 -22 -2q-8 18 -10 31.5t-2 32.5q0 25 2 38t10 29q53 74 100 149.5 t95 153.5l26 45q12 16 26.5 17.5t28.5 19.5q2 6 4.5 17.5t2.5 15.5q2 2 9 8t14 14.5t14.5 15.5t7.5 11l16 43l23 21q2 6 9 18t16 27.5t17.5 29t12.5 19.5q0 2 2 12t4 10l63 66q0 6 2.5 10t4.5 8q0 2 5 18.5t7 18.5l37 39q14 18 24.5 33.5t21.5 27t26.5 16.5t41.5 5 q20 0 31.5 -28.5t18 -65.5t8.5 -73t2 -50l-2 -55q-16 -18 -18.5 -32.5t-2.5 -35.5q0 -20 6.5 -30.5t6.5 -28.5l-11 -84v-21l11 -37l-17 -213q0 -16 4 -32.5t27 -20.5q20 -4 39 -4h41h41q20 0 43 4q18 16 36.5 18.5t43.5 2.5q12 0 34.5 -8.5t46 -20.5t41 -27.5t17.5 -31.5 q0 -59 -27.5 -108.5t-95.5 -49.5q-27 0 -49.5 9t-61.5 9q-12 -2 -26.5 -3t-30.5 -1q-23 0 -44 -2t-38.5 -11t-29 -25.5t-11.5 -45.5q-2 -4 -2 -12v-19v-96q0 -27 2 -35q-8 -14 -8 -34q0 -16 8 -22.5t13 -25.5q6 -43 6 -81q0 -43 -6 -80q0 -10 -11.5 -24.5t-27 -28 t-29.5 -22.5t-21 -9q-10 0 -21 11t-24 13q-39 8 -56 17.5t-23.5 24t-9.5 35t-11 54.5zM254 225q0 -29 37 -34t69 -5q14 0 50 3.5t74 11.5t68 19t30 28q0 14 -2 37.5t-4.5 46t-4.5 41t-2 20.5l-10 21q-2 10 -2 20v29q0 20 -3 43.5t-11 42t-22.5 31t-37.5 12.5 q-20 0 -40.5 -17.5t-38 -41t-32 -49t-24.5 -40.5l-78 -157q-10 -23 -13 -33.5t-3 -28.5z" />
<glyph unicode="5" horiz-adv-x="903" d="M102 -444q0 31 18.5 64.5t51.5 45.5q49 45 91 89t67 91q10 16 10 43q0 10 2 20.5t4 18.5l23 60q0 10 1 14t1 10q0 12 10 18.5t10 35.5l-6 49l12 63q0 8 -10 27.5t-25.5 41t-32 42t-26.5 33.5q-2 2 -3 4t-5 6l-2 4q-6 8 -23.5 21.5t-37 28.5t-36 28.5t-18.5 23.5l-6 37 q-18 35 -28.5 52.5t-10.5 58.5q0 33 3 52t18 56q-2 4 -4.5 13.5t-2.5 13.5q0 53 20.5 81.5t43.5 67.5v31l37 39q18 25 32.5 40t30 24.5t36 13.5t52.5 4q53 0 110.5 -16.5t108.5 -16.5q29 0 54.5 15.5t47 33t39 32.5t29.5 15q10 0 11.5 -16t1.5 -27v-2q-6 -31 -13 -55 q-4 -23 -10 -40t-10 -19q0 -6 -5 -13.5t-7 -11.5l-23 -22q-6 -12 -9 -28.5t-8 -32t-15.5 -27t-28.5 -11.5q-45 0 -85 8.5t-78 17.5t-76 17t-79 8h-55q-18 -6 -28.5 -28.5t-10.5 -42.5q0 -8 27.5 -39t62.5 -68l43 -43q20 -23 39 -48t29 -42q10 -27 30.5 -49t38.5 -49l19 -47 q23 -18 27 -24.5t4 -12.5q0 -20 3 -36.5t15 -22.5v-52l-10 -114l10 -31q0 -18 -5 -53t-11 -56l-27 -28q-10 -20 -12 -52t-13 -57q-18 -31 -59 -89t-90 -117.5t-100.5 -103.5t-90.5 -44q-27 0 -57.5 19.5t-30.5 54.5z" />
<glyph unicode="6" horiz-adv-x="976" d="M102 399q0 47 11.5 94.5t19.5 90.5q4 4 8 20q25 43 37 94.5t47 102.5q14 25 29.5 43t30.5 30q39 31 57 62t49 72l55 49l15 33q2 2 13 9t27.5 18t35 21.5t34.5 18.5q25 12 27 14q4 2 21.5 7.5t23.5 9.5q25 25 36 41t40 37q25 10 54.5 22t53.5 27q29 25 44.5 41t54.5 16 q14 0 33.5 -1t38 -7t30.5 -17.5t12 -31.5q0 -33 -19.5 -42t-43.5 -22q-14 -16 -22.5 -34.5t-28.5 -28.5q-4 -2 -17.5 -6t-23.5 -15l-35 -16q-20 -12 -31.5 -28.5t-30.5 -32.5q-14 -12 -34.5 -26.5t-40 -31t-32.5 -36t-13 -42.5q-16 -10 -34 -16t-35 -14.5t-34.5 -18.5 t-29.5 -31q0 -2 -2.5 -15t-4.5 -15l-12 -15q0 -4 19.5 -9t45 -11l51 -12t36.5 -13q51 -29 82.5 -53t68.5 -69q6 -6 17.5 -32t21.5 -55.5t17.5 -56t7.5 -33.5q-2 -31 -5.5 -44t-3.5 -15q2 -14 3.5 -23.5t1.5 -17.5q0 -16 -2.5 -23.5t-2.5 -11.5q0 -25 -5 -46t-19 -46 q-25 -37 -42 -69.5t-40 -67.5q-2 -2 -6 -4t-4 -4q-2 0 -14.5 -2t-18.5 -5q-4 -4 -21.5 -21t-21.5 -24h-18t-25.5 -2t-25 -4t-15.5 -4q-25 -4 -39 -21.5t-43 -17.5q-53 0 -87 15.5t-81 33.5q-2 0 -12 2.5t-20.5 5.5t-19.5 5t-11 2q-14 2 -30.5 14t-32 28.5t-29 32t-21.5 23.5 q-2 2 -8 19.5t-12.5 39t-11.5 42t-7 26.5q0 4 -3 15.5t-7 22.5t-8 20.5t-6 11.5q-2 12 -4.5 15t-2.5 13zM240 397l6 -28q2 -6 7 -22.5t13 -39t18.5 -49.5t24.5 -51q12 -27 36 -50.5t52 -35.5q2 -2 15 -2h75q29 4 48 18q2 2 12 12.5t22.5 21.5t22.5 21.5t12 14.5 q53 47 68.5 100t15.5 131q0 41 -13 64.5t-26 62.5v39q-12 29 -28.5 40t-40.5 22q-10 2 -23.5 13t-29 22.5t-32 21.5t-30.5 14q-10 0 -27.5 -2t-36 -7t-34 -12t-19.5 -18l-78 -151l2 -19q0 -25 -2 -55.5t-6 -38.5q0 -4 -12 -19.5t-12 -17.5z" />
<glyph unicode="7" horiz-adv-x="1028" d="M547 -553l-8 10l8 39q-6 14 -6 35q0 8 6 25l-8 36q16 29 28.5 57.5t20.5 57.5l20 68q6 29 22.5 53.5t20.5 52.5q4 41 16.5 72t22.5 72q8 23 8 36q0 6 -2 11.5t-2 15.5l4 27q0 4 2 8q4 8 5 8q6 4 21 22.5t17 22.5l11 37q12 37 24.5 78t34.5 74v30q0 31 4 57.5t10.5 54.5 t12.5 57.5t10 64.5q0 31 -11.5 49t-29.5 28.5t-42 13.5t-48 3h-88q-49 4 -96.5 9t-98.5 5h-20l-15 11h-190q-16 0 -26.5 -26t-25 -56.5t-35 -56t-56.5 -25.5q-6 0 -7 10l2 29q0 47 11.5 74.5t13.5 56.5q2 16 4 52t8 71.5t21.5 63.5t46.5 28q14 -2 19.5 -6.5t8.5 -9.5t6 -11 t9 -12q2 -2 22.5 -7t45 -10.5t47 -9.5t28.5 -4t11.5 1t11.5 3q8 2 24 2q25 0 49.5 -5t49.5 -7q43 -2 83 -7t81 -5q25 0 49 8q10 2 20 3t25 1q12 0 18 -3t23 -16h129q8 0 23.5 -14t15.5 -20q0 -43 -13.5 -79t-13.5 -71l10 -80q-6 -27 -11 -60.5t-12 -67t-19.5 -64.5 t-33.5 -53v-99q-14 -16 -22 -36.5t-25 -39.5q-4 -8 -12 -19t-8 -15l14 -41q-2 -4 -15 -22.5t-18 -22.5q-10 -16 -11 -33t-3 -33t-7 -30.5t-24 -22.5v-21q0 -37 -8 -85t-14 -78q0 -8 -6 -15q-27 -47 -26 -90t-5 -94q-4 -23 -18.5 -38t-20.5 -36l-6 -20q-10 -23 -20.5 -33 t-49.5 -10q-16 0 -22 16z" />
<glyph unicode="8" horiz-adv-x="931" d="M557 762q35 -49 70 -76t73 -70l23 -36l29 -25q8 -14 18 -46t19.5 -66.5t14.5 -67.5t5 -47q0 -18 -1 -43t-5 -51.5t-12.5 -50t-22.5 -38.5q-35 -39 -67.5 -67.5t-69.5 -48t-80 -29.5t-98 -10q-84 0 -158 32.5t-127 98.5q-10 35 -27.5 71.5t-17.5 73.5q0 53 28.5 103.5 t53.5 95.5q10 23 15 43t24 39q12 14 28.5 29.5t31.5 32t26.5 36t11.5 41.5q0 18 -13.5 37.5t-31.5 39t-39.5 37t-40.5 29.5q-6 6 -21.5 38t-32 70t-28.5 72.5t-12 45.5q0 76 17.5 144.5t54 120.5t95 83t142.5 31q57 0 109.5 -9.5t105.5 -33.5q25 -16 48.5 -45t42 -64 t30.5 -71.5t16 -67.5q0 -33 -14 -76t-36.5 -87t-48.5 -83t-46 -59q-4 -6 -17.5 -15.5t-27.5 -18.5t-25.5 -20.5t-11.5 -21.5zM342 152q25 -29 60.5 -49.5t76.5 -20.5q29 0 53.5 14.5t43 37t29.5 50t11 54.5q0 16 -7 31.5t-7 33.5q0 8 8 27q4 8 8.5 18t6.5 14q0 23 -18.5 60 t-45 71.5t-56.5 60.5t-52 26q-47 0 -74 -26t-41 -63.5t-20.5 -80.5t-12.5 -76q-2 -4 -4 -18.5t-2 -18.5t6 -19.5t8 -19.5q2 -6 6.5 -20.5t9.5 -32t9 -32.5t4 -21zM305 1135q0 -31 12.5 -78t34 -92t51 -78t66.5 -33q6 0 18.5 1t26.5 7q0 4 2 24.5t4 24.5q0 4 11.5 19.5 t17.5 19.5q2 4 10 21.5t10 27.5q2 4 8.5 15.5t13.5 24t12 22.5t5 12q0 20 -8 42t-12 42q-10 49 -17.5 91t-44.5 77q-16 10 -40.5 27.5t-28.5 19.5h-27q-45 0 -70.5 -23.5t-38 -59.5t-14.5 -77.5t-2 -76.5z" />
<glyph unicode="9" horiz-adv-x="1073" d="M8 -264l17 22q2 6 4 27.5t2 26.5q10 27 22.5 28.5t28.5 22.5q12 14 10 27.5t14 23.5q33 10 55.5 31.5t53.5 40.5l143 65q14 18 45 41t62 48.5t54.5 51t23.5 50.5q0 2 -28 10t-62.5 18.5t-67.5 22.5t-43 22q-53 41 -89 78t-58.5 78t-32.5 93t-10 124q0 41 15 82t40.5 79 t57.5 69.5t65 56.5q27 23 53.5 30t50.5 31q29 4 55.5 7.5t57.5 3.5q25 0 50.5 -2.5t51.5 -8.5q4 -2 10.5 -7t10.5 -9l69 -12q47 -16 92.5 -52t63.5 -88q0 -4 2 -20.5t4 -18.5l29 -28q12 -18 21.5 -45t15.5 -54.5t8 -53t2 -44.5q0 -6 -4 -25.5t-8 -41t-8.5 -39t-4.5 -19.5 l-14 -14v-39q0 -2 -14.5 -14.5t-16.5 -14.5v-32q-2 -10 -18.5 -23.5t-20.5 -19.5q0 -2 -2 -16.5t-4 -16.5q-18 -25 -49 -40.5t-51 -41.5q-47 -66 -104.5 -121t-114.5 -109q-2 -2 -12.5 -13t-14.5 -13q-2 0 -12 -4t-17 -8q-27 -10 -55.5 -29t-52.5 -39l-27 -27l-49 -10 l-27 -29q-18 -12 -41.5 -28.5t-50 -30.5t-53.5 -23.5t-49 -9.5l-68 13zM367 530v-22q2 -4 9 -15.5t16 -25.5t17.5 -25.5t12.5 -15.5q16 -29 36.5 -41t45.5 -23l45 -22q8 -2 13 -10t8 -17.5t6.5 -17.5t9.5 -12q51 23 76.5 56.5t60.5 80.5q4 47 21.5 91t17.5 91q0 27 -2 35 t-3 16.5t-1 20.5l6 47q-25 51 -38 93t-33.5 70.5t-53.5 44t-94 15.5h-39q0 -14 -10.5 -27.5t-23.5 -26.5t-26.5 -24.5t-21.5 -21.5q-27 -31 -42 -76t-28 -82q0 -31 4 -57.5t9 -53.5q2 -4 2 -12v-12v-21z" />
<glyph unicode=":" horiz-adv-x="651" d="M147 137q0 55 18.5 77t57.5 48q25 16 39 33.5t33 17.5q6 0 18.5 -2t26.5 -5t25.5 -6t15.5 -5t16.5 -10.5t16.5 -8.5h43q10 -4 17 -18t12.5 -33.5t7.5 -38t2 -26.5q0 -23 -9.5 -53.5t-13.5 -55.5q-14 -20 -56 -32.5t-69 -12.5h-35q-16 0 -35.5 3t-35.5 16q-4 4 -21.5 20 t-21.5 25q-10 10 -31 29.5t-21 37.5zM186 758l-2 12q0 27 8.5 61.5t26 66.5t42 53.5t56.5 21.5q18 0 41 -6t46.5 -16.5t44 -23t32.5 -24.5q8 -10 15.5 -44t7.5 -52q0 -53 -33 -76.5t-84 -40.5q-2 -2 -4 -2q-12 -4 -42 -13t-40 -9q-14 0 -33.5 10t-38 24.5t-31 30t-12.5 27.5 z" />
<glyph unicode=";" horiz-adv-x="724" d="M109 -547q0 27 22.5 55.5t54 58.5t64.5 57.5t51 51.5q12 20 16.5 46t28.5 36q18 41 42 87t24 112q-6 12 -12.5 16t-14.5 6.5t-14 4.5t-13 12q-4 6 -15 30.5t-32 24.5q-23 0 -36 -13t-35 -13q-51 0 -84 25.5t-33 78.5v16l16 23q12 31 28.5 59.5t38 51t48.5 36t63 13.5 q74 0 129.5 -34t93.5 -87t57 -120t19 -130q0 -37 -7 -63.5t-19 -59.5l-33 -115q-12 -29 -29.5 -54t-38 -48t-43 -46.5t-40.5 -47.5q-2 0 -5.5 -10.5t-3.5 -12.5q-4 -12 -23.5 -21t-44 -18.5t-50 -19.5t-39.5 -23q-12 -2 -23.5 -3t-23.5 -1t-23.5 1t-22.5 3q-14 4 -26 11.5 t-12 23.5zM240 862v41q2 12 19 25.5t38.5 25t42 19.5t29.5 8q45 0 72.5 -8t44 -26.5t24.5 -48.5t18 -71q0 -39 -19.5 -70.5t-48 -53t-60 -33t-58.5 -11.5q-29 0 -48.5 25t-31.5 57.5t-17 66.5t-5 54z" />
<glyph unicode="&#x3c;" horiz-adv-x="1273" d="M578 428l-29 35q-53 35 -69.5 44t-18.5 9q-12 0 -23.5 11.5t-20.5 24.5t-15.5 27.5t-10.5 20.5q-27 12 -39 18.5t-35 34.5l-75 78q-18 4 -44 17.5t-47.5 31t-37 40t-15.5 44.5q0 27 18.5 47.5t44 37t53.5 29.5t44 26q6 2 13.5 11t14.5 19t14 18.5t13 8.5q29 31 44.5 38 t37.5 29q10 14 11 25q0 10 18 27l76 24l78 78q10 0 16 1t12 3l12 4q8 4 11.5 13.5t15.5 13.5q25 18 39 28.5t23 16.5q8 8 14 10q16 2 32.5 19.5t32 38t29.5 39t27 22.5q20 6 29.5 14t15.5 17.5t12 17.5t21 19q35 25 75.5 38t75.5 39q14 -10 28.5 -30.5t14.5 -44.5 q0 -29 -11 -45.5t-27.5 -27.5t-36 -23.5t-35.5 -32.5q-12 0 -33 -12.5t-42.5 -30t-40 -33t-26.5 -21.5q-4 -2 -13 -9t-19.5 -16.5t-18.5 -17.5l-10 -10l-80 -53q-8 -8 -19.5 -21.5t-23.5 -26t-25.5 -21.5t-27.5 -9q-6 0 -9 2q-2 -6 -9 -23.5t-13 -21.5l-8 -4q-2 -2 -6 -2 q-2 0 -5 -2q-27 -6 -38 -22.5t-29 -26.5q-31 -25 -51.5 -38.5t-39 -24.5t-39 -24.5t-48.5 -35.5q0 -20 14 -38t27 -18q51 -33 91 -65.5t85 -67.5q2 -2 12 -7l14 -7q2 0 17.5 -10t33 -22.5t33 -24t21.5 -13.5q12 -23 19.5 -28.5t14.5 -7t15 -3.5t25 -16q6 -8 20 -26.5 t32.5 -37t37 -31.5t28.5 -13q27 -20 55.5 -39t53.5 -41q25 -18 35 -32.5t39 -29.5q16 -10 39.5 -22.5t45 -28.5t36 -35.5t14.5 -46.5q0 -16 -9.5 -38.5t-26.5 -44t-39.5 -36t-47.5 -14.5q-20 0 -38.5 16.5t-39.5 30.5q-10 8 -29.5 10t-37.5 13l-58 73l-28 13q-12 8 -23.5 22 t-24 30.5t-28 32t-37.5 25.5q-12 4 -28.5 17.5t-32 28t-27.5 25.5t-15 11z" />
<glyph unicode="=" horiz-adv-x="1036" d="M129 367q-6 2 -6 22v25q0 16 1 39.5t6 46t16.5 41t33.5 22.5h58q25 2 44 11.5t46 9.5l67 -15q18 0 27.5 3t21.5 3q20 0 41 -4t43 -8q31 -14 66 -14q33 0 64.5 10t64.5 10l47 -6q18 0 30.5 10.5t33.5 10.5q29 0 53 -11.5t41 -35.5v-31q0 -37 -5 -61.5t-5 -69.5 q-16 -35 -49 -45.5t-62 -10.5l-123 9q-162 0 -328 -6q-35 -2 -70.5 -11.5t-72.5 -9.5q-25 0 -52.5 20.5t-31.5 45.5zM109 784v50q0 16 1 39.5t6 46t16 39t34 18.5h55q25 2 45.5 14.5t48.5 12.5q18 0 31.5 -10.5t36.5 -10.5l47 8q20 0 39.5 -4t38.5 -8q20 -4 36.5 -7t33.5 -3 l131 14l47 -6q18 0 30.5 13.5t32.5 13.5q55 0 92 -54v-22l-8 -123v-31q-18 -23 -50 -32t-62 -9l-123 12q-84 0 -165 -2t-161 -8q-35 -2 -73 -8t-72 -6q-20 0 -51 19t-37 44z" />
<glyph unicode="&#x3e;" horiz-adv-x="1271" d="M696 438h-41q-4 0 -15 -11t-28.5 -25.5t-36 -28t-34.5 -17.5q-35 -23 -55.5 -58.5t-47.5 -51.5l-26 -8l-60 -78q-16 -8 -36.5 -10.5t-32.5 -12.5q-18 -14 -37 -28.5t-39 -14.5q-27 0 -48.5 14.5t-38 35t-25.5 43t-9 38.5q0 27 14.5 46.5t36 35t44 26.5t40.5 23 q29 14 39 29.5t35 36.5q25 18 53.5 37.5t52.5 38.5q12 0 30 13t36 31.5t32.5 37t20.5 26.5q16 14 25.5 17.5t16.5 4.5t14.5 6t19.5 28q2 4 18.5 15t35 23.5t34.5 21.5l16 9q6 2 14.5 9.5t10.5 9.5q45 33 86 65.5t92 65.5q12 0 26.5 16t14.5 37q-29 25 -48 38t-38.5 25.5 t-41 24.5t-52.5 35q-18 12 -29.5 27.5t-36.5 25.5q-6 0 -10 2q-4 0 -10 2q-10 10 -14.5 26.5t-18.5 16.5t-27.5 10.5t-25.5 22.5t-22.5 25.5t-16.5 19.5l-80 59q-4 0 -12 6.5t-18.5 14.5t-19.5 16t-11 10q-10 6 -28.5 21.5t-40 32t-42 30t-35.5 13.5q-16 23 -34.5 34t-35 22 t-27.5 26.5t-11 46.5q0 25 15 45t32 30q31 -27 72.5 -40t74.5 -37q12 -8 19.5 -17.5t14.5 -18.5t17.5 -17.5t28.5 -14.5q10 -4 24.5 -22.5t31 -39t33 -38t32.5 -19.5q2 0 4 -2q0 -2 4 -2q2 0 2 -2q29 -20 45.5 -33.5t24.5 -22.5l12 -13.5t10 -6.5q4 -2 13 -2h28 q16 -12 36 -38.5t40 -41.5q37 -18 56.5 -29t28.5 -20.5t13 -16.5t9 -13q10 -10 19 -15.5t19.5 -11.5t20.5 -14.5t25 -22.5q4 0 11 -9t14 -19.5t14.5 -20.5t11.5 -12q18 -12 45.5 -25.5t52.5 -30t43.5 -37t18.5 -47.5q0 -23 -15.5 -45t-37 -39.5t-45 -31t-42.5 -17.5 q-10 -2 -21.5 -14t-21.5 -26.5t-19 -26t-16 -11.5q-20 -29 -34.5 -35t-38.5 -18q-4 -6 -11.5 -19.5t-16.5 -27.5t-20.5 -25.5t-23.5 -11.5q-2 0 -3 -1t-5 -1q-4 -2 -6 -2q-20 -4 -36 -12t-32 -25z" />
<glyph unicode="?" horiz-adv-x="903" d="M109 115q0 14 9 34.5t23.5 37t33 28.5t36.5 12q82 -6 111.5 -48t29.5 -113q0 -18 -10 -32t-25.5 -22t-33 -12t-31.5 -4q-63 0 -103 24.5t-40 94.5zM641 1040v4q-12 39 -23.5 70t-27 55.5t-38 46t-54.5 41.5q-8 6 -15.5 16.5t-9.5 16.5l-51 64q-35 0 -59.5 16t-57.5 21 q-27 33 -39 53t-12 53q0 18 6 38.5t25 31.5h28q31 0 52.5 -14.5t39 -34l35 -39t39.5 -29.5l56 -16q43 -23 73.5 -62t63.5 -69q2 -2 10 -6.5t12 -6.5q16 -10 35 -32.5t33 -49t23.5 -53.5t9.5 -45q0 -35 -11.5 -66.5t-21.5 -62.5l-14 -137q-6 -25 -27 -42.5t-35 -33.5l-4 -4 q-4 -4 -4 -10q-29 -47 -59.5 -69.5t-65.5 -33t-77 -13.5t-93 -9q-25 -6 -27 -20.5t-14 -37.5q0 -2 -9 -15t-14 -15q-10 -23 -14 -51.5t-10 -53t-21.5 -42t-48.5 -17.5l-28 6q-4 2 -8.5 9t-4.5 11q-2 43 -3 85t-1 87v54q0 29 4 57q0 57 39 81t92.5 32t108.5 11t88 19 q12 6 15 20.5t8 24.5q8 12 15 14.5t19 2.5q14 0 19 2q12 2 22.5 22.5t17.5 45t10 48t3 31.5z" />
<glyph unicode="@" horiz-adv-x="1847" d="M967 494q4 6 13 26.5t13 28.5q8 10 8 35q-2 2 -2 6v10q0 4 -6 13.5t-14 9.5q-4 0 -4 -2l-4 -3q-4 0 -6 -2t-4 -2l-7 -6q-2 -2 -4 -2q-2 -4 -16 -16t-19 -17l-69 -45q-4 -6 -20.5 -22.5t-22.5 -20.5q-29 -29 -70 -48t-80 -23h-35q-18 0 -35.5 1t-33.5 5q-6 0 -10 8 q-51 29 -68 92q-4 16 -5 28.5t-1 29.5v26q0 16 5 33.5t13 34.5q16 41 36 78.5t40 74.5q8 10 14.5 20.5t12.5 18.5q0 4 2 8q2 2 4 7q4 6 13 16t18.5 21.5t17.5 21.5t12 14q4 10 15.5 13.5t17.5 11.5l100 84l2 4q0 2 3 4q2 2 11 12.5t20.5 22.5t20.5 23.5t13 15.5q2 2 6 5t6 5 l2 2h7q2 0 6 2q14 2 28 21q47 37 93.5 58t105.5 32q18 4 37.5 5t40.5 1h10q12 -4 19.5 -9t17.5 -8q8 -4 12 -4h29l2 2q10 8 16 16.5t15 18.5q16 16 32.5 29.5t38.5 13.5h15q16 -16 23 -36.5t7 -43.5q0 -39 -13 -67.5t-30 -59.5q-4 -10 -5 -19t-3 -20q0 -8 -4 -12l-131 -268 q-2 -6 -2 -16t-2 -19q-10 -20 -19.5 -40.5t-19.5 -43.5v-4q-4 -6 -6 -14q-2 -6 -4 -11.5t-2 -7.5q-2 -4 -6 -10t-4 -16t2 -21.5t16 -11.5t24.5 7t20.5 15l133 76q6 6 16 10l70 62t63.5 65.5t49 73.5t26.5 84q4 20 6.5 43t2.5 45q0 16 -4.5 34.5t-6.5 39.5q-29 66 -49 118 t-47 91h-2l-84 114q-37 14 -64.5 35t-60.5 39q-41 25 -72.5 42.5t-64.5 21.5q-16 -4 -25.5 -5t-15.5 -1h-21h-16q-4 0 -14 -3l-43 21q-35 0 -72 -5t-61 -34q-74 -6 -124 -21.5t-89 -40t-71 -62.5t-69 -91l-32 -33l-45 -67q-8 -8 -11.5 -21.5t-3.5 -23.5l-59 -148 q-12 -27 -17.5 -65.5t-9.5 -65.5q0 -6 -5 -17.5t-9 -24.5t-8 -26.5t-4 -21.5q6 -98 29.5 -179t56.5 -147q8 -12 12 -29.5t9 -35t15.5 -34.5t32.5 -32q14 -29 31.5 -57.5t42.5 -46.5q33 -25 52.5 -53.5t58.5 -63.5q14 -2 31.5 -7t35 -11t31.5 -11.5t20 -7.5l74 -22l111 2 q29 4 52 6t42 2q35 0 54.5 -3t29.5 -3q8 0 14 -3t25 -3q16 0 26.5 3t19.5 8t19.5 9t26.5 6q2 2 24.5 15.5t50 29t50 27.5t24.5 12q39 0 52.5 -9t13.5 -26q0 -20 -17.5 -43.5t-29.5 -35.5q-33 -49 -49.5 -59.5t-32.5 -10.5t-28.5 -4t-24.5 -8q-31 -14 -69 -24.5t-85 -10.5 l4 2q-8 -2 -20 -2h-27h-162h-30t-23 2q-72 0 -144.5 19.5t-142.5 31.5q-2 0 -8 3t-8 5q-33 25 -69 49.5t-74 44.5l-41 9q-6 2 -27 18t-43.5 35.5t-41.5 39t-22 27.5l-94 166q-10 23 -24.5 69t-29.5 97t-25.5 96.5t-10.5 67.5q0 12 4 19.5t4 19.5l-8 70q0 27 6 66.5 t14.5 81.5t16.5 81t12 61q2 8 10.5 24.5t14.5 23.5q23 29 28 57.5t23 56.5q6 10 13.5 16.5t14.5 10.5t11 11t4 20l141 143l101 51q2 2 7 8t9 11l60 20l159 78l312 61h67l62 -28l30 4l84 -29q10 -4 33 -12t47.5 -18.5t46 -20.5t31.5 -17q31 -31 53.5 -47t55.5 -36 q10 -6 29.5 -30t40 -51.5t35.5 -53t17 -33.5q2 -16 2 -31q0 -12 2.5 -24.5t7.5 -22.5t19 -19q8 -41 18.5 -85t17.5 -83t12 -66.5t5 -33.5q0 -29 -5 -42t-11 -36q-16 -27 -29.5 -43t-13.5 -28q-16 -23 -24.5 -39.5t-15.5 -31.5t-18.5 -29.5t-31.5 -33.5q-43 -35 -70.5 -56 t-53.5 -38.5t-53.5 -33t-68.5 -40.5l-78 -65l-10 -8q-4 -2 -12 -10.5t-13 -10.5q-10 -10 -22 -12t-25 -8q-18 -12 -33.5 -27.5t-33.5 -25.5l-41 -13h-4l-78 13q-4 0 -6 2l-8 4q-4 4 -12.5 11t-12.5 11q-14 20 -14 45v13zM682 594q0 -16 4 -28.5t19 -18.5q12 -12 22 -12 q31 0 52.5 12t43.5 35q16 14 41 37.5t47 46.5l56 55l98 131l51 55l55 113l25 94q0 2 1 6t1 6q0 10 -2 21.5t-10 17.5q-2 2 -2 4t-2 5l-4 4h-4q-6 0 -7 2h-10q-4 0 -4 2h-18l-5 -2q-6 -2 -31.5 -13.5t-35.5 -15.5q-8 -2 -14 -12q-4 -2 -14.5 -12.5t-24 -20.5t-24.5 -20.5 t-13 -12.5l-10 -12h-15l-90 -96q-16 -16 -18 -35q-4 -6 -4 -15q0 -6 -5 -12q-10 -16 -21 -26.5t-22 -22.5q-4 -6 -14 -23.5t-12 -19.5l-76 -135v-10q-2 -16 -3 -35t-1 -37z" />
<glyph unicode="A" d="M-74 45q0 23 14.5 35t35 18t42 10.5t33.5 12.5q6 4 22.5 19.5t24.5 19.5l58 28q10 4 25.5 27t31.5 50.5t30.5 55t20.5 39.5q2 2 3 12.5t1 16.5q2 4 5 12.5t3 10.5q2 2 8.5 11t13.5 18.5t13 18.5t6 11l3 8q2 8 3 17.5t2 17.5t1 10q8 39 21 77t26.5 76t24 77t14.5 80 l82 225q16 47 19 99t17 104q20 47 49 91t52 95q10 27 11 55.5t17 52.5q6 8 30 32t51.5 48.5t53 44t37.5 19.5q23 0 31 -17q6 -4 12.5 -15t6.5 -13q6 -23 16 -43.5t18 -44.5l-2 -27q0 -16 8.5 -34.5t12.5 -30.5q12 -41 22.5 -80t16.5 -78q4 -25 15 -44.5t11 -43.5l-2 -19 q20 -18 31.5 -33.5t19 -32t13.5 -34.5t20 -45q12 -23 18.5 -44.5t10.5 -43t8 -45t15 -49.5q2 -4 8 -19.5t6 -19.5v-45q0 -2 5 -10.5t10 -18.5t10.5 -19.5t5.5 -13.5q0 -2 2 -18.5t4 -18.5l33 -32q16 -14 14 -37t10 -45q14 -33 24.5 -68t28.5 -69q10 -25 17.5 -52.5 t7.5 -54.5v-14q16 -27 34.5 -48.5t30.5 -41.5q10 -27 21.5 -42.5t23 -24.5t22.5 -14t22 -12q27 -16 54 -22t70 -14l33 -9q16 -10 19.5 -27.5t3.5 -31.5q0 -25 -19.5 -36t-40.5 -11l-100 6h-25q-12 10 -37.5 11t-29.5 3h-141q-10 12 -17.5 14.5t-21.5 2.5q-47 0 -100.5 -12.5 t-112.5 -12.5h-27q-18 0 -35.5 1t-30.5 9q-6 2 -6 21l2 18q2 8 2 19q0 8 9 10q20 8 47.5 13t52.5 11.5t42 17.5t17 32v2q-2 29 -5 62.5t-3 68.5q0 12 -7 25.5t-9 23.5v72q-2 16 -14.5 49t-31 66.5t-40 59t-41.5 25.5q-31 0 -63.5 -13t-65.5 -13q-29 0 -54.5 11t-60.5 11h-76 q-25 0 -49 -3t-47 -15q-37 -23 -67.5 -58.5t-45.5 -89.5l-8 -82q0 -4 -2 -13t-5 -19.5t-5 -19.5t-2 -11t-1 -7t-1 -9q0 -23 7 -32t17 -28q6 -10 16.5 -28.5t20.5 -30.5q16 -14 44 -22.5t55.5 -17.5t47 -23.5t19.5 -39.5v-8q-6 -47 -34.5 -61.5t-73.5 -14.5l-103 27h-43 q-41 0 -86 -5t-61 -15q-59 -2 -110.5 -4.5t-55.5 -2.5q-16 0 -34.5 5.5t-36 14.5t-29 21.5t-11.5 28.5zM537 848q-2 -14 -3.5 -26.5t-1.5 -22.5q0 -33 15.5 -44.5t48.5 -11.5q4 0 6 2t2 5q2 0 15.5 2t19.5 4q10 -2 20.5 -4t16.5 -2h186q80 0 80 73q0 10 -8 26.5t-18.5 37 t-20.5 41t-14 41.5q0 8 -7 14l-55 82q0 6 -4 12t-6 13l-6 24q-6 25 -14.5 60.5t-20.5 67.5t-26.5 54.5t-32.5 22.5q-10 0 -26.5 -31t-36 -79t-39 -104t-35 -108.5t-25.5 -93.5t-10 -55z" />
<glyph unicode="B" horiz-adv-x="1556" d="M76 39v6q6 6 35.5 16.5t64.5 21.5t64.5 19.5t33.5 10.5q20 31 31.5 61.5t16 63t6.5 66.5t6 69q8 29 13 52.5t5 51.5q0 20 -9 35.5t-9 34.5q0 31 9 61.5t9 59.5q0 20 -4 28.5t-4 26.5q0 25 10.5 38t10.5 32l-31 120q0 18 9 30.5t9 33.5l-8 35v75q0 8 -8 24.5t-8 21.5 q0 31 6 54t6 48l-6 188q-10 25 -27.5 31t-40.5 25q-20 29 -53 40t-64.5 17t-55 17.5t-23.5 39.5q0 20 17 32.5t41 18t47.5 6.5t37.5 1h43q20 0 45 -1t47.5 -2t37.5 -4.5t17 -7.5l383 15l97 -6l49 6q43 -18 84 -28.5t80 -25t73.5 -37t63.5 -61.5q27 -37 45 -65.5t29.5 -56 t16.5 -59.5t5 -77q0 -35 -8 -77t-25 -77q-25 -41 -55.5 -57t-69.5 -41l-12 -24q-8 -10 -29.5 -15.5t-45 -11.5t-41 -16.5t-17.5 -32.5q0 -10 21.5 -18.5t49 -15.5t54.5 -13t39 -11q35 -18 61.5 -36.5t57.5 -36.5l39 -27q16 -33 38.5 -65.5t43 -67.5t35 -72t14.5 -77 q0 -43 -3 -83t-20 -69q-10 -16 -41 -51t-67.5 -73t-72.5 -68.5t-54 -36.5q-41 0 -56.5 -5.5t-21.5 -5.5q-63 -20 -113.5 -33.5t-114.5 -17.5l-53 -18q-35 12 -65 12q-39 0 -72 -12q-70 6 -136.5 11t-137.5 5q-57 0 -116 -11t-122 -11q-6 0 -27.5 3t-46 10t-44 17.5 t-19.5 26.5zM571 358l17 -55q4 -47 5 -72.5t7 -40t19.5 -24.5t44.5 -25q12 -6 19 -11t15 -9q25 -10 48.5 -24.5t54.5 -14.5q23 0 36 7t31 7l56 -6q29 0 65.5 24.5t54.5 45.5q6 2 17.5 12t23 22.5t21.5 23.5t16 15q10 33 34 64t24 70q0 51 -4.5 104t-17.5 102.5t-37.5 93.5 t-65.5 78q-37 29 -73 45.5t-83 22.5h-61q-47 4 -86 14.5t-80 10.5l-70 -7q-4 -10 -14 -33.5t-17 -29.5q0 -18 4.5 -29.5t4.5 -25.5l-17 -166q0 -33 8.5 -69t8.5 -77zM596 901l14 -20l68 22q41 4 87 8t89 4h31t14 -2q70 57 112 140.5t72 160.5v21l-16 31q-12 43 -29.5 86 t-44 77.5t-62.5 59t-85 29.5q-6 0 -26.5 3t-24.5 3q-31 4 -55.5 24.5t-59.5 20.5q-8 0 -24.5 -8.5t-32 -20.5t-28.5 -25.5t-15 -23.5v-49l8 -94q0 -39 -12.5 -81t-12.5 -77q0 -78 13.5 -150.5t19.5 -138.5z" />
<glyph unicode="C" horiz-adv-x="1716" d="M139 627q0 8 -5 25.5t-5 23.5q-2 10 -2 22q0 14 10 33l-14 238l6 65l4 8l6 13q10 25 16.5 47t14.5 47q6 20 6 45q0 27 10 43q16 39 38 75t55 85q10 16 22 34.5t14 20.5q14 23 27.5 33t32.5 28q41 31 71.5 56.5t73.5 52.5l29 12q23 8 51.5 24.5t50.5 22.5l121 17 q4 0 15.5 3t15.5 9q51 2 81.5 3t57.5 1q37 0 73 -1t70 -3q47 -10 59.5 -12t18.5 -2q29 2 39 2h43q12 -8 28.5 -20.5t29.5 -12.5q4 0 9 3t7 3h70q16 2 29.5 10.5t26.5 16.5t26.5 15t29.5 7q20 0 34.5 -12t14.5 -37v-196q2 -4 4 -18.5t2 -18.5q10 -57 24.5 -116.5t14.5 -117.5 q-2 -14 -17 -30.5t-22 -18.5q0 -2 -8 -2q-47 0 -69.5 38t-26.5 71v38q-2 16 -6 26.5t-10 19t-13.5 16.5t-17.5 20q-12 14 -15.5 29.5t-13.5 32.5q-2 4 -10 9t-10 5l-76 55q-2 2 -17.5 18.5t-17.5 20.5l-14 7q-2 -2 -17 -3q-8 0 -8 3q-25 4 -48 15t-42 21l-143 7 q-12 14 -37 14q-41 0 -68.5 -7t-52.5 -20q0 -2 -2 -4t-4 -2q-16 -12 -36.5 -20.5t-40 -14.5t-39 -13t-36.5 -22l-45 -38q-2 -2 -12 -10.5t-12 -12.5q-6 -12 -20.5 -23.5t-18.5 -13.5q-10 -14 -14.5 -28.5t-8.5 -16.5l-26 -39l-33 -76l-16 -69q-2 -4 -15.5 -19.5t-17.5 -17.5 q0 -2 -3 -28.5t-3 -39.5v-32l6 -121l14 -58l-14 -65q0 -57 15.5 -113.5t33.5 -109.5q4 -4 20 -29l13 -33q6 -20 26.5 -35.5t30.5 -29.5q6 -23 9 -31t5 -11t5.5 -4t11.5 -10q18 -8 24 -29.5t23 -33.5q23 -4 37 -4q16 0 30 -15q55 -47 102.5 -70.5t119.5 -35.5l61 -18 q31 0 50.5 9t37.5 9t33.5 -12.5t34.5 -12.5q16 0 25.5 10.5t25.5 14.5q2 0 14.5 2t16.5 4q4 0 15 6t15 10q41 6 52.5 10.5t13.5 4.5q2 2 15.5 15t15.5 18h2q10 0 38.5 19t45.5 30q6 4 16 20q18 25 35.5 37t38.5 37q4 4 13 14.5t11 16.5q2 2 6.5 14t8.5 14q29 23 59 23 q16 0 25.5 -23.5t9.5 -40.5q0 -25 -10.5 -42t-23.5 -33.5t-26.5 -34t-17.5 -39.5q-4 -4 -14.5 -12.5t-21.5 -19.5t-20 -20.5t-12 -15.5q-27 -35 -48 -48t-40 -27q-8 -10 -12 -22.5t-18 -16.5q-16 -10 -38 -18.5t-44 -12.5q-37 -25 -66.5 -33t-62.5 -18l-47 -27 q-63 -4 -87 -10t-28 -6q-39 2 -52.5 7t-17.5 5l-73 -25q-25 4 -56.5 6.5t-44.5 12.5q-33 8 -66.5 11t-66.5 20l-88 34q-2 2 -14.5 5.5t-16.5 3.5q-35 45 -39 45h-28q-10 4 -22.5 21.5t-24.5 39.5q0 14 -16.5 17.5t-26.5 3.5q-14 8 -15 24q0 18 -12 31q-2 4 -11 16t-16 17 q-16 10 -21 11t-18 19l-28 45l-27 29q0 41 -5 57.5t-9 18.5q0 4 -3 20.5t-5 18.5q-12 4 -19.5 8t-11.5 8l-6 4z" />
<glyph unicode="D" horiz-adv-x="1900" d="M96 72q0 27 36 34t78 17t78 34.5t36 86.5l-9 39q0 8 5.5 13t10.5 10t10 11.5t5 16.5l-10 82l6 47q2 6 2 24q0 39 -11 66t-11 55q0 16 2 21q14 45 22 93t8 91q0 18 -8 27l-10 215q-4 20 -12.5 43.5t-8.5 48.5q0 2 1 6t8 21q0 57 -5.5 111t-9.5 114l2 37q0 4 -19.5 20.5 t-19.5 24.5q4 16 4 20q0 8 -4 25q-2 10 -31.5 21.5t-65.5 21.5t-64.5 20t-28.5 19q0 35 32.5 46t65.5 11q29 -10 56.5 -12t56.5 -2q72 0 131 6q47 4 97 10t93 14q25 8 37.5 12.5t16.5 4.5q23 0 34 -4h121q6 -2 15 -2h16q20 0 31 2q70 0 134 -17.5t130 -38.5q2 0 17.5 -3 t33 -6t32.5 -6t19 -3q4 -2 23.5 -16.5t23.5 -14.5l56 -8q2 0 14 -11t16 -14q33 -25 71 -38t77 -37q39 -45 85 -90t87 -93q2 -2 7 -17t18 -64q0 -14 4 -19q0 -4 6 -11t14 -15.5t14.5 -15.5t10.5 -9q0 -47 15 -77t15 -62l-4 -68l15 -92q0 -72 -19.5 -133.5t-36.5 -132.5v-45 q0 -2 -7 -12.5t-7 -14.5q-23 -53 -53.5 -101.5t-50.5 -105.5l-101 -88l-67 -39q-8 0 -9 -6q-27 -35 -64.5 -63.5t-84.5 -28.5l-62 6q-10 0 -25 -8t-28 -13q-4 0 -14 -2t-21.5 -3t-21.5 -3t-12 -2q-4 0 -19.5 -3t-36 -8t-40 -9t-31.5 -6q-12 -12 -37 -13q-10 0 -60 13 q-2 0 -21.5 -6.5t-29.5 -6.5q-8 2 -21.5 7.5t-17.5 5.5q-53 -8 -103 -10.5t-100 -2.5q-53 0 -101 2t-99 11q-31 4 -52.5 6t-52.5 2l-135 -27q-29 0 -55.5 14.5t-26.5 49.5zM575 379q0 -55 36 -106.5t88.5 -89.5t112.5 -60.5t110 -22.5q63 0 114 14.5t105 45.5q31 18 52 25.5 t52 29.5q43 31 84 66.5t76 80.5l6 31q10 41 27.5 64.5t29.5 62.5q0 2 3.5 23.5t5.5 23.5q16 43 38.5 87t22.5 96q-6 16 -7 22t-1 12t1 14.5t1 10.5q-2 8 -6 34.5t-7 55.5t-5.5 55.5t-2.5 36.5q-10 14 -13 33.5t-3 36.5q0 16 1 26.5t1 20.5q-18 14 -27.5 34.5t-13.5 43 t-10 46t-19 42.5q-2 4 -16 19.5t-16 17.5l-21 26l-65 68q-29 27 -51.5 55.5t-53.5 50.5q-23 14 -43 21.5t-41.5 13.5t-44 16.5t-47.5 32.5q-14 12 -46 19.5t-66.5 11.5t-67.5 5t-49 1q-53 0 -117 -7t-115 -30q-10 -4 -16 -22.5t-10 -42t-6.5 -49t-2.5 -45.5v-35 q0 -43 11.5 -81t11.5 -85q0 -6 -3 -16.5t-5 -12.5q-6 -49 -6 -98q0 -43 6 -80q8 -25 10 -40t2 -32q0 -16 -1 -28.5t-3 -32.5l2 -29l-2 -20q-6 -10 -7 -18.5t-1 -20.5v-19q0 -53 4 -110t10 -111q4 -33 14.5 -64.5t10.5 -62.5z" />
<glyph unicode="E" horiz-adv-x="1589" d="M16 70q0 23 17.5 37t41 23t49.5 12t42 3h96q10 2 26.5 12.5t33 26t28.5 34t15 34.5q2 12 3 25.5t1 27.5q0 12 -1 23.5t-3 23.5l16 27q-16 59 -22.5 119.5t-6.5 119.5q0 25 7.5 66t13.5 66l4 8q4 8 4 12q4 6 8 14q8 16 8 23q0 10 -9 17t-15 7q6 76 6 156q0 78 -6 158 q-6 16 -7 24.5t-1 20.5l8 70l-8 126q0 14 -12.5 32t-29 34t-34 27.5t-27.5 13.5h-86l-8 4l-8 4t-6 2q-16 4 -37 7t-38.5 10.5t-29.5 21.5t-12 39q0 43 22.5 50t63.5 7q33 0 61.5 -2t51.5 -18q16 4 22 4h23q57 0 117.5 -9t111.5 -14l68 -12q31 0 64.5 17.5t66.5 17.5 q12 0 20 -6t27 -6q4 0 10 6t18 6t19.5 -1t11.5 -11h47q25 0 51.5 9t55.5 9q16 0 25.5 -2t27.5 -16l213 -11q14 -2 29 -4l24 -4t23 -4q12 0 29.5 -6t17.5 -25q2 -10 6 -34.5t7 -51t5 -51t2 -33.5q12 -80 13 -163h-19q-25 0 -43 41q-10 14 -14 19t-8 11q-16 23 -33 48.5 t-32 50t-25.5 44t-14.5 27.5q-29 12 -58.5 14.5t-45.5 26.5q-10 18 -37 19q-10 0 -12 -2q-16 -4 -33 -4q-20 0 -40 2t-34 2q-8 0 -10 2t-8 2q-4 0 -9 4q-53 6 -104 6t-102 -6q-16 -4 -40 -26.5t-28 -41.5q-10 -41 -12 -91t-2 -103v-123q-10 -12 -13.5 -26.5t-3.5 -33.5v-41 q0 -57 11.5 -109t58.5 -97l190 -7q25 0 43 9q6 2 14.5 4t16.5 2l47 -2q18 0 37 12q18 4 46 23.5t40 33.5q8 14 16.5 46t19.5 65t24.5 57.5t31.5 24.5q16 0 29 -23v-108q0 -16 -3 -27.5t-11 -34.5l-15 -18l6 -39q0 -4 2.5 -27.5t5.5 -54.5t5 -61.5t2 -50.5l-6 -44 q0 -20 7 -34.5t7 -26.5q0 -31 -11.5 -53.5t-41.5 -22.5q-31 0 -37 18.5t-6 39.5q0 18 -2 28l-33 58v37q-2 16 -27.5 30.5t-64.5 25.5t-86 21.5t-92.5 16.5t-81 10t-52.5 4q-23 0 -38 -13.5t-26 -34t-17.5 -42t-8.5 -37.5v-94l17 -182v-103q2 -29 21.5 -55.5t47 -49t58 -36.5 t55.5 -17l84 -6l22 -8h76q57 0 99.5 1t105.5 7l94 37q18 12 46 38t54.5 53.5t49 54t33.5 45.5q6 4 12 19t13 31.5t17.5 30t24.5 13.5q12 0 18.5 -11.5t6.5 -21.5l-21 -74q-18 -61 -34.5 -124.5t-22.5 -129.5q-25 -39 -63 -46t-78 -7h-27q-12 0 -23 -2l-24 -6q-23 0 -32 7 t-28 7l-75 -8l-39 8l-183 -14q-86 0 -173 7t-179 7l-151 -14l-107 6q-43 0 -80 -15.5t-71 -15.5q-18 0 -43 6.5t-45.5 17.5t-35 28.5t-14.5 42.5z" />
<glyph unicode="F" horiz-adv-x="1462" d="M1290 1430l-57 61q-59 53 -105.5 69.5t-107.5 16.5q-10 0 -12 -2h-78q-14 0 -17 -2h-90q-20 -6 -41.5 -7t-42.5 -1q-45 0 -67.5 -1t-36.5 -10q-12 -4 -15.5 -12t-3.5 -14q0 -25 -6 -36t-26 -24q-4 -2 -6.5 -11t-3.5 -21.5t-2 -24.5t-1 -18q0 -29 8.5 -53.5t8.5 -55.5 l-10 -74q0 -29 12 -55.5t12 -58.5l-18 -176q0 -10 9 -23.5l15 -22.5q37 -4 75 -13t75 -9q8 0 14 2t12 14q14 2 33 3t41 1h68t72.5 3.5t65.5 10.5t46 19q25 16 33 51t14 70t18.5 61.5t47.5 26.5q8 0 14 -2t12 -16v-49q0 -53 -12 -109q-6 -41 -11 -75t-5 -68q0 -31 8 -58.5 t19.5 -54.5t19.5 -53.5t8 -55.5q0 -35 -6 -38q-4 -10 -7 -14.5t-14 -4.5q-18 0 -27.5 13.5t-21.5 25.5l-16 37q-25 57 -52.5 103t-87.5 81h-53q-41 0 -85 2t-77 8l-71 13q-31 0 -67 -10.5t-68 -12.5q-10 -12 -24.5 -31.5t-14.5 -42.5q18 -88 31.5 -172t13.5 -170 q0 -41 -2 -54t-4 -21q18 -59 66 -91t95 -57q2 0 8.5 -7t6.5 -9q4 -2 21.5 -4t21.5 -2q20 0 30 2t17 2h14h17q10 0 18 -2q10 -2 31 -2q12 -10 30.5 -25.5t18.5 -40.5t-21.5 -52.5t-46.5 -27.5h-2q-12 -2 -28.5 -3t-28.5 -1q-16 0 -31.5 1t-38.5 3l-22 6q-41 23 -96.5 34 t-102.5 11q-25 0 -42 -2t-48 -10q-29 -4 -56.5 -6t-56.5 -2q-31 0 -57.5 2t-56.5 6q-14 -4 -26.5 -15t-33.5 -16q-8 2 -14 4.5t-14 2.5q-6 -2 -19 -2h-45q-27 10 -44 18t-26 37q0 37 39 63q29 2 74 15.5t88 35t75 51t32 64.5q0 63 -3.5 108.5t-7.5 88.5t-7 90t-3 113 q0 41 12.5 78.5t12.5 78.5q0 6 -1 21.5t-1 17.5l-15 51v93q0 41 -14 80.5t-14 76.5q0 4 2 16.5t4 16.5q10 51 10 96q0 23 -2 46.5t-8 47.5q0 20 -10.5 42t-25.5 40.5t-34.5 33t-36.5 22.5q-20 8 -57 10t-74 9t-63.5 22.5t-26.5 52.5v18q18 10 46 21.5t48 11.5h29 q16 0 32.5 -3t26.5 -17q20 -4 40 -6.5t40 -2.5q18 0 39 2.5t43 6.5q6 10 9 11t12 1q25 0 48 -9.5t54 -9.5h27q12 0 26.5 1.5t30.5 5.5q43 -6 94 -7q47 0 97 7q43 16 92 16t102 4q55 6 100 6q35 0 76 -6q10 -4 27.5 -18.5t25.5 -14.5q10 0 18.5 4.5t20.5 8.5q33 8 80 8 q39 0 74 -8q2 0 11 -7.5t19.5 -16.5t18.5 -17l8 -9v-169q25 -55 25 -117q0 -29 -6 -57.5t-39 -28.5q-14 16 -37 43.5t-33 46.5q0 2 -4 13t-10 23.5t-12.5 24t-8.5 15.5q-2 2 -4 18.5t-2 18.5z" />
<glyph unicode="G" horiz-adv-x="1873" d="M129 602q0 10 4 16.5t4 22.5q0 10 -6 15.5t-18 15.5q-2 10 -3 21.5t-1 21.5v88q0 12 1 22.5t3 22.5q8 10 9 15t1 11l-17 56l17 69q0 14 -5 26.5t-5 25.5q0 18 17 30.5t22 30.5l10 37q16 63 54 111.5t91 95.5q2 37 42 75.5t92.5 73.5t106.5 62.5t87 42.5q29 10 56.5 16 t58.5 19q10 2 40.5 6t66.5 8t67.5 8t44.5 6q16 -2 29.5 -3t27.5 -1h115h30q16 0 31 -2q14 -8 41 -18.5t56.5 -18.5t57 -14t46.5 -6q25 0 39 11t25.5 25.5t23.5 25.5t33 11q31 0 43 -27.5t12 -45.5l6 -125q10 -20 10 -31q0 -20 4 -29q0 -8 3.5 -24.5t6.5 -31.5t6 -27.5 t3 -14.5q2 -18 7 -31.5t10 -26t9.5 -25.5t4.5 -32q0 -8 -16.5 -19t-22.5 -11q-29 0 -54.5 18.5t-47 45t-39 57t-27.5 53.5l-8 14l-7 31l-38 37q-8 6 -23.5 28.5t-26.5 34.5q-12 18 -33.5 28.5t-46 16.5t-49 10.5t-45.5 14.5q-16 8 -28.5 15t-24.5 12.5t-26.5 8.5t-34.5 3 q-29 0 -53.5 -14.5t-53.5 -18.5l-84 -6q-53 -10 -102 -37t-92 -63.5t-82 -79.5t-74 -84q-10 -14 -13 -35t-8 -41q-10 -27 -26.5 -53.5t-32.5 -54t-28.5 -55.5t-12.5 -56q2 -12 5 -57.5t3 -92.5l-2 -41l19 -28v-66q4 -63 14 -122.5t41 -117.5q12 -23 28.5 -41t34 -35.5 t34 -36t30.5 -42.5q4 -10 18.5 -12.5t26.5 -12.5q57 -84 134 -127t169 -67q25 -4 40 -12.5t36 -8.5q6 0 22 4q8 2 15 4q6 0 22.5 1t35 3t35.5 4.5t26 4.5q2 0 32.5 19.5t66.5 44t67.5 47t35.5 26.5v37l-6 69q0 25 3 46.5t3 37.5v25l-12 22v60q-2 20 -12.5 34.5t-22.5 25.5 t-22.5 23.5t-12.5 28.5v37l-6 33q2 10 14.5 16.5t30 9.5t38 4t36.5 1h39l86 -15q29 0 53.5 4.5t42.5 8.5l6 2h215q8 0 32 -9.5t24 -27.5q0 -25 -23.5 -39t-53.5 -22.5t-58.5 -14.5t-40.5 -14l-70 -86q4 -10 10 -26.5t6 -33.5l-16 -131q0 -18 8 -28.5t8 -20.5q0 -27 -4 -58.5 t-14 -59t-29.5 -49t-50.5 -27.5l-63 -7q-16 -2 -39 -13t-45.5 -26.5t-44 -29.5t-35.5 -23q-14 -8 -29.5 -9t-26.5 -1h-43q-25 0 -44 -3t-44 -13h-196q-55 12 -111 12q-27 0 -53.5 1t-54.5 3q-25 0 -35 17.5t-29 21.5q-4 4 -17.5 9t-28.5 10.5t-28.5 8.5t-15.5 3l-76 39 q-8 0 -23.5 5t-25.5 5q-16 4 -45 28.5t-58.5 55.5t-55 61.5t-36.5 44.5q0 4 -10 18.5t-16 18.5l-12 31q-2 2 -10.5 9t-16.5 13.5t-15.5 12.5t-7.5 10l-12 76q-6 25 -26.5 47t-20.5 53z" />
<glyph unicode="H" horiz-adv-x="2019" d="M96 8h-14q-23 6 -23 23q0 23 4.5 36t28.5 23q20 8 46 14.5t51.5 12.5t49 14t40.5 21q25 18 36 54t21 60l12 283l-12 69q0 4 3 16.5t5 20.5q-4 47 -6 94.5t-2 96.5q0 43 2 87t6 89l-2 25q0 6 -4 32.5t-8 60.5t-8.5 67.5t-4.5 54.5l-6 36l6 66q0 25 -1 51.5t-5 44.5 q-10 37 -46 52.5t-74.5 22.5t-69.5 14t-31 30q0 14 5 15t16 10l10 4q53 6 107.5 9t107.5 3q37 0 67.5 -7t75.5 -7l244 14h94q20 -8 21 -18q0 -20 -23.5 -29.5t-40.5 -9.5h-53q-12 0 -23.5 -1t-21.5 -10q-37 -20 -67.5 -43.5t-67.5 -48.5q-10 0 -11 -6q14 -25 19.5 -49.5 t5.5 -48.5q0 -18 -6 -37t-14 -37l-5 -18q0 -45 10.5 -74t20.5 -74v-119l4 -39q0 -2 -1 -13t-3 -19q0 -12 13.5 -29.5t25.5 -26.5h31q25 0 43 3.5t41 9.5h57l217 -13l84 7q25 0 39 -10.5t31 -10.5q25 0 46 7t42 7l117 -14l51 4q6 2 20.5 10.5t18.5 12.5q2 0 4 2l4 4 q8 37 14 90t6 94q0 18 -7 37.5t-7 38.5q0 51 22.5 96t22.5 90q0 61 -30.5 99.5t-77.5 70.5q-12 12 -50.5 14.5t-79 6.5t-72.5 12t-32 33q0 18 8 27.5t19.5 15.5t25 11t23.5 13h67l463 -32h23q14 0 14 2l33 12h108q12 0 21.5 -10.5t9.5 -24.5q0 -18 -16.5 -28.5t-38 -15.5 t-44 -7t-34.5 -4q-33 -6 -57.5 -29.5t-46.5 -56.5q-4 -57 -13.5 -110.5t-21.5 -110.5q-4 -4 -9.5 -18.5t-5.5 -18.5l7 -94l-7 -101q0 -4 3.5 -17t3.5 -16l-7 -34q0 -8 3.5 -14.5t3.5 -20.5l-17 -115l25 -82l-29 -102l14 -51q0 -16 -7 -33t-7 -39l21 -78q0 -18 -10.5 -35.5 t-10.5 -42.5q0 -143 86 -188q25 -14 61.5 -16.5t65.5 -2.5q10 0 18.5 -1t18.5 -3q25 -4 30 -22.5t5 -34.5q-2 -12 -13.5 -21.5t-19.5 -13.5q-53 -12 -110.5 -16t-122.5 -4h-43h-21q-10 0 -18 2l-148 18l-133 -12l-43 -6h-84q-18 0 -32.5 13t-14.5 22q0 39 27 55q12 6 26.5 8 t28.5 2h31q12 2 16 9t12 16q18 12 42 22t45.5 22.5t36 30t14.5 43.5l-9 74q0 45 6.5 88t10.5 84q2 12 8 23.5t6 21.5q0 8 -1 15.5t-5 15.5v166q0 18 -16.5 32.5t-39 26t-47 16.5t-38.5 5q-18 0 -37 -13.5t-41 -13.5l-90 17q-12 0 -23.5 -6.5t-24 -13.5t-26.5 -13t-35 -6 q-23 6 -40 10t-33.5 7t-34 5t-41.5 2h-39q-12 0 -21.5 -1t-11.5 -1q-16 -4 -32.5 -8t-39.5 -4q-14 4 -42.5 8t-30.5 4l-33 27q-10 0 -23.5 -11.5t-17.5 -15.5q-31 -20 -39 -36.5t-8 -55.5q0 -31 3 -66.5t11 -66.5q2 -6 6 -24.5t4 -24.5q2 0 2 -11q0 -12 -3 -23t-3 -28l6 -67 q0 -4 -2 -6l-10 -29q0 -4 2 -10q2 -4 2 -9q0 -4 2 -6q4 -10 5 -24.5t1 -24.5v-29q0 -27 4 -50t29 -42q10 -4 42 -14t42 -12h25l114 6q63 0 70 -62v-2q0 -23 -21.5 -45t-78.5 -22q-25 2 -35 8t-25 10q-25 8 -65 8h-25q-6 0 -22 -4q-12 -4 -21 -4l-115 6h-90q-12 0 -41.5 -2 t-36.5 -4l-24 -18q-53 0 -103 6q-49 12 -94 12z" />
<glyph unicode="I" horiz-adv-x="1044" d="M512 31q-35 0 -68.5 -13.5t-74.5 -13.5l-54 6q-18 0 -32.5 -3t-30.5 -3h-86q-10 0 -18.5 1t-16.5 3q-45 10 -45 58q0 14 3 23t24 20q20 8 50 12t62.5 7t61 7t45.5 15q6 4 16 19t19.5 32.5t15.5 35t6 23.5l-14 96l26 58l-26 49l26 272l-8 123q-6 6 -6 27q0 39 10.5 53 t10.5 37q0 31 -10.5 58.5t-10.5 60.5l14 84v28t-3 33.5t-8 34t-15 26.5q0 4 3 14.5t3 28.5q0 16 -3 28.5t-3 17.5q0 6 -2 14t-4 8l-76 70q-14 0 -48 7t-70 18.5t-62.5 27.5t-26.5 35q0 33 21.5 44t46.5 11q14 0 34 -4q49 -4 98.5 -9t98.5 -5q39 0 76 5t76 9q16 6 45.5 9 t62.5 5t63.5 3t49.5 3q37 6 74.5 15.5t76.5 9.5q25 0 47.5 -11.5t22.5 -45.5q0 -6 -8 -12.5t-17.5 -11.5t-17.5 -10t-10 -9q-4 -4 -13.5 -12.5t-20.5 -18.5t-22.5 -18.5t-17.5 -10.5q-18 0 -51 -6t-67 -18.5t-58.5 -29.5t-24.5 -40v-174q0 -2 5.5 -25.5t7.5 -33.5 q12 -6 12 -23q-37 -68 -37 -141l12 -88l-6 -72q0 -35 13.5 -67.5t13.5 -69.5q0 -35 -13.5 -63.5t-13.5 -61.5q0 -16 2 -28.5t10 -31.5v-145q-4 -12 -5 -19.5t-1 -17.5q0 -45 9.5 -79.5t27.5 -75.5q0 -4 12.5 -12.5t26.5 -17.5t27.5 -16.5t15.5 -7.5q25 0 40 5.5t32 5.5 q14 0 39.5 -4.5t48.5 -14.5q10 -10 20.5 -21.5t10.5 -23.5q0 -18 -5.5 -35.5t-15.5 -23.5q-14 -14 -37 -15q-10 0 -23.5 -1t-23.5 -3l-47 -10q-49 0 -111.5 3t-107.5 7q-6 2 -34 10.5t-38 8.5h-2z" />
<glyph unicode="J" horiz-adv-x="919" d="M57 -682h-20q-16 -2 -31.5 -3t-30.5 -1q-18 4 -53 3t-72 15q-29 16 -50 46t-56 63q0 16 5 46t15.5 58.5t26.5 51t39 26.5q25 6 51 6q23 0 41 -6q10 0 22.5 -10t22.5 -23.5t16.5 -30t6.5 -28.5q0 -2 -4 -14q-2 -6 -4 -15q2 -4 4 -16t6 -16q10 -10 13 -21.5t3 -19.5 q-2 -29 -4 -35t-6 -8l86 -4q37 0 66 12q49 29 96 76t67 100v82q0 2 9.5 15.5t11.5 15.5l-15 61l21 94l-8 49l14 140q0 12 -1 21t-5 28q-2 12 -3 25.5t-1 25.5v109q0 14 1 26t3 29q6 14 9 40.5t3 41.5q0 20 -10 34.5t-10 32.5q0 16 7 27.5t7 30.5l-14 80l14 79q-8 33 -8 41 l18 76l-16 236q0 6 1 17t2 23.5t2 22.5t1 12l10 29q-10 29 -13 40t-3 13v93l-21 45q0 25 10.5 40t10.5 35q0 14 -6 21.5t-14.5 14.5t-14.5 21.5t-6 45.5l2 28q-25 4 -38 23.5t-38 28.5q-12 4 -42.5 10t-61.5 15t-54.5 21.5t-23.5 28.5q0 6 5 18.5t13.5 24t17.5 19.5t15 8 l170 -14q2 0 8.5 3t12.5 5l118 -27q12 0 19.5 4t19.5 4l107 -8l254 17h78q10 -12 20 -21.5t10 -25.5q0 -8 -24.5 -24.5t-32.5 -23.5h-127q-18 -23 -30.5 -24.5t-37.5 -16.5q-23 -16 -36 -36.5t-19 -45t-7 -50t-1 -50.5v-33l25 -26q0 -27 -15.5 -47.5t-15.5 -53.5l8 -65 l-25 -162q0 -25 7.5 -59.5t9.5 -50.5q6 -25 6 -41q0 -10 -2 -16.5t-4 -10.5l-17 -90q12 -16 15.5 -24.5t3.5 -24.5q0 -4 -4 -13.5t-23 -44.5q0 -2 9.5 -15t9.5 -17q2 -4 4 -26t2 -28q0 -4 -3 -23.5t-7 -41.5q-4 -23 -5.5 -43.5t-1.5 -24.5q0 -18 5.5 -24.5t5.5 -14.5 q0 -16 -9.5 -25.5t-9.5 -27.5q0 -20 9.5 -37.5t9.5 -42.5l-19 -63l8 -45q0 -20 -6 -36t-8 -36q-2 -10 -6 -34.5t-7 -50.5t-7 -49.5t-7 -33.5q-8 -10 -10 -17.5t-2 -19.5v-35t-2 -10l-26 -82q-4 -39 -6.5 -77t-20.5 -68q-14 -27 -33.5 -48.5t-36.5 -52.5l-88 -92 q-6 -6 -26.5 -13t-43 -15.5t-41 -14.5t-20.5 -10l-98 -6q-15 0 -21 6z" />
<glyph unicode="K" horiz-adv-x="1677" d="M1577 -12q-4 0 -30.5 -3t-41.5 -3q-10 0 -32.5 6t-48 13t-49 16.5t-34.5 15.5l-43 49q-2 4 -4 10t-14 12q-12 14 -28.5 26.5t-20.5 21.5q-12 12 -18.5 22t-10.5 19.5t-8 19.5t-14 20l-70 70l-27 45q-12 35 -54 61.5t-73 51.5q-25 16 -38 40.5t-23 47.5q-10 14 -26.5 25.5 t-33 23.5t-28.5 26.5t-16 37.5l-111 106q-4 6 -16.5 10t-27.5 7t-30.5 4.5t-23.5 1.5q-23 0 -38.5 -23t-15.5 -41t7.5 -37.5t9.5 -36.5q2 -39 5 -81t3 -83l-14 -45l6 -34l8 -68l14 -39l-14 -65q0 -31 9 -49.5t24.5 -27.5t35 -13.5t42.5 -6.5h24q6 0 18.5 -5t24.5 -11 t21.5 -13.5t9.5 -9.5q18 -27 29.5 -27.5t11.5 -15.5q0 -72 -74 -71q-53 0 -108.5 22.5t-112.5 22.5q-41 0 -80 -9.5t-84 -9.5l-61 6l-90 -6q-6 0 -24.5 6.5t-18.5 12.5q6 39 29.5 51t53.5 14q35 29 63 54.5t28 70.5q0 29 -1 39t-4 14l7 78l18 37q-4 18 -8 38t-4 36v2 q0 10 3 25.5t5 17.5v2q0 2 2 4q0 2 2 6l-4 27v119q-10 25 -17.5 48t-7.5 48q0 10 2 10l7 25q-6 51 -7.5 64.5t-1.5 23.5l17 57q0 4 -3 8t-5 6l-2 48l10 86q0 16 -5 30.5t-5 28.5l10 31q-10 53 -12.5 88t-2.5 65q0 12 -7 35t-19 45.5t-27.5 38.5t-30.5 16h-26t-21 3 q-14 6 -33.5 12t-36 14t-28.5 20.5t-12 32.5q0 14 2 22.5t16 12.5h27l108 -6l101 4q10 0 23.5 -1t23.5 -9q12 -4 26.5 -5t26.5 -1q27 0 51 6l56 18q8 2 24 2h29q16 0 30.5 -1t30.5 -7l47 -12q4 -2 6.5 -16.5t2.5 -18.5q0 -16 -16.5 -28.5t-37 -23.5t-42 -19.5t-29.5 -14.5 q-6 -10 -14.5 -31.5t-14.5 -48t-10 -50.5t-4 -36q0 -6 3 -11t3 -17l-25 -54q0 -18 9.5 -16t15.5 -12v-29q0 -16 -8.5 -34.5t-8.5 -35.5q0 -4 5.5 -15t5.5 -13v-93q-2 -2 -6.5 -6t-4.5 -8q0 -12 25 -12q23 0 29 18.5t24 30.5q39 27 85 45t81 53q25 25 36 56.5t23 60.5 q10 16 33 19.5t39 19.5q8 8 29.5 34.5t44 57.5t40 59.5t17.5 43.5l-6 10t-13 21.5t-13.5 20.5t-8.5 11l-20 -2q-31 0 -58.5 12.5t-27.5 42.5q0 23 21.5 45.5t43.5 22.5l25 -8l106 -9q10 6 49 10.5t85.5 7.5t89.5 4t59 1q8 0 27.5 -2t40 -8t37 -16.5t16.5 -26.5 q-2 -18 -13.5 -22.5t-29.5 -14.5t-40 -21.5t-42.5 -20.5t-37.5 -15.5t-26 -6.5q-16 -10 -21 -12t-7 -2l-35 -16q-14 0 -31.5 -14.5t-35 -34t-31 -40t-21.5 -30.5l-18 -19q-51 -41 -87 -86t-79 -96l-17 -14l-34 -6q-31 -18 -47.5 -46t-42.5 -49q-6 0 -7 -6q0 -4 2 -13t5 -11 v-51q14 0 47.5 -25t69.5 -57.5t66 -64.5t40 -44q2 -2 10 -14.5t8 -16.5q10 -20 26.5 -33.5t33 -27.5t34 -29.5t29.5 -40.5q2 -6 8 -6q10 0 30.5 -5t37.5 -34q10 -25 25.5 -53.5t48.5 -28.5q25 -29 64.5 -61.5t66.5 -63.5q2 -2 8 -9t6 -9q16 -25 38.5 -42t46.5 -33.5t44 -35 t33 -45.5q6 -14 28.5 -18t46 -9t42 -18.5t18.5 -46.5q0 -45 -29.5 -62.5t-68.5 -17.5q-27 0 -39.5 9.5t-32.5 9.5z" />
<glyph unicode="L" horiz-adv-x="1675" d="M0 59q0 18 9 40t28 22l98 8q59 12 112.5 22.5t94.5 59.5q10 16 10 33q0 18 10 35q0 29 -1 53t-5 55q-2 14 -2 23v16q0 18 1 26.5t7 26.5q0 35 -1 57.5t-1 45.5q0 41 13 82l-11 176q-2 4 -4 18t-2 21q6 14 11.5 30.5t5.5 36.5q-4 35 -4 66q0 33 -7 67q-4 10 -9 16.5 t-5 16.5q0 12 5 17.5t9 11.5v57q0 51 -4 121t-30 131q-12 10 -37 28.5t-27 20.5q-16 12 -51 21.5t-71 20.5t-62.5 27.5t-26.5 45.5q0 6 8.5 11t19.5 8t22.5 4t17.5 1q14 -2 20 -2h13q10 0 12 2q41 2 83 4.5t85 2.5q41 0 78 -2.5t82 -4.5q8 -10 22 -10q53 4 92 10.5t71 12.5 t61.5 13t64.5 13h29q23 0 54.5 -1t61 -7t50 -17.5t20.5 -31.5q0 -10 -1 -25.5t-7 -25.5t-35 -15.5t-63.5 -9.5t-67.5 -5t-47 -1l-13 -4q-6 -2 -20 -2l-21 -6q-43 -4 -65.5 -8.5t-33.5 -10.5t-15 -18t-6 -33q-2 -20 -3 -40.5t-6 -47.5l-16 -37q0 -31 19.5 -69.5t19.5 -73.5 l-8 -92l16 -76q0 -27 -5 -47.5t-11 -44.5q-6 -35 -7 -76t-1 -74l-2 -37q0 -31 10 -39v-239q-6 -10 -7 -16.5t-1 -10.5q0 -18 8 -32.5t8 -28.5q0 -25 -5 -53.5t-11 -49.5q0 -6 -5 -18q-2 -6 -2 -12q4 -18 22.5 -38t43.5 -35t51.5 -24.5t44.5 -9.5l51 10q4 0 12.5 -5t26.5 -5 q16 0 28.5 8.5t31.5 8.5l37 -17l75 -6l33 -8h21q66 10 130 19.5t115 49.5l4 5q4 4 5 10q12 39 35.5 54t48.5 40q16 14 29.5 37.5t29.5 44.5q25 25 62.5 50.5t66.5 25.5q12 0 33.5 -5.5t21.5 -15.5q0 -27 -5 -44t-13 -31.5t-19.5 -26.5t-23.5 -29q-10 -14 -10 -35q0 -8 2 -19 t2 -15q-6 -31 -29 -52.5t-35 -38.5l-6 -36q-12 -59 -52 -89t-100 -30l-94 18l-37 -18h-129q-25 14 -43 16t-43 2q-29 0 -51 -9t-45 -9h-16l-183 24l-22 9h-107q-12 12 -21 14t-26 2q-12 0 -19 -1t-18 -9h-190q-18 -14 -55 -23.5t-80 -13.5t-82 -6t-59 -2q-31 0 -48.5 25 t-17.5 50z" />
<glyph unicode="M" horiz-adv-x="2242" d="M72 37q0 18 4 24.5t14 14.5q18 12 47 26.5t58.5 28.5t56.5 27.5t45 23.5q27 47 37 99.5t10 105.5v35v18t2 19q2 4 4 21.5t2 23.5l15 24l2 43q0 6 -2 13.5t-15 23.5l21 66q0 16 -6 26q-2 4 -4.5 10.5t-2.5 14.5v23l13 92l-13 80q0 29 12.5 55t12.5 53l-6 45q0 39 14.5 84 t14.5 90q-4 8 -14.5 19.5t-14.5 21.5q0 14 -3 38t-11.5 46.5t-23.5 37.5t-38 15l-98 -8h-25q-25 4 -47 7t-38.5 10.5t-27 21.5t-10.5 41q0 20 2 31.5t9.5 15.5t19.5 6t33 6l29 13h38q80 0 154 -10.5t152 -10.5q18 0 31.5 4t29.5 4q66 -25 97.5 -64.5t47.5 -105.5l2 -14 q4 -23 7.5 -38t10.5 -25.5t21.5 -20.5t40.5 -22l-2 -25q0 -37 14.5 -69.5t22.5 -73.5q0 -6 4 -31t4 -29q16 -35 49 -84t52 -86q31 -66 58.5 -132t55.5 -132l35 -57q6 -12 10.5 -26.5t9.5 -27t13 -20.5t25 -8q18 0 25 4t9 11t3 19.5t8 28.5q0 2 11 9.5t13 9.5q45 59 66.5 133 t46.5 145q0 2 5 13.5t12 26t13.5 28.5t8.5 20q18 45 29.5 83t29.5 79l8 23q25 45 51.5 94t57.5 80q0 18 -3 26.5t-3 14.5t2 18t5 25.5t6 25t3 15.5q2 4 5 18.5t3 20.5l25 26q0 8 3 29.5t3 26.5q16 33 62.5 48t74.5 15q25 0 47 -12q25 -8 52 -8l106 20q43 0 75 -1t79 -11 q35 -6 34 -39q0 -31 -21.5 -48.5t-53 -28.5t-68.5 -19.5t-68.5 -17.5t-53 -25.5t-21.5 -42.5q0 -25 8 -48.5t18.5 -47t18.5 -48t8 -49.5l-18 -111v-237q6 -10 6 -25l4 -127l26 -45v-75q0 -2 1 -11.5t2 -19.5t2.5 -19.5t1.5 -13.5q2 -18 5 -55t9 -77t13 -77t20 -55 q18 -33 58 -44t80 -19.5t69.5 -24t29.5 -58.5q0 -23 -12 -36t-29.5 -20t-37 -9t-35.5 -2h-62q-25 0 -52.5 1t-52 3t-44 6t-27.5 8q-4 2 -25 2h-22l-127 -20l-111 12q-4 0 -13 -5t-11 -7q-41 0 -81 15.5t-40 56.5q0 25 35 34q14 2 26.5 3t28.5 1q43 0 83 7.5t66 42.5 q0 4 3 10l4 12q0 2 2 6l4 8l8 29q8 27 10 53.5t2 55.5q0 63 -12 135l-2 10q-2 8 -2 19v24q0 37 -2 78t-15 55q2 6 3 17v18l-27 195l6 143q0 10 -1 27.5l-2 35t-2 29.5l-1 12q0 10 -1 31t-4 40.5t-11.5 34.5t-22.5 15q-12 0 -12 -6l-19 -82q-16 -8 -19 -24.5t-3 -34.5v-19 q0 -8 -2 -16q-18 -35 -43 -62.5t-43 -58.5q-6 -6 -11.5 -20.5t-9.5 -32t-8 -32.5t-6 -21q-16 -41 -36.5 -82t-43.5 -82l-8 -19q-2 -2 -3 -18t-3 -21q-8 -4 -24.5 -21t-22.5 -22l-17 -86q-8 -33 -28.5 -58.5t-30.5 -55.5q0 -2 -1 -12.5t-3 -21.5t-3 -21.5t-1 -14.5 t-4.5 -23.5t-10.5 -42t-11 -41t-7 -20.5l-29 -33q-2 -4 -2 -22q0 -20 -7 -45t-32 -25q-23 0 -45 30t-39 54q0 2 -5 8.5t-5 10.5q-23 39 -30 80.5t-19 87.5q-2 10 -14.5 33.5t-28 51t-30.5 52t-21 39.5q-27 53 -55.5 106t-55.5 107l-27 82q-35 78 -71.5 144.5t-75.5 137.5 q-2 4 -8 12.5t-8 10.5l-27 28q-8 14 -6 31t-23 17q-6 0 -12 -9l-14 -137v-57v-80q0 -37 2 -78q2 -39 3 -78t1 -80q2 -2 4 -10q2 -6 4 -15t6 -26l-10 -24q0 -20 -5 -35t-5 -45v-21l22 -43q2 -6 2 -24v-39q0 -31 2 -60.5t19 -48.5l92 -104q0 -35 24.5 -46.5t55 -18.5t55.5 -18 t25 -44q0 -6 -3.5 -22.5t-13.5 -16.5h-112l-31 12h-29q-53 0 -95 9.5t-99 9.5q-12 0 -24.5 -10.5t-25.5 -14.5q-31 -2 -62.5 -8t-63.5 -6q-10 0 -22.5 -3t-31.5 -3q-8 0 -17 1t-20 9q-30 10 -30 47z" />
<glyph unicode="N" horiz-adv-x="2029" d="M229 121l19 4q18 10 29.5 36.5t31.5 47.5q0 12 -4 18t-4 13l37 45l33 282q16 20 18 43t2 41l-6 140q0 18 3 29t7 30q4 10 6 26.5t5 28.5v111q0 6 4 14t6 10v144l4 69q2 2 4 13.5t2 13.5q-10 37 -14 75t-27 68q-2 0 -4 2t-2 5l-47 20l-62 61q-10 8 -26.5 12.5t-35 5.5 t-34.5 4t-27 11l-38 31q-8 8 -37 8l-29 -2q-33 12 -49 55q0 20 17.5 32.5t41 19t48 7.5t36.5 1q49 -16 95.5 -14.5t99.5 -6.5l10 -3t21.5 -6t21.5 -6t12 -3h17l86 26q18 0 45.5 -18t42.5 -29l8 -10q12 -20 31.5 -49t41 -58.5t44 -55t41.5 -40.5l57 -32q4 -2 11 -11.5 t7 -11.5l11 -31q6 -12 11 -19t11 -11t13.5 -8.5t17.5 -12.5l38 -38t27.5 -30.5t21.5 -35t19 -49.5q2 0 17.5 -13.5t34 -30t33.5 -29.5l14 -13l12 -31q2 -6 12.5 -23.5t16.5 -21.5l26 -13q51 -45 103.5 -104t72.5 -117l119 -112q16 -51 59.5 -85t94.5 -34v47q0 10 1 23.5 t3 23.5q2 2 9 21.5t9 27.5q0 12 -6 17.5t-6 11.5l12 67q0 33 -5 73t-7 71q0 4 -2 24.5t-4 26.5v2q0 12 2 16t4 7l10 22l21 109q-8 14 -10.5 26.5t-2.5 22.5l7 112l-7 117q0 14 2.5 23.5t16.5 15.5v31q0 14 -7 32.5t-18.5 35t-27 29.5t-29.5 18q-4 0 -24.5 4t-26.5 6l-27 18 q-2 2 -16.5 4t-18.5 2q-47 18 -72.5 38t-52.5 59q-6 8 -13 9t-11 13q2 6 14 11.5t26.5 7.5t28 3t17.5 1q6 0 6 -2q4 0 17.5 -2t17.5 -5q74 -8 139.5 -16t136.5 -8l181 18q31 0 63.5 -8t32.5 -47q0 -33 -21.5 -49.5t-52.5 -24.5t-63.5 -14t-53.5 -18l-12 -39l-57 -54 q-2 -2 -4 -10t-2 -12q2 -12 13 -33.5t17 -36.5v-6q0 -8 -3 -24.5t-6 -34t-5 -32.5t-2 -17q-2 -2 -2 -15q0 -16 2 -20v-72q0 -25 -4 -49.5t-17 -40.5v-145q0 -31 -3 -72t-21 -66v-32q0 -47 -5 -93.5t-9 -93.5q-2 -25 -9.5 -46t-7.5 -46q0 -49 2 -115.5t15 -113.5 q14 -47 20 -80t6 -86v-60q-12 -20 -33 -20q-33 0 -71.5 33.5t-79.5 80t-79 92.5t-67 72q-2 4 -6 21.5t-10 21.5q-18 20 -39.5 48t-42.5 47q-51 37 -83 81t-71 91q-14 18 -35.5 27t-29.5 28q-41 57 -83 102t-95 80q-18 10 -25.5 27.5t-32.5 30.5q-2 2 -10 15t-17 27.5 t-17.5 28t-10.5 17.5l-14 12q-6 25 -15.5 42t-21.5 31.5t-27.5 29t-36.5 36.5l-10 17q-12 35 -44 52t-54 44q-8 8 -11 18t-7.5 17.5t-11.5 13.5t-23 8q-8 0 -22.5 -10t-14.5 -19l6 -34q0 -12 -6 -32t-6 -38l12 -37l-12 -33q0 -16 5 -40.5t15 -38.5q6 -18 8 -39t2 -43 q0 -27 -2 -49.5t-8 -45.5q8 -12 8 -18q0 -41 -11 -68.5t-11 -58.5v-39q0 -31 3 -68.5t11 -52.5q-12 -31 -16 -46t-4 -42q0 -72 28.5 -145.5t91.5 -118.5q18 -10 43 -12t41 -23q39 0 82 -7t62 -26q10 -23 16 -40t6 -48q-20 -27 -40.5 -41t-55.5 -14h-22l-48 25q-35 6 -87 9 t-99 3h-80q-14 0 -26.5 -1t-28.5 -7h-191q-4 12 -13 14t-19.5 3t-18.5 4t-8 14q0 27 12.5 44t32 27t43 16.5t45.5 10.5h8z" />
<glyph unicode="O" horiz-adv-x="2009" d="M113 594q0 16 8 30.5t8 32.5l-31 131q0 35 4 77t11 75q8 29 14 62.5t10 67.5t5 63.5t1 52.5q12 16 25.5 28.5t24 23.5t17.5 25.5t11 36.5l66 68l30 14q8 2 17.5 16.5t20 31t19.5 33t19 24.5q66 47 132.5 89t144.5 81l12 4q12 4 20 4q18 2 30.5 8t23 13.5t23 12.5t30.5 5 l57 -10l19 10l43 12q53 8 103 9t104 1q16 0 55 -7t80 -17t76.5 -20.5t48.5 -16.5q35 -25 62.5 -57.5t58.5 -57.5q39 -29 73.5 -42t69.5 -44q12 -4 30.5 -25.5t24.5 -27.5l8 -37q2 -14 12.5 -26.5t22.5 -24.5t23.5 -24.5t15.5 -24.5q8 -14 20.5 -37t23.5 -47.5t20.5 -48 t11.5 -41.5v-70q4 -20 8 -32.5t12 -24.5q4 -12 8.5 -24.5t4.5 -33.5q0 -4 -3.5 -21t-3.5 -24l13 -30l-6 -52q2 -8 2 -32q0 -39 -5.5 -68t-9.5 -37q-12 -37 -28.5 -69.5t-34 -64.5t-35.5 -64.5t-33 -71.5q-14 -14 -28.5 -16.5t-26.5 -20.5q-6 -10 -16.5 -35.5t-24.5 -40.5 l-25 -14q-10 0 -18 -8t-8 -17q-8 -10 -23.5 -28.5t-33 -38t-35 -35.5t-27.5 -25q-6 -4 -14 -8q-16 -8 -19 -8l-131 -45q-16 -18 -19 -22.5t-24 -8.5l-78 -6l-84 -37q-12 -2 -22 -4t-21 -2h-18q-27 0 -70 9.5t-73 15.5q-25 6 -50.5 7t-52.5 1q-45 0 -86 3t-82 19l-18 25 q-12 4 -29.5 6t-36 5t-35 9.5t-24.5 18.5q-18 20 -28.5 34.5t-22 27t-26.5 21.5t-44 21l-37 9q-18 8 -39.5 41.5t-43 73.5t-39 77t-23.5 53q-10 29 -26.5 41.5t-31 23.5t-24.5 29.5t-10 61.5zM362 858q0 -25 9.5 -44t20.5 -37.5t21.5 -38t12.5 -42.5q2 -4 2 -14l-2 -57 q0 -10 2 -23.5t12 -26.5q6 -12 14.5 -18t16.5 -10t14.5 -12.5t10.5 -22.5l2 -12q0 -8 -1 -15.5t-1 -21.5q0 -18 6 -33q4 -12 17 -16t22 -15q18 -47 35.5 -76.5t48.5 -56.5q41 -33 84 -63.5t90 -55t97 -39t108 -14.5q31 0 47 8.5t47 14.5q33 4 74.5 11t76.5 7 q25 18 55.5 34.5t60.5 35t55.5 41t41.5 53.5l62 125q16 12 24 30.5t12.5 39t10.5 40t18 35.5l25 164q0 18 -3 34.5t-3 41.5l14 39q0 18 -9 45t-21.5 54.5t-26 54t-21.5 45.5l-12 20l6 33q0 18 -6 31.5t-13.5 24.5t-14.5 22.5t-9 25.5l-10 58q-10 33 -44 77.5t-75 86.5 t-84 75t-72 41q-18 6 -49 7t-49 1l-31 39q-8 4 -28.5 10.5t-44 12.5t-46 10t-34.5 4q-23 0 -61 -5t-76.5 -14.5t-72.5 -23.5t-48 -33l-6 -18q-18 -14 -38 -20.5t-26 -36.5q-29 -6 -38 -12.5t-13 -13.5t-9 -16.5t-22 -21.5q-47 -31 -74.5 -79t-43 -105.5t-20.5 -116.5 t-5 -111l6 -84q0 -10 -9.5 -25.5t-9.5 -31.5z" />
<glyph unicode="P" horiz-adv-x="1374" d="M53 74q0 14 16.5 28.5t22.5 22.5h31q53 2 100 10t82 60l37 45q6 6 7 11t1 17l-8 156q0 37 12.5 71.5t12.5 67.5q0 37 -12.5 76t-12.5 80q0 18 9 28.5t9 30.5l-12 84l12 113v45l-18 33l-14 143l16 55q0 16 -7 54t-18.5 78t-25.5 74t-27 40q-20 6 -56 12.5t-71 16.5 t-60.5 29.5t-25.5 52.5q0 10 6 10q37 0 59.5 12t53.5 12l94 -12l191 19l39 -13l61 13q35 4 67.5 6t67.5 2q33 0 64.5 -2t62.5 -6q25 -12 50.5 -14.5t52.5 -2.5q29 0 55.5 -2t52.5 -8q20 -4 55 -19.5t71 -38t66.5 -48t43.5 -50.5q20 -53 35.5 -122.5t15.5 -126.5 q0 -14 -1 -38t-4 -48.5t-7.5 -46t-12.5 -31.5l-35 -45l-8 -45q-6 -14 -26.5 -39t-46 -50.5t-50 -46t-39.5 -26.5q-20 -10 -57 -29.5t-55 -23.5l-84 -7l-51 -16q-14 0 -35 4t-39 12.5t-31.5 18.5t-13.5 22q0 18 24 29l138 29q2 6 10 10l12 6q41 20 77 55t61.5 78t41 91 t15.5 98q-2 10 -6 17t-7 13q0 2 -1 4t-1 7q-4 33 -10 76.5t-18 76.5q-4 12 -24.5 32.5t-47.5 44.5t-55.5 47.5t-46.5 39.5l-105 25h-94q-10 -6 -29.5 -10.5t-38 -12.5t-33 -20.5t-14.5 -32.5v-137q8 -10 9.5 -16.5t1.5 -20.5l-11 -45q0 -2 5.5 -15.5t5.5 -17.5v-21l-21 -61 l27 -137q0 -10 -1 -17.5t-5 -19.5v-182q4 -10 5 -19.5t1 -19.5l-17 -70q0 -43 11.5 -86t15.5 -88q4 -66 2 -137.5t18 -134.5q2 -8 28 -26.5t57.5 -37t60.5 -32t37 -13.5h37q12 0 18 -1t14 -5q2 -2 18.5 -17.5t28.5 -21.5q2 -6 4.5 -9t2.5 -9v-5q-10 -25 -33 -37t-48.5 -18 t-53 -7t-50.5 -1l-90 16q-12 0 -24.5 -5t-26.5 -5l-98 27h-15q-10 0 -12 -2q-51 -6 -101.5 -18.5t-109.5 -12.5q-23 0 -58.5 1t-68.5 8t-56.5 22.5t-23.5 42.5z" />
<glyph unicode="Q" horiz-adv-x="2048" d="M98 891q0 35 15.5 63.5t19.5 61.5q0 2 1 13t3 25.5t4 26t2 15.5q2 4 9.5 17t15.5 28.5t15 28t10 16.5q0 4 4 17.5t4 17.5q37 80 97 144.5t130 117.5q6 4 29.5 17t27.5 18q8 4 20.5 12t16.5 10q2 2 16.5 17.5t18.5 17.5t27.5 6t29.5 4q2 2 21.5 12.5t23.5 10.5h3h8 q27 8 53.5 27.5t54.5 19.5h6q2 -2 10.5 -7.5t12.5 -5.5q4 2 17.5 10.5t17.5 12.5q74 12 151 12q76 0 156 -12q2 0 14.5 -2t28.5 -6t32.5 -8t26.5 -7q4 0 12.5 -5t10.5 -5q2 -2 8 -9t13.5 -15.5t14.5 -15.5t11 -7q10 -4 41 -7t51 -3h10q2 -6 15.5 -18.5t17.5 -16.5 q4 -2 18.5 -6t16.5 -6q2 0 11 -10.5t11 -12.5q23 -16 51.5 -22t51.5 -23q2 0 10 -9t14 -13q49 -57 91.5 -111.5t78.5 -116.5q12 -20 25.5 -54t25 -70.5t19.5 -70.5t10 -57v-90q0 -4 5.5 -18t7.5 -16v-7q0 -59 -16.5 -102t-31.5 -96q-4 -20 -6 -35.5t-4 -30t-6 -30t-16 -33.5 q-2 -2 -17.5 -15.5t-17.5 -17.5q-2 -2 -7 -10t-10.5 -17.5t-10.5 -18.5t-7 -11q-33 -53 -79 -92t-91 -80q-8 -6 -26.5 -21.5t-39 -32t-38 -31t-23.5 -18.5q-10 -8 -30.5 -15t-41 -14.5t-37 -16.5t-16.5 -21t4 -18.5t19 -16.5q10 -4 26.5 -18.5t20.5 -16.5q2 0 10 -1t17.5 -3 t17.5 -4t10 -2q4 -2 17.5 -9.5t29 -14.5t28.5 -14t17 -7q35 -16 69 -20.5t69 -14.5q2 0 11 -5t11 -7q8 -4 24.5 -9.5t33 -10.5t28.5 -9t16 -4q4 -2 22.5 -5t40 -7.5t40 -7.5t22.5 -3q4 -2 27 -9t50.5 -16.5t54 -18.5t40.5 -13q41 -16 82 -27.5t78 -42.5q12 -2 43 -8 t65.5 -13t65.5 -14.5t41 -9.5q4 0 17.5 -5t17.5 -7q80 -31 165 -36t169 -19q2 -2 15 -7.5t16 -5.5h18h18q2 0 16.5 5.5t18.5 7.5h113l12 10h170q2 0 10.5 4t14.5 8q41 25 82 33t88 25q23 6 42 18t38.5 26.5t40 24.5t45.5 10q37 0 50 -23.5t13 -53.5q0 -45 -28.5 -79 t-63.5 -61q-49 -41 -100.5 -65.5t-104.5 -48.5q-31 -14 -64.5 -16.5t-62.5 -18.5q-4 -2 -15 -8.5t-23.5 -13.5l-25 -14t-16.5 -9q-90 -2 -175 -12.5t-173 -10.5h-98q-29 12 -53.5 13.5t-59.5 9.5q-2 0 -10 6t-10 6h-52h-20q-6 0 -31.5 6t-56.5 13.5t-60.5 14.5t-44.5 11 q-2 0 -12 5t-12 7h-10q-10 0 -21.5 -1t-25.5 -1t-28.5 2t-27.5 11q-4 2 -17 17t-18 17h-8h-28h-9q-2 0 -13 3.5t-25.5 7.5t-26.5 8t-14 4t-12.5 2t-22 4t-22.5 4t-13 2t-11.5 10.5t-11.5 12.5l-90 22q-2 0 -12 5.5t-21.5 11.5t-22.5 11t-13 5q-2 2 -21.5 7t-23.5 5 q-6 2 -18.5 6.5t-16.5 6.5q-4 0 -16.5 7t-28 15t-28.5 15.5t-17 7.5h-15h-45h-10q-2 0 -10 7t-17.5 14t-17.5 14.5t-10 9.5q-18 14 -41 14q-20 0 -39 8q-35 16 -62.5 37t-64.5 33q-2 0 -12.5 2t-21.5 4t-21.5 3t-12.5 1q-6 2 -19 6t-16 6q-2 2 -10 17.5t-12 17.5h-25h-10 q-4 0 -12 5t-10 5q-4 2 -14.5 6.5t-22 7.5t-20.5 6t-11 3h-23q-2 0 -9 5t-15 11.5t-15 12.5l-6 6q-4 2 -18 6t-16 4q-8 4 -34 17.5t-36 17.5q-4 2 -17.5 12t-15.5 10q-4 2 -22.5 6.5t-24.5 6.5q-4 0 -15.5 1t-25.5 3t-25.5 4t-13.5 2q-10 4 -33.5 15.5t-49 24.5t-47 24.5 t-27.5 15.5q-4 2 -18.5 16.5t-30 30.5t-29 29.5l-15.5 15.5q-4 2 -18 11t-18 12q-10 8 -31 25.5t-40.5 33.5t-35.5 28.5t-18 14.5t-14.5 24.5t-20.5 32.5q-4 8 -12.5 25.5t-16.5 36t-15 34t-9 19.5q-6 12 -15.5 34.5t-18.5 46t-16.5 43t-9.5 23.5v23v57q0 4 -6 12.5t-6 10.5 q0 8 -3 28.5t-7.5 45t-7.5 46t-5 31.5v23v0zM348 842q4 -2 8 -15.5t4 -15.5q16 -63 26.5 -129t33.5 -125q35 -88 79 -166t103 -153q2 -2 5 -6.5t7 -4.5q2 -2 15.5 -6t17.5 -6q2 -2 16.5 -13.5t30 -25.5t28.5 -26.5t17 -14.5t28 -6t30 -4q2 0 11 -6t20.5 -12.5t21.5 -11.5 t14 -5t19.5 -2t32 -4t32 -4t19.5 -2t22.5 -5t22.5 -5q2 0 16 -1t21 -1q8 0 19 1t13 1t15.5 10t17.5 12q16 6 40 8t40 15q2 2 10 11t17.5 18.5l17.5 17.5t12 10q2 0 12.5 2t21.5 3t21.5 3t14.5 4q2 2 8 8.5t13.5 14.5t14.5 14t9 8q10 8 31.5 25.5t25.5 19.5q2 4 21.5 7.5 t23.5 5.5q6 4 18.5 16t16.5 16q2 4 6 23.5t4 24.5q2 6 6.5 18t6.5 14q2 4 12 17.5t10 17.5t2 17.5t4 30t4.5 29.5t2.5 17t10 26.5t12 27.5q2 8 6 30.5t4 26.5v41v98q2 33 13.5 68t11.5 69l-2 5v4q0 4 -10.5 18t-12.5 18q0 2 -4 16.5t-7 30t-7 29t-4 17.5q-2 4 -11.5 22.5 t-11.5 22.5q0 2 -2 13t-3 25.5t-3 25.5t-4 16q0 2 -9 12t-18.5 21.5t-18.5 20.5t-9 13q-12 20 -19.5 45t-14.5 50.5t-17.5 48t-28.5 38.5q-4 4 -23.5 7.5t-23.5 5.5q-2 2 -16.5 16t-16.5 19q-4 2 -23.5 11t-23.5 11q-2 0 -9.5 5t-14.5 11.5t-13 11.5t-8 5q-41 14 -86 17 t-84 18q-25 8 -39 10t-31 2h-22h-45q-4 0 -17.5 -6t-17.5 -6h-43h-15q-4 0 -21 -9.5t-35.5 -19.5t-35 -18.5t-20.5 -10.5q-78 -35 -132.5 -81t-107.5 -111q-16 -18 -17 -40t-5 -40q-2 -4 -7.5 -14.5t-11.5 -21.5t-11 -21.5t-5 -12.5q-2 -4 -6 -22.5t-7.5 -40t-6.5 -40 t-3 -22.5q-12 -47 -23.5 -92t-25.5 -90v-6v-8z" />
<glyph unicode="R" horiz-adv-x="1761" d="M1356 43q-72 59 -126 133t-93 158l-17 43q-12 25 -38.5 48.5t-37.5 45.5l-26 43l-88 96q-2 35 -32 68t-71 58.5t-85 41t-72 15.5q-12 0 -29.5 -3.5t-35 -11.5t-30 -19t-12.5 -28l8 -45q0 -16 -4 -23.5t-4 -17.5q0 -18 2 -29.5t6 -31.5l-10 -189l2 -24q2 -20 2 -39v-39 v-39q0 -16 -2 -35q0 -10 9.5 -24.5t23.5 -20.5l55 -37q25 -18 69 -21t87 -7.5t73.5 -15.5t30.5 -46q0 -18 -13 -32.5t-31.5 -24.5t-39 -16.5t-34.5 -6.5q-37 0 -67 13.5t-69 19.5q-43 8 -85 14t-95 23q-14 0 -28.5 -4t-32.5 -4l-84 8q-14 0 -28.5 -12.5t-31.5 -12.5l-192 6 q-12 12 -12 25q0 29 27.5 45t63.5 27.5t69.5 17.5t45.5 17q12 18 13.5 42.5t5.5 40.5q4 2 11 9.5t9 7.5q10 27 13.5 61.5t3.5 69.5v51q0 25 -5.5 43.5t-5.5 38.5l25 213l-18 115l-7 26v6q0 6 2.5 32t4.5 32q14 4 16 8t2 12l-14 74l14 64q0 2 3 14t3 16l-6 31v35l6 76 l-20 180v25q-27 31 -51.5 53t-52 39.5t-60.5 29t-76 21.5q-16 2 -16 20q0 16 21.5 27.5t50 20t56 11.5t38.5 3l69 -6l74 6l104 -23q33 0 64 8.5t67 8.5l99 -11l100 11q59 0 114.5 -11.5t112.5 -27.5q27 -10 60 -15.5t57 -21.5l27 -19q47 -29 85 -54t65.5 -57t43 -74 t19.5 -103q2 -31 8 -56.5t6 -56.5q0 -27 -10 -34t-21 -27q-10 -25 -13 -61t-15 -54q-20 -29 -48 -46.5t-53 -41.5q-12 -18 -34.5 -29.5t-45 -22t-39 -25.5t-16.5 -42q0 -25 15.5 -30t25.5 -23q2 -4 11.5 -17.5t20.5 -30t20.5 -29.5t11.5 -15q45 -57 78.5 -115.5t80.5 -112.5 q27 -31 53.5 -61.5t61.5 -50.5q8 -4 15.5 -17.5t13.5 -29t13 -32t15 -24.5q45 -33 84 -57.5t80 -54.5q18 -12 44 -21.5t48.5 -22t39 -29.5t16.5 -44q0 -25 -20.5 -32t-45.5 -7h-174q-37 16 -71.5 17t-81.5 6q-18 4 -54.5 23.5t-58.5 35.5zM547 958q0 -53 38 -80.5t89 -27.5 h43q4 18 34.5 32.5t69.5 23.5t76 17.5t53 14.5q25 10 48.5 31.5t41.5 44.5l39 73q18 31 29.5 64t11.5 72q0 18 -13 35.5t-13 41.5q8 33 9 40.5t1 11.5v12q0 4 -11.5 14.5t-13.5 14.5q-57 104 -145 142t-207 38q-4 0 -20.5 -2t-34 -5t-32.5 -6.5t-17 -5.5q-4 -4 -14.5 -22.5 t-12.5 -22.5v-32q0 -66 -12.5 -126.5t-28.5 -123.5l-16 -25l24 -31q2 -4 4 -23.5t4 -29.5v-16q-8 0 -8 -15q0 -2 3 -11t5 -11z" />
<glyph unicode="S" horiz-adv-x="1212" d="M399 12q-45 16 -99 21.5t-102 19t-80 45t-32 103.5v30l23 226q4 10 8 15t16 5q25 0 37 -22q47 -63 80 -124t72 -128q8 -16 48 -33.5t88 -32t93 -24t61 -9.5h23q18 0 20 2q4 2 13.5 8.5t19.5 13.5t18.5 13t12.5 9q4 4 16.5 9t16.5 5l49 12q4 0 20.5 25.5t34.5 56.5l45 82 q0 2 1 12t2 22.5l2 25t1 16.5v18q0 27 -3 43.5t-13 50.5l-2 7q-10 14 -24.5 24t-26.5 25q-14 20 -19.5 30.5t-11.5 17.5t-16.5 13t-34.5 17q-2 0 -14.5 4t-16.5 8q-33 18 -64.5 19t-66.5 12q-16 12 -26.5 25t-30.5 24q-4 0 -12.5 2t-18.5 4t-19.5 4t-11.5 2l-61 63 q-16 12 -29.5 17.5t-26 10.5t-23.5 11t-26 19q-23 18 -25.5 36.5t-15.5 39.5q-2 10 -10 22t-12 21q-27 33 -43.5 55t-25.5 44.5t-12 49.5t-3 68q0 49 12 103t34.5 104.5t55.5 95.5t74 78q25 25 57.5 25.5t63.5 6.5t56.5 25.5t59.5 19.5q51 0 96.5 -6t90.5 -16 q31 -8 56.5 -19.5t58.5 -11.5q23 0 41 13.5t35.5 29t37 28.5t43.5 13q23 0 30 -21.5t7 -39.5l-22 -78l10 -139v-31q0 -33 -2 -54.5t-10 -54.5q-2 -6 -7.5 -11t-9.5 -5q0 -2 -8 -2q-10 0 -32.5 32.5t-51.5 73.5t-57.5 81t-46.5 53q-47 31 -112 41t-118 10q-78 0 -118 -31 t-68 -96q-12 -27 -20.5 -42.5t-13.5 -27.5t-7 -27.5t-2 -39.5q0 -63 21.5 -109.5t57 -80.5t83 -56.5t100.5 -36.5l12 -8q29 -18 50.5 -29.5t42 -22t42 -20.5t50.5 -22l137 -89q2 -2 5 -3t7 -5l8 -8l21 -59q4 -8 9 -18.5t9 -14.5q2 -2 11.5 -12.5t17.5 -21.5t15 -21.5 t7 -12.5q2 -8 8.5 -21.5t11.5 -27.5t9 -26.5t4 -18.5v-174q0 -2 -5 -15.5t-11 -23.5q-4 -2 -4 -4l-2 -2t-2 -6q-2 -4 -6.5 -16.5t-8.5 -25.5t-9 -25.5t-7 -14.5q-6 -23 -32 -46.5t-36 -29.5q-10 -14 -11 -30.5t-15 -24.5q-47 -16 -77 -37t-55.5 -39t-55 -31.5t-75.5 -13.5 h-14q-33 2 -43 3t-14 1z" />
<glyph unicode="T" horiz-adv-x="1783" d="M418 51q0 33 20.5 50.5t50.5 17.5l78 -10q29 0 59.5 11t57.5 31.5t46.5 46t25.5 54.5v63q4 51 15 98.5t11 96.5l-16 51v273q-2 14 -3 27t-1 32v215q4 12 6 30.5t2 41.5t-2 38t-2 29l8 13v137q-10 20 -13 35.5t-9.5 26.5t-17.5 17.5t-36 6.5l-65 -17q-31 0 -60.5 10.5 t-64.5 22.5q-59 -4 -98 -8t-71 -12.5t-62.5 -21.5t-71.5 -36q-16 -20 -28.5 -49t-28 -55.5t-34 -45t-44.5 -18.5q-14 0 -34 2t-20 15q0 39 11.5 62.5t15.5 58.5v75l18 45q2 8 6.5 25.5t7.5 37t6 38t7 30.5q2 16 7 36t13.5 36.5t21.5 26.5t32 10q23 0 48.5 -17.5t52 -41 t52 -45t47.5 -27.5q10 -2 37 -6t56.5 -9.5t56.5 -8.5t37 -3q18 0 32.5 3t28 7.5t27.5 7.5t35 3h28q27 0 31 -2t18.5 -9.5t16.5 -9.5h6q41 0 76 13.5t78 13.5q25 0 46 -7t40 -7h37q98 0 191 9t210 11q16 0 28.5 -4t24.5 -4q16 0 26.5 7t17.5 17.5t15.5 20.5t18.5 16 q33 12 55.5 33t53.5 21q12 0 22 -14.5t19 -24.5l2 -4q-2 -10 -2 -43v-117q0 -33 2 -41l10 -127v-14q0 -8 -1 -18.5t-2 -20t-1 -11.5q-8 -14 -31 -14q-20 0 -36.5 16.5t-32 38t-30 42t-28.5 30.5q-23 18 -45.5 31.5t-40.5 38.5l-43 -4l-278 22l-41 -10l-60 10h-20l-19 -18 l-1 -13q-1 -14 -3 -32.5t-3 -37t-1 -30.5l8 -123v-235l-16 -88l16 -146q0 -12 -1 -19t-7 -22q0 -14 1 -46t1 -73q0 -37 -1 -66.5t-1 -43.5l-8 -60q0 -20 2 -65t10 -93t21.5 -86t38.5 -44l153 -39h27l33 6q29 0 41 -26.5t12 -47.5q0 -41 -30 -49t-60 -8q-25 0 -47 16 q-10 6 -24.5 11.5t-29.5 5.5l-59 -17q-25 0 -57.5 8.5t-67.5 14.5l-10 -2q-10 -2 -21.5 -4t-21.5 -4.5t-13 -2.5h-106q-29 -2 -49.5 -11t-46.5 -9q-8 2 -23.5 6t-17.5 4q-16 0 -30.5 -4t-31.5 -8q-23 -4 -43 -9t-45 -5h-18q-16 0 -29.5 2t-36.5 8q0 2 -6 23.5t-14 33.5z" />
<glyph unicode="U" horiz-adv-x="1908" d="M373 268q-23 61 -46.5 125t-45.5 121q0 2 -2.5 6t-4.5 8q-4 4 -6 9v114l-10 23v86q-6 16 -23.5 29.5t-17.5 37.5q-2 12 -2 25v22v23q0 8 2 18v164l-6 90l6 23l-6 53v23l6 82q-2 4 -4 10t-2 16q-2 4 -8 17.5t-13.5 29t-16.5 29.5t-19 23q-18 14 -61.5 31.5t-78.5 52.5 q-23 25 -45 34t-22 27q0 16 11 27.5t26.5 18.5t34 10t34.5 3l39 13l62 -6h22q39 0 74 -5.5t57 -11.5l66 2q31 0 61 6q16 2 30.5 6.5t29.5 4.5q25 0 43 -5.5t32 -5.5q29 0 55.5 7.5t61.5 7.5l53 -4q16 -8 43 -20.5t27 -27.5v-51q0 -12 -23.5 -23.5t-52 -21.5t-57.5 -18 t-37 -13q-29 -16 -62.5 -40.5t-58.5 -53.5v-119l-10 -94q0 -4 2 -12t2 -20q0 -23 -12 -37v-152l8 -31q0 -2 3 -19t6 -41t6 -49.5t3 -41.5q-4 -6 -6 -13.5t-2 -23.5q0 -4 3 -8t16 -8v-70v-29q0 -10 2 -24l18 -58l68 -137q29 -47 55.5 -95t73.5 -77l55 -12l29 -31 q35 -23 76.5 -27t84.5 -4q45 0 72 2t78 15q18 0 27.5 12t29.5 16q31 6 48.5 13.5t31.5 18.5t29.5 25.5t40.5 35.5l30 14q2 0 14.5 32.5t28 74.5t28.5 80t20 50q6 14 12 42t11 60t10.5 63.5t9.5 54.5q0 23 -3.5 51t-3.5 55l-6 27l25 45q0 4 -7 18.5t-12 18.5v77l17 136 l-14 112q0 4 -1.5 14.5t-1.5 26.5q-4 4 -12 20.5t-18 33.5l-27 45q-8 4 -32.5 18t-30.5 14q-23 10 -52.5 24.5t-52.5 18.5q-10 2 -28.5 5.5t-38 7.5t-33.5 13t-14 26v18l38 8l43 23q41 10 87.5 8t82.5 18h52q41 0 77.5 -3t83.5 -3h68q45 25 95 35t104 10q4 0 14 -2t20.5 -7 t18.5 -12t8 -18v-69l-10 -6q-23 -12 -47.5 -14.5t-46.5 -6.5q-27 -4 -53.5 -11t-55.5 -11q-35 -25 -51 -63t-23.5 -79t-13.5 -82t-20 -73v-277l-17 -45v-145q-4 -10 -5 -18.5t-1 -24.5q0 -14 3 -22.5t3 -27.5l-16 -43q-6 -23 -14.5 -45t-12.5 -47l-24 -100 q-10 -31 -21.5 -57.5t-28.5 -53.5q-10 -25 -30.5 -39t-28.5 -41q-14 -35 -63 -71q-23 -20 -49.5 -42t-51.5 -40q-18 -10 -35.5 -27.5t-40.5 -21.5h-38l-56 -27q-14 -4 -32.5 -5t-34.5 -1h-52l-77 -6l-62 6l-90 -6q-2 2 -12 6t-23 8q-16 8 -33.5 14.5t-33.5 10.5l-37 8 q-29 10 -53.5 14t-26.5 8q-16 10 -25.5 31t-27.5 31q-37 16 -69.5 39.5t-55.5 62.5z" />
<glyph unicode="V" horiz-adv-x="1552" d="M414 825l-2 9q-16 43 -33 78.5t-27 80.5q-8 29 -28.5 48.5t-24.5 45.5q-12 59 -26.5 116t-36.5 114l-29 59l-17 60q-12 23 -32.5 39t-40 31.5t-38 29.5t-26.5 31q-12 0 -28.5 2t-30.5 7t-24.5 15.5t-10.5 26.5q0 18 10.5 27.5t24.5 9.5l69 -8q6 0 12.5 6t16.5 6t17 8h81 l136 -12q41 0 73.5 10t71.5 14q23 2 40 3t32 1q25 0 71 11q4 0 20.5 -2t34 -6.5t32 -13.5t14.5 -21l-6 -66q0 -6 -10.5 -14t-23.5 -15.5t-26.5 -11.5t-19.5 -4l-39 8q-25 0 -39 -2t-39 -6q-10 -4 -18.5 -13t-8.5 -24q0 -27 11.5 -50t15.5 -50l6 -96q4 -41 23.5 -78t29.5 -76 v-59q0 -4 10.5 -16.5t12.5 -16.5q12 -25 21.5 -54.5t16.5 -61.5t14 -63.5t18 -56.5q12 -33 31.5 -67.5t27.5 -67.5l6 -67q8 -12 15.5 -34t16.5 -44.5t19.5 -39t22.5 -16.5q20 0 32.5 11.5t24.5 23.5l10 13q6 14 7 22q-2 12 -3 21v14q0 8 3 10l38 64q12 31 29 80t29 88 q14 33 26.5 82t38.5 75q-4 2 -4 17v57q0 14 4 20q0 4 7.5 29t11.5 37l14 29v57q6 4 15.5 13.5t9.5 15.5q20 49 33.5 113.5t13.5 123.5v23q-10 16 -23.5 30.5t-38.5 20.5q-10 2 -20 3t-27 1q-18 0 -37.5 2t-37 8t-27.5 18.5t-10 35.5q0 37 24.5 47t59.5 10l208 -27 q51 0 105 25q27 8 50.5 15t45.5 7q31 -14 58.5 -18t58.5 -4h24q18 0 29 2q4 -2 10 -6q12 -8 13 -10q10 -20 10 -41q0 -27 -10 -43q-4 -12 -16.5 -23.5t-18.5 -13.5h-68l-28 6q-10 0 -35 -5l-35 -7q-53 -45 -75.5 -111t-33.5 -129q0 -8 -6 -14l-35 -50q-12 -12 -12 -32v-17 q0 -8 -2 -18q-6 -16 -22.5 -22.5t-22.5 -22.5l2 -43q0 -31 -6 -57.5t-29 -43.5l-26 -102q-25 -25 -45.5 -61.5t-36.5 -71.5q-6 -14 -7 -27.5t-3.5 -27t-7.5 -26.5t-19 -28q0 -45 -17.5 -81.5t-39.5 -83.5q-10 -27 -21.5 -59t-23.5 -56l-19 -27q-10 -10 -12 -18q0 -8 1 -17.5 t1 -19.5q0 -16 -1 -24.5t-1 -12.5q0 -8 -7.5 -27.5t-9.5 -23.5l-10 -19q-4 -10 -8 -35.5t-10 -53t-12.5 -53.5t-12.5 -34q-12 -41 -35.5 -60.5t-66.5 -19.5q-12 0 -21.5 11.5t-17.5 27t-13.5 30.5t-7.5 24q-4 8 -10 35.5t-12 59.5t-13.5 61.5t-11.5 43.5q-12 59 -30.5 111.5 t-28.5 109.5q-2 12 -11.5 19.5t-19.5 13.5t-19.5 14.5t-11.5 22.5l-16 107q-2 6 -7 20t-9 29.5t-8.5 29t-4.5 17.5q-6 25 -19 46t-13 46z" />
<glyph unicode="W" horiz-adv-x="2287" d="M1067 1194l-59 168l-25 45q-14 35 -19.5 69.5t-17.5 67.5q-6 14 -27.5 18.5t-45 8.5t-41 12t-17.5 33t14.5 34t34.5 9q25 0 47.5 -2t46.5 -6q33 -6 74 -6h37q31 0 37 2q20 8 40.5 10t41.5 2h24q31 -4 44.5 -5t17.5 -1q53 12 92 20t80 8q8 0 32.5 -5t24.5 -17 q8 -10 13.5 -21.5t5.5 -21.5t-5.5 -20.5t-13.5 -20.5q-8 -6 -17 -12.5t-16 -6.5l-49 15q-25 0 -52.5 -7.5t-51 -20.5t-38.5 -35.5t-15 -53.5v-18q10 -47 14 -82t8 -82l2 -23q0 -12 7.5 -31.5t16.5 -40t18 -39t13 -28.5q20 -59 33 -125.5t37 -126.5q0 -35 1 -61.5t5 -38.5 q0 -4 12.5 -21.5t14.5 -21.5q0 -2 4 -12.5t8 -22.5t8 -22.5t4 -12.5q2 -8 4.5 -24.5t7.5 -32t13 -27.5t21 -12q29 0 45 13t26 33.5t17.5 42t17.5 38.5l31 39q4 4 6 25.5t2 27.5q2 4 12 12t13 11q6 8 11 30.5t11 48t14.5 52t24.5 43.5q4 4 9 13t5 11q2 6 5 20.5t6.5 30 t6.5 28.5t3 17l14 17l6 13t14.5 31.5t15.5 38t11 32.5q14 31 37 56t33 58l14 86q10 23 15.5 33t5.5 23q0 14 -1 19t-3 9q-4 23 -20.5 29t-18.5 6l-58 14q-35 0 -58.5 1t-62.5 5q-6 10 -13 24.5t-7 27.5q0 14 13.5 27.5t30.5 23.5t34.5 16t27.5 6q45 0 97.5 -4t97.5 -24 l102 22q14 0 25.5 -11t22.5 -11q4 0 11 5t11 7q35 16 75 29.5t77 13.5q31 0 30 -33q0 -18 -15 -45.5t-38 -27.5q-27 -8 -47 -30t-45 -22q-12 0 -14 2q-2 0 -27 -11t-39 -30q-20 -29 -32.5 -43t-20.5 -38q-31 -59 -55.5 -114.5t-55.5 -121.5q-16 -31 -21 -64.5t-16 -64.5 q-10 -31 -32.5 -61.5t-36.5 -63.5q-20 -41 -32.5 -77t-37.5 -81q-10 -25 -28.5 -52.5t-26.5 -53.5q-23 -53 -30 -109.5t-32 -103.5q-2 -4 -11 -15.5t-19.5 -23.5t-18.5 -23.5t-8 -13.5l-6 -70q-10 -23 -27.5 -34t-27.5 -35q-4 -18 -7.5 -48t-6.5 -59.5t-8 -56.5t-17 -41 q-4 -6 -14.5 -16.5l-19.5 -19.5t-18 -16l-8 -7q-8 -8 -26 -9q-25 0 -43 9q-16 4 -30.5 39.5t-26 78.5t-18.5 82t-9 49l-9 109q0 2 -4 16.5t-9 29.5t-9 27.5t-4 14.5q-12 47 -16.5 90t-12.5 86q0 4 -6 11.5t-14 15.5q-6 10 -15.5 24.5t-13.5 18.5q0 2 -3 18.5t-5 20.5 q0 2 -2 11t-4 11h-19q-18 0 -33.5 -17.5t-29 -41t-23.5 -48t-20 -36.5q-4 -6 -23.5 -25.5t-25.5 -38.5l-9 -61q0 -4 -12 -22.5t-14 -22.5q-4 -20 -7 -42t-16 -40q-4 -14 -14 -14q-8 0 -12 -19q-2 -8 -6.5 -22.5t-8.5 -28.5t-7 -26.5t-3 -14.5v-65q0 -2 -1 -5.5t-1 -7.5 q-6 -23 -15.5 -55.5t-23.5 -63t-33.5 -52t-44.5 -21.5q-16 0 -34.5 13t-37 32.5t-32.5 41t-21 38.5q-18 47 -21 98t-16 102q-8 29 -27.5 50.5t-25.5 48.5q-18 70 -47 127t-57 125q0 6 -2 13t-2 9v62q-4 23 -23.5 51t-30.5 49q0 8 -8 20q-18 78 -43.5 145.5t-38.5 145.5 q-25 25 -29.5 58.5t-15.5 64.5q-16 39 -31.5 77t-32 73.5t-38 69.5t-51.5 65q-12 10 -29.5 12t-35 5t-29 11.5t-11.5 28.5l-2 31q0 10 12 22q18 14 56.5 18.5t62.5 4.5q8 -2 17.5 -4t11.5 -2h2q47 0 98 9t99 13l94 -10l71 10l130 -16q25 -8 28.5 -24.5t3.5 -37.5v-22 l-14 -19h-115q-31 -18 -57.5 -32.5t-26.5 -61.5q0 -23 16.5 -37t20.5 -32q14 -53 18.5 -104.5t28.5 -108.5q2 -8 11.5 -26.5t19.5 -40t18.5 -40t8.5 -24.5l16 -127l55 -78q2 -4 5 -26.5t3 -26.5q6 -41 17.5 -82t28.5 -78l22 -43q2 -4 7 -14.5t11.5 -20.5t11.5 -18.5t7 -10.5 q6 -8 10 -21.5t8 -25.5t10.5 -21.5t18.5 -9.5t24.5 7.5t28.5 31.5q2 4 11.5 16.5t20.5 26t20.5 24.5t13.5 17q0 23 6 38.5t15.5 29.5t19.5 28.5t16 32.5l47 146q10 37 25.5 70.5t15.5 78.5q0 27 -8 50.5t-17.5 46t-17.5 47t-8 51.5v6z" />
<glyph unicode="X" horiz-adv-x="1982" d="M37 35q0 43 39 63.5t91 31.5t106.5 18.5t84.5 19.5q20 8 48 28.5t55.5 47t50.5 53.5t35 47q0 2 3 18.5t5 18.5q16 43 47 66.5t62 54.5q10 12 18 29.5t16.5 35t18.5 31.5t28 18q6 0 13.5 7.5t11.5 9.5l14 26q6 12 21.5 29t34 32t38 26.5t31.5 15.5q6 2 6 14t-11 31.5 t-28.5 40t-36 40t-32.5 32.5q-31 33 -31 41q-2 4 -7 23.5t-7 21.5q-4 8 -25.5 21t-23.5 17l-49 82l-39 31q-20 18 -31.5 43t-30.5 43l-67 66q-4 25 -9.5 37t-12.5 18t-17.5 12t-22.5 19l-18 37q-29 31 -55.5 51t-71.5 20h-176q-25 0 -35 24.5t-10 43.5q0 29 13 45t33.5 24.5 t45 10.5t47.5 2q18 0 27.5 -2t23.5 -15h176q14 -6 23.5 -7t27.5 -1l125 8q14 0 62.5 -2t100.5 -6t93 -9t41 -11q2 -8 4 -13.5t2 -9.5q0 -6 -2 -15t-4 -16q-4 -16 -27.5 -24t-50 -17.5t-48 -24.5t-21.5 -44q0 -51 31.5 -89t60.5 -75q2 0 4 -7t2 -9q18 -47 49 -86t58 -78 q0 -4 4 -13q2 -4 4 -6q0 -4 2 -19t6 -18q10 -12 40 -24t44 -23l16 -6q25 8 60 60.5t69.5 118t65.5 130t49 95.5q10 18 21.5 28.5t11.5 30.5q0 4 -4 18.5t-9.5 29t-11.5 25.5t-8 11q-16 -2 -28.5 -7t-28.5 -5t-32.5 5t-35.5 7q-18 12 -30.5 19.5t-12.5 33.5q0 12 3 25.5 t20 13.5q31 4 73.5 8t96.5 4q59 0 127.5 -4t140.5 -8q51 4 100 10.5t97 6.5q27 0 41 -10.5t14 -41.5q0 -25 -26.5 -37t-60.5 -18t-65.5 -10t-42.5 -14l-63 -62l-41 -20q-29 -23 -62.5 -68t-48.5 -76q0 -4 -2 -17t-6 -16q-2 -2 -11 -4t-11 -2q-18 -12 -41 -36.5t-41 -38.5 q-14 -18 -15.5 -40t-13.5 -36l-55 -56q-25 -31 -41.5 -57t-46.5 -57q-20 -23 -21 -39q0 -31 22.5 -67t50 -69.5t51.5 -61t28 -40.5l49 -88q12 -25 35.5 -45t38.5 -37q20 -33 32.5 -63.5t30.5 -61.5q4 -10 19.5 -18t23.5 -14q43 -47 68.5 -74t39 -40t18.5 -17.5t5 -6.5 l59 -51q51 -25 103.5 -33t103.5 -34v-27q0 -31 -23.5 -37t-51.5 -6h-31q-27 0 -61.5 12.5t-69.5 12.5q-16 0 -31.5 -4.5t-34.5 -4.5l-59 15l-72 -6h-24q-23 0 -29 6h-60l-227 -15h-22q-18 0 -41 6.5t-23 20.5t32 32.5t70.5 40t70.5 45t32 48.5q0 8 -8 29q-4 8 -6 18 q0 4 -7.5 11t-15.5 14.5t-16 13.5t-11 10q-14 25 -16 52.5t-18 45.5q-4 2 -21.5 17.5t-19.5 19.5v33q-8 23 -22.5 42.5t-31 39.5t-32 40.5t-23.5 45.5q-4 6 -12 23.5t-18.5 36t-19.5 33t-15 14.5q-43 -47 -73 -99.5t-63 -105.5q-43 -70 -78.5 -133.5t-58.5 -133.5 q-6 -6 -6 -20q-2 0 -8 -8t-8 -10q0 -37 25.5 -55.5t55 -33t55 -32t25.5 -47.5q0 -23 -19 -32t-36 -13q-2 -2 -13 -5.5t-26.5 -6.5t-30 -5t-20.5 -2h-4q-41 0 -81 12.5t-81 12.5l-141 -31q-4 0 -10 2q-12 4 -19 4q-23 0 -49.5 -7t-52 -14.5t-50 -14.5t-38.5 -7q-18 2 -41 8 t-27 6q-31 12 -43 17.5t-12 40.5z" />
<glyph unicode="Y" horiz-adv-x="1564" d="M260 90q0 14 15.5 25.5t35 17.5t40 9t30.5 3l47 -6q12 6 32.5 9.5t39 7.5t33 14t16.5 31v32l22 21q0 20 -12 29v112l12 129v49q0 82 -14 142q-14 59 -68 119q0 20 -15 44.5t-17 47.5v51l-15 18q-27 20 -54.5 58.5t-43.5 68.5q-2 0 -4 12.5t-2 16.5q-6 27 -21.5 58.5 t-34 63.5t-39 62.5t-38.5 55.5q-8 12 -10 27.5t-5.5 30.5t-9.5 28.5t-20 25.5q-18 12 -51 22.5t-66 23t-56.5 30.5t-23.5 49q0 27 32 46.5t56 19.5q23 0 46.5 -6.5t47.5 -8.5h82q57 -4 112.5 -17t109.5 -13l108 24q12 0 30.5 -3t34 -9t26.5 -16.5t11 -26.5 q0 -33 -29.5 -50.5t-64.5 -32.5t-64.5 -36.5t-29.5 -60.5q0 -10 14.5 -57.5t34 -100.5t39 -97t29.5 -50q4 -10 14 -33t21.5 -47.5t22.5 -46t18 -29.5q2 -6 12 -25.5t23.5 -41t25.5 -38t18 -16.5q12 0 31 13.5t38 32t35.5 36.5t22.5 31q2 4 4.5 17t2.5 15t2 7.5t4 5.5 q2 6 12 17t22.5 23.5t22.5 24t14 15.5q4 31 18.5 56.5t31 50l33 49t26.5 53.5q12 29 19.5 49t15.5 45l16 37q0 10 -7 25.5t-18.5 30.5t-21.5 28.5t-16 17.5h-7q-8 0 -17 -1t-19 -1q-35 0 -67 10t-32 47q0 18 9.5 39t29.5 21q2 0 8.5 -4.5t8.5 -6.5h2q23 0 39 5.5t32 5.5 l187 -11q43 0 77.5 1t75.5 10q2 0 11.5 2t20.5 4t23.5 4t18.5 2q10 0 16.5 -2t18.5 -10l82 -11q18 -2 43.5 -11t25.5 -36q0 -4 -7 -13t-9 -13q-10 -10 -39 -22.5t-41 -16.5q-16 -16 -35.5 -25.5t-46.5 -11.5q-37 -6 -62.5 -16.5t-49.5 -32.5q-25 -20 -25 -31l-80 -82 q-4 -16 -10 -22.5t-14.5 -9.5t-15.5 -7t-13 -14q-16 -23 -19.5 -50.5t-19.5 -47.5l-88 -95q-10 -14 -10 -45q0 -33 -2 -37q-4 -18 -24.5 -35.5t-43 -35t-44 -35.5t-30.5 -39l-20 -61q-10 -18 -19.5 -28.5t-15.5 -20t-10 -21.5t-4 -37l18 -135l-18 -162q0 -43 3 -97t15 -93 q10 -8 21.5 -9.5t17.5 -3.5l25 -26q6 -6 50 -14.5t94 -17.5t91 -18.5t41 -19.5q6 -12 6 -29q0 -12 -6 -30q0 -2 -15.5 -9.5t-21.5 -13.5q-4 0 -12 -4t-8 -6h-54q-66 0 -127 2t-120 14q-53 10 -97.5 16.5t-80.5 6.5q-37 0 -72 -7t-69 -15.5t-67.5 -15.5t-68.5 -7h-29 q-25 0 -48 4t-38 22q-8 10 -9 31t-1 39z" />
<glyph unicode="Z" horiz-adv-x="1634" d="M84 18q0 6 -1 20.5t-1 18.5v17q0 27 12 47q4 6 21.5 25.5t37 43t36 43t20.5 25.5q25 33 52.5 76t37.5 84q6 6 21.5 20.5t32 30.5t30.5 30.5t18 20.5q25 27 41.5 56.5t38.5 56.5q2 4 14.5 15t27 24.5t25.5 25t13 15.5q4 4 7 23.5t7 23.5l16.5 16.5t18.5 16.5q2 4 11.5 19 t20.5 31.5t21.5 32t14.5 19.5q4 8 17.5 25.5t17.5 21.5q2 4 10 12.5t12 10.5q2 4 17.5 6t15.5 4q4 4 6 23.5t6 23.5q2 4 16.5 17.5t18.5 15.5q2 4 6 23.5t4 23.5l4 4q2 2 4.5 3t4.5 3t15 11.5t17 11.5q16 12 14.5 18t10.5 27q12 31 37.5 65.5t64.5 38.5q2 6 10.5 22.5 t17.5 34t16.5 34t11.5 22.5q10 16 11 26.5t1 26.5q0 29 -26.5 37t-53.5 12h-10q-16 0 -29.5 -6t-27.5 -6h-9q-2 0 -4 2q-4 0 -12 5t-10 5q-4 0 -22.5 -5t-22.5 -5q-6 0 -31 -2t-51.5 -3t-49 -3t-28.5 -4q-4 0 -22.5 -4.5t-22.5 -4.5q-6 0 -18.5 3.5t-16.5 5.5h-182 q-6 0 -32 -13.5t-36 -21.5q-6 -2 -22.5 -18.5t-37 -36t-40 -40t-29.5 -30.5q-10 -12 -23.5 -43t-31 -60.5t-36.5 -50t-44 -16.5q-18 4 -26.5 29.5t-8.5 37.5q0 39 23.5 75t33.5 73q0 6 5.5 29.5t5.5 27.5q2 2 7 13.5t11 22.5t11.5 21.5t5.5 12.5q6 23 7 42t3 34.5t9 30 t26 28.5q6 4 24 4h25q37 0 76.5 -10t70.5 -39h58q39 0 76.5 7t76.5 7q16 0 31.5 -7t32.5 -7h10q2 2 10 5t17.5 7t17.5 7.5t12 3.5t22.5 -4.5t22.5 -4.5h13q18 0 35.5 4.5t35.5 4.5h19q53 -10 105 -16.5t112 -6.5h10q4 0 18.5 7t16.5 7q8 0 41 -1t63 -1h27q12 0 16 2 q31 2 62.5 22.5t62.5 20.5h13q10 -2 27.5 -5t17.5 -7q4 -2 16 -27.5t18 -40.5v-8q0 -16 -9 -31.5t-22.5 -29.5t-26.5 -25.5t-21 -19.5q-55 -59 -95.5 -127t-87.5 -135q-35 -51 -80 -96.5t-80 -96.5q-4 -2 -7 -17.5t-3 -17.5q-2 0 -6 -5t-6 -5q-4 -2 -17.5 -10t-17.5 -12 l-17.5 -17.5t-22.5 -22t-19 -19.5t-8 -11q-2 -2 -7.5 -15.5t-11.5 -28.5t-10 -29.5t-6 -16.5q-8 -23 -25.5 -43.5t-32.5 -36.5q-8 -10 -28.5 -36t-44 -54.5t-45 -55t-29.5 -36.5l-10 -23q-2 -2 -23.5 -28.5t-51.5 -63.5t-59.5 -75t-48.5 -62q-20 -23 -34.5 -35t-14.5 -45 q0 -10 9.5 -15.5t20.5 -9.5t23.5 -6t18.5 -2q4 -2 27.5 -6t29.5 -6q2 0 21.5 -10.5t23.5 -12.5h4h7q43 12 84 27.5t88 17.5q14 0 52 1t79 1t77.5 -1t53.5 -1q2 4 10 8.5t12 4.5q2 0 11.5 -5.5t11.5 -7.5h4h8q2 2 15.5 12.5t17.5 10.5q2 2 10 -4t12 -6h7h6q2 4 10 12 l17.5 17.5t17.5 16.5t12 11q4 2 10 4q8 2 13 6q2 4 11 23.5t11 21.5q2 4 11.5 18.5t11.5 16.5q2 6 12 26.5t21.5 43t21.5 43t12 24.5q4 6 21.5 21.5t39 31t42 27.5t28.5 12q16 0 26.5 -11t16.5 -26.5t8.5 -32t2.5 -26.5v-10t-3 -8q-4 -10 -15 -34t-23.5 -51.5t-23.5 -52 t-15 -34.5q-18 -43 -28.5 -82t-28 -70t-48.5 -50t-90 -26h-20h-29q-10 0 -20.5 -1t-22.5 -9h-694q-6 -2 -22.5 -4t-35 -4t-34 -3t-21.5 -1q-4 0 -16.5 2t-25.5 4t-24.5 4t-13.5 2h-14h-12q-2 -2 -15.5 -7t-15.5 -5h-82h-80q-6 0 -22.5 6t-22.5 16z" />
<glyph unicode="[" horiz-adv-x="890" d="M850 1700q16 -4 19 -14.5t3 -22.5v-16q0 -27 -2 -47.5t-12 -47.5q-2 -10 -20.5 -16t-22.5 -6q-41 -8 -78 -10t-75 -2h-62q-16 -10 -33 -11h-12q-27 0 -50.5 6.5t-47.5 6.5h-17q-10 0 -14 -2q-10 0 -26.5 -2.5t-33 -3.5t-28.5 -3t-14 -2q-4 -2 -22.5 -19.5t-22.5 -25.5 q-8 -16 -10.5 -46t-2.5 -56v-27q0 -55 3 -121.5t10 -113.5q0 -4 3 -12.5t7 -17.5t8 -17.5t4 -10.5v-18q0 -14 -3 -22.5t-19 -16.5v-80q0 -4 -6.5 -22.5t-6.5 -22.5q0 -6 1 -32.5t1 -49.5q0 -29 -2 -33q0 -4 -9 -22.5t-13 -22.5v-6v-6q0 -2 6 -21.5t6 -23.5v-49v-19 q0 -4 5 -23.5t5 -23.5v-10v-12q0 -4 -5 -22.5t-5 -22.5v-6v-4q0 -4 2 -19.5t3 -33t3 -33t2 -19.5q0 -2 1 -17.5t1 -35.5t1 -40t1 -32q0 -6 -1 -24.5t-1 -38.5q0 -18 -1 -37t-1 -25q-2 -4 -6 -22.5t-4 -22.5q0 -6 -1 -22.5t-1 -34.5t1 -34.5t1 -23.5q-6 -4 -14.5 -16 t-8.5 -16t5.5 -18.5t5.5 -16.5q6 -29 6 -57q0 -31 16 -60q4 -4 18.5 -21.5t16.5 -21.5t5 -14t7 -21.5t7.5 -20.5t3.5 -11q4 -8 17 -15.5t17 -11.5q8 0 30 -2t44.5 -3t44 -3t29.5 -2h18h19q2 0 15 2t28.5 3t29 3t15.5 2q2 2 22 2q16 0 35 -1t23 -1q4 4 18 8t19 4h26h31 q2 0 15.5 -4t15.5 -8q4 0 14 1t20 1q12 0 15 -2q20 -2 33.5 -14.5t20.5 -30t10 -37.5t3 -37v-6q-33 -41 -80 -49t-96 -8q-104 0 -204.5 13t-202.5 13h-80q-2 0 -21.5 -7t-23.5 -7q-25 0 -52.5 6t-51 19.5t-40 34t-16.5 48.5q0 61 6 123t6 125q0 53 -9 107.5t-13 107.5v33v82 q0 6 -2 27.5t-3 46t-3.5 46t-4.5 27.5v5v8q2 16 4.5 60t3.5 93.5t3 92.5t2 61q4 4 7 16.5t3 18.5v4v6q-2 4 -10 17.5t-13 17.5v364q4 4 8.5 16.5t4.5 16.5t-2 17.5t-4 29t-4.5 28.5t-2.5 17v205q0 4 -5 23.5t-5 21.5t-1 14.5t-1 28.5v33v27v20v33q0 16 1 29.5t1 19.5 q16 20 34.5 29.5t38 12.5t40.5 3q23 0 45 2q4 0 16.5 2t25.5 3t24.5 3t13.5 2h35h94q2 0 15 6.5t16 6.5q6 0 29.5 2t51 4t53 3t40.5 1h20h59q2 2 15.5 7t15.5 5h15h8q12 -2 47 -6t47 -6z" />
<glyph unicode="\" horiz-adv-x="1142" d="M911 -526q-4 20 -8 28.5t-9 13.5t-11 12t-13 26v34q-2 16 -9 26.5t-15 19t-17.5 16.5t-15.5 20q-12 12 -14 42t-2 50v29q-8 6 -15.5 19.5t-7.5 25.5l-22 43q-4 4 -12.5 16.5t-8.5 22.5q0 6 4 13.5t4 9.5q0 45 -15 63.5t-28 36.5q-4 12 -6 34.5t-5 45t-7 42t-12 30.5l-8 6 q-9 6 -18 14t-17.5 15.5t-8.5 11.5l-8 47q0 4 -13 15t-15 13q-12 12 -13 37l2 51q0 18 -2 33t-10 29q-8 10 -22.5 27.5t-29 36t-25.5 36t-15 27.5q-4 23 -5 43t-20 45q-10 16 -14 26.5t-7 18.5t-7 19.5t-15 29.5v33l-47 137q-6 6 -12 14.5t-10 22.5v35t2 20q-43 51 -60 129 v39q0 12 -2 19.5t-12 13.5q-8 12 -23.5 31.5t-31 41t-29.5 41t-20 35.5q0 35 -1.5 46.5t-5.5 21.5q-12 14 -22 25.5t-17.5 21.5t-12.5 23.5t-5 34.5v63q-4 2 -12 19.5t-8 19.5v76q16 8 39.5 17t41.5 9q37 0 60.5 -16t46.5 -43q4 0 12 -25.5t17.5 -58.5t15.5 -62.5t6 -37.5 q12 -35 32.5 -67t33.5 -67q23 -66 43 -135t49 -133q8 -20 19.5 -34.5t21.5 -28t17 -28.5t7 -38l2 -24q0 -2 5.5 -12.5t7.5 -12.5q14 -14 22 -38.5t15.5 -52.5t12.5 -55.5t13 -45.5q8 -39 30.5 -70t31.5 -72q0 -4 1 -13t7 -26q12 -47 30.5 -98t43.5 -92q4 2 14 -19.5 t25.5 -58.5t33 -83t34.5 -89t32.5 -79t25.5 -52q4 -12 8.5 -22.5t4.5 -28.5q0 -16 1 -24.5t3 -16.5l6 -6q6 -7 14.5 -13t14.5 -12t6 -8t1 -11.5t2 -19.5t2 -20.5t1 -14.5q4 -16 16.5 -28.5t16.5 -22.5v-22q4 -25 14 -46.5t21.5 -44t20.5 -45t9 -47.5q0 -4 -9 -18 t-21.5 -30.5t-25.5 -30t-20 -13.5z" />
<glyph unicode="]" horiz-adv-x="890" d="M41 -557q-16 4 -19.5 14.5t-3.5 22.5v16q0 27 2.5 47.5t12.5 46.5q2 10 20.5 16.5t22.5 6.5q41 8 77.5 10t75.5 2h62q14 10 33 10h12q27 0 50.5 -6t47.5 -6h17q10 0 14 2q10 0 26.5 2t33 3t28.5 3t14 2q4 2 22.5 19.5t22.5 26.5q8 16 10.5 45.5t2.5 56.5v27 q0 55 -3.5 121.5t-9.5 113.5q0 2 -3 11.5t-7 18.5t-8 17t-4 10v19q0 14 3 22.5t19 16.5v80q0 4 6.5 22.5t6.5 22.5q0 6 -1 32.5t-1 49.5q0 29 2 32q0 4 9 22.5t13 22.5v7v6q0 2 -6 21.5t-6 23.5v49v18q0 4 -5 23.5t-5 23.5v11v12q0 4 5 22.5t5 22.5v6v4q0 4 -2 19.5t-3 33 t-3 33t-2 19.5q0 2 -1 17t-1 36q0 20 -1 39.5t-1 32.5q0 6 1 24.5t1 36.5q0 20 1 38.5t1 25.5q2 4 6 22.5t4 22.5q0 6 1 22.5t1 34.5t-1 34.5t-1 22.5q6 4 14 16.5t8 16.5t-5 18.5t-5 16.5q-6 29 -6 57q0 31 -16 60q-4 4 -18.5 21.5t-16.5 21.5q-2 2 -5 13t-7.5 22.5 t-7.5 20.5t-3 11q-4 8 -17 15.5t-18 11.5q-8 0 -29.5 2t-44 3t-44 3t-29.5 2h-18h-19q-2 0 -15.5 -2t-28.5 -3t-28.5 -3t-15.5 -2q-2 -2 -22 -2q-16 0 -35 1t-23 1q-4 -4 -18.5 -8t-18.5 -4h-26h-31q-2 0 -15.5 4t-15.5 8q-4 0 -14 -1t-21 -1q-12 0 -14 2q-20 2 -33.5 14 t-20.5 29.5t-10 38t-3 37.5v6q33 41 80 49t96 8q104 0 204.5 -13t202.5 -13h80q2 0 21.5 7t23.5 7q25 0 52.5 -6t51 -19.5t40 -34t16.5 -49.5q0 -61 -6 -122.5t-6 -125.5q0 -53 9 -107t13 -108v-32v-82q0 -6 2 -27.5t3 -46.5t3 -46.5t4 -27.5v-4v-8q-2 -16 -4 -60t-3 -93.5 t-3 -92.5t-2 -61q-4 -4 -7 -16.5t-3 -18.5v-4v-6q2 -4 10 -17.5t12 -17.5v-365q-4 -4 -8 -16t-4 -16t2 -17.5t4 -29t4 -28.5t2 -18v-204q0 -4 5.5 -23.5t5.5 -21.5t1 -14.5t1 -28.5v-33v-27v-20v-33q0 -16 -1 -29.5t-1 -19.5q-33 -41 -73 -43t-85 -4q-4 0 -16.5 -2t-25.5 -3 t-24.5 -3.5t-13.5 -2.5h-35h-94q-2 0 -15.5 -6t-15.5 -6q-6 0 -29.5 -2t-51 -4t-53 -3t-40.5 -1h-20h-60q-2 -2 -15 -7t-15 -5h-15h-8q-12 2 -47 6t-47 6z" />
<glyph unicode="^" horiz-adv-x="1093" d="M532 1169q-16 -8 -29.5 -25.5t-23.5 -38t-19 -41t-18 -34.5q-2 -2 -7 -8t-11 -13.5t-11 -14.5t-5 -9q-10 -18 -15.5 -39.5t-12.5 -41t-19.5 -33t-38.5 -13.5q-10 0 -26.5 9.5t-12.5 25.5q6 41 35.5 76t43.5 75q8 29 16.5 62t16.5 65.5t19.5 64.5t27.5 58q6 8 17.5 25.5 t24 36t23.5 34t15 19.5t17.5 16.5t17.5 16.5h4q2 0 3 1t3 1t5 -1t8 -1q35 -8 52 -15.5t38 -29.5q2 -4 5 -12.5t7 -10.5q20 -72 35.5 -143.5t32.5 -143.5q4 -20 13 -44.5t9 -47.5v-10q0 -4 -5 -22.5t-5 -20.5v-8q0 -16 5 -33.5t5 -34.5q0 -51 -33 -75q-4 2 -12 9t-17.5 14 t-17.5 13.5t-10 8.5q-4 2 -7 11t-5 13q-2 2 -5 10.5t-7.5 17.5t-7.5 17t-3 10q-4 4 -13 23.5t-9 24.5q-2 4 -5.5 20t-7.5 35.5t-7 36t-3 20.5q-6 20 -21.5 49t-35.5 45h-6h-7z" />
<glyph unicode="_" horiz-adv-x="1095" d="M0 -244v54q0 16 1 38.5t8 44t22.5 38t44.5 20.5h80q31 4 58.5 13t66.5 9l86 -14q25 0 37 4t30 4q53 0 103.5 -14t101.5 -14l174 22l66 -10q12 0 20 4t21 8q12 4 20 7t27 3q37 0 69.5 -11t53.5 -36q6 -4 6 -10t-4 -14q-2 -4 -2 -6q0 -33 -7 -60l4 -53l-6 -33 q-29 -27 -71.5 -34t-79.5 -7t-83 5t-85 5q-113 0 -223.5 -3t-221.5 -7q-51 -2 -100 -10t-96 -8q-35 0 -73 20t-48 45z" />
<glyph unicode="`" horiz-adv-x="1220" d="M256 1616q0 47 34 76.5t77 29.5q29 0 53 -12t45.5 -31.5t40 -42t35.5 -43.5q2 -2 8 -10t14 -19.5t14.5 -21.5t8.5 -16q4 -4 12 -22.5t10 -22.5q4 -2 15 -13q14 -10 34.5 -25.5t30.5 -31.5q2 -2 9.5 -11t14.5 -20.5t13 -22.5t8 -14q2 -2 9.5 -8t15.5 -13t15 -14.5t9 -9.5 q6 -8 10.5 -26.5t7.5 -38t5 -37.5t2 -27q-23 0 -59.5 3.5t-59.5 23.5q0 4 -4 12.5t-4 10.5q-4 4 -18.5 7t-18.5 5l-10 10l-17.5 17.5t-18.5 17.5t-11 10q-2 4 -15.5 7t-15.5 5q-31 20 -66.5 55.5t-62.5 57.5q-4 4 -22.5 21.5t-40 37t-40 36t-22.5 20.5q-18 20 -31.5 41.5 t-13.5 48.5z" />
<glyph unicode="a" horiz-adv-x="1067" d="M713 156q-2 4 -8.5 20.5t-6.5 20.5q-2 4 -2 24t2 25q-16 16 -19 28.5t-3 28.5v25q0 8 -6 14q-4 4 -14.5 13.5t-14.5 13.5q-10 8 -24.5 10t-24.5 10h-12q-8 0 -11 2q-8 -4 -19 -8t-13 -8l-13 -6l-57 6h-29q-31 0 -65.5 -20.5t-50.5 -47.5q-2 -4 -4.5 -15t-2.5 -13 q-4 -8 -8 -15.5t-4 -17.5l-2 -29l-8 -31l10 -55q0 -2 12 -14t13 -15q0 -4 12 -5t16 -3q8 0 19.5 -1t23 -5t19.5 -12t8 -23q0 -14 -10 -27.5t-27 -17.5q-6 0 -19.5 -3t-28.5 -6t-28.5 -6t-19.5 -5l-29 12l-172 -12q-31 4 -46 11t-30 38q0 20 12.5 34.5t31 23.5t37 16.5 t30.5 15.5q0 2 3 4t5 4q10 10 22.5 24.5t18.5 30.5q2 2 8 19.5t6 21.5q12 35 31 61.5t31 55.5q4 4 9 20.5t5 20.5l21 84q2 4 8 18.5t6 16.5l21 70q8 27 19 44t21 40l7 34q2 4 4 15.5t4 13.5l12 41q2 10 5 31.5t3 29.5v91q2 8 10.5 25.5t18.5 23.5l41 14q4 0 11 9t9 11l41 19 l31 31q20 0 33.5 -16.5t21.5 -33.5q2 -6 6.5 -19t8.5 -27.5t8 -28t4 -17.5v-35q2 -2 4 -6l4 -8q16 -27 27.5 -60.5t21.5 -68.5q2 -23 3 -27t4 -4q10 0 16 -10t10 -22l14 -39q2 -6 12.5 -28.5t14.5 -31.5q0 -2 8 -10q4 -4 6 -8q0 -2 4.5 -12.5t7.5 -22.5t6 -22.5t3 -12.5 q6 -23 14 -47t21 -45q0 -4 9 -14t11 -15l6 -32q4 -20 9.5 -32.5t7.5 -27.5q0 -4 3 -14t6 -22.5t6 -22.5t3 -12q2 -14 11.5 -28.5t19.5 -18.5q4 -4 25.5 -13.5t25.5 -11.5q14 -8 26.5 -12t20.5 -9.5t13.5 -15.5t5.5 -29q0 -18 -19.5 -30.5t-44 -20.5t-50.5 -11t-38 -3 q-31 0 -56.5 8t-60.5 8l-92 -10q-12 0 -29.5 2t-35 7t-29.5 14.5t-12 25.5q0 23 20.5 32t44 16t44 17.5t20.5 35.5v6zM487 461q4 -2 28 -6t36 -9l27 -6q2 0 9 2t17 4l25 5l-23 90q-2 10 -4 28.5t-2 24.5q0 31 -10 49.5t-23 46.5q-4 8 -16 18.5t-23 20.5q-4 4 -12 4 q-10 0 -21.5 -8t-23.5 -8q-10 0 -21.5 -17.5t-21.5 -41t-17.5 -47t-7.5 -33.5v-91q2 -4 7.5 -14t7.5 -12q4 -8 12 -8q2 0 11.5 1t18.5 3t17 3t10 1z" />
<glyph unicode="b" horiz-adv-x="1001" d="M82 45q0 31 20.5 46t51.5 30q4 2 14 6t22.5 10t22.5 11.5t14 7.5q4 4 9.5 17t5.5 17l-6 58l6 74v57q2 2 4 6q2 2 2 4t2 4l6 37v64q0 4 6 23.5t8 31.5q0 23 -11 43t-11 43q0 14 8 31q-4 8 -11 35.5t-9 41.5q0 4 1 16.5t7 41.5q0 25 -18.5 40t-41 28.5t-41 31t-18.5 45.5 q0 18 13.5 28.5t31.5 16.5t38.5 9.5t33.5 5.5q88 6 161 6q66 0 127 -6q4 0 29 -2.5t33 -6.5q27 -4 50.5 -12t45.5 -16q41 -12 67.5 -21.5t55.5 -52.5q6 -10 17.5 -27.5t11.5 -29.5l-9 -70q0 -4 7.5 -23.5t9.5 -25.5q0 -10 -9.5 -21.5t-13.5 -17.5l-24 -35q0 -2 -2 -11t-4 -9 q-2 -4 -14.5 -15.5t-14.5 -13.5q0 -2 -6 -15.5t-8 -15.5q-10 -16 -18.5 -22t-8.5 -29t19.5 -31t35.5 -18q18 -10 29.5 -16.5t20 -12.5t15.5 -15t17 -28q0 -4 6 -12t9 -10v-21q0 -2 5 -10t9 -12q0 -2 10 -10.5t10 -12.5q0 -2 -3 -9t-5 -20q2 -2 5 -14t3 -22q-2 -2 -11 -13.5 t-9 -15.5v-27q-6 -53 -35 -94l-31 -14q-47 -27 -98 -34t-102 -17q-29 -4 -50.5 -16.5t-46.5 -12.5l-135 8q-2 -2 -17.5 -4t-19.5 -4h-86q-8 -6 -28 -6q-6 0 -22.5 2t-34 5t-33 5t-19.5 2q-18 2 -34.5 10t-16.5 31zM451 156q2 -8 20 -15.5t42 -13.5t45.5 -10t31.5 -4 q29 0 55.5 14t36.5 43q2 4 4 24.5t2 24.5q2 2 8 12.5t6 20.5q0 14 -6 24.5t-8 22.5q0 2 -1 13.5t-2 25.5t-2 25.5t-1 15.5q-4 16 -10 34.5t-27 22.5q-2 0 -12 1t-20.5 2t-20.5 2t-12 1q-2 2 -20.5 10.5t-29.5 12.5q-16 6 -30.5 17.5t-30.5 11.5q-12 0 -15 -3.5t-3 -9.5 q0 -4 1 -11t1 -15l-2 -13q-2 -2 -8.5 -10t-6.5 -10v-37q0 -2 -3 -10t-3 -13q-2 -4 -2 -8v-14v-16q0 -6 2 -9q0 -4 3 -16t3 -14v-29q0 -4 6.5 -22.5t8.5 -22.5v-55v0zM442 668q0 -23 9.5 -44.5t37.5 -21.5q20 0 33 12.5t29 16.5q8 4 32.5 8t41.5 6q16 14 16 25q0 10 4 30 q0 4 3 12.5t3 10.5v2q0 2 1 3t1 3q0 4 -4 19.5t-9 33l-9 31.5t-6 16q-4 4 -19.5 17.5t-19.5 17.5q0 2 -6.5 5t-8.5 3q-2 2 -13 11.5t-13 9.5h-23q-27 0 -40 -8t-19 -21.5t-8 -33t-4 -41.5q0 -4 -1 -19.5t-2.5 -33t-2.5 -34t-1 -24.5q-2 0 -2 -4v-8z" />
<glyph unicode="c" horiz-adv-x="1177" d="M465 8q-12 0 -18.5 -1t-22.5 -5l-82 37l-35 29l-43 20q-23 16 -33 37.5t-30 42.5q-2 6 -7.5 20.5t-11.5 32t-11 31.5t-7 20q0 2 -5 13.5t-11.5 24t-11.5 22.5l-7 14q-2 2 -4 18.5t-4 26.5q-8 29 -14.5 59.5t-6.5 61.5l4 49v27q0 10 -4 26q-2 8 -2 17v18v21q0 10 2 22 q4 4 12.5 15.5t10.5 15.5q2 2 7 16.5t7 18.5q0 4 10.5 13t16.5 22q2 4 7 16t11 26.5t12.5 26.5t6.5 17q2 0 2 2t2 4t4 6l2 4l4 4q2 4 10 17.5t8 17.5q29 0 51.5 14.5t51.5 36.5q2 2 8 9t13.5 15.5t12.5 16.5t7 10q2 0 3 2t5 4l6 7q4 0 14.5 -1t34.5 -8q18 0 37 15.5t49 15.5 h13q8 0 10 -2q4 0 18.5 -3t16.5 -3q4 0 22.5 6t22.5 8q23 6 38 7t40 1q6 0 19 -1t15 -1q2 -2 7 -4q4 -2 8 -2h41q2 0 7 -3t7 -5h31q2 0 10 2t17.5 3t17.5 2t10 1q2 -2 18.5 -9t24.5 -11q0 -2 3 -4t5 -4q0 -2 5 -11.5t8 -9.5q8 -2 20 -8t16 -23q0 -18 -6 -32q-4 -10 -7 -22.5 t-3 -29.5q4 -2 12 -13t11 -15q4 -10 6 -23.5t2 -25.5q0 -10 -2 -26.5t-7.5 -32t-13.5 -28t-20 -12.5q-18 0 -42 28t-48.5 64.5t-47 71.5t-40.5 49q-4 4 -23.5 6t-40.5 2q-29 2 -55.5 18.5t-55.5 16.5l-26 -22q-23 -18 -59.5 -23.5t-59.5 -17.5q-29 -20 -53.5 -45t-57.5 -41 v-78q-18 -20 -23 -36.5t-15 -43.5q-2 -4 -8.5 -18.5t-6.5 -16.5q0 -4 3 -15t5 -13l-14 -97q0 -16 5 -27.5t9 -25.5q10 -41 16.5 -77t33.5 -70q0 -2 8 -10.5t17 -16.5t16.5 -16.5t9.5 -10.5t3 -23.5t3 -25.5t13 -14t16 -14q2 -2 20 -9.5t21 -11.5q25 -16 45 -40.5t53 -29.5 h45l29 -16h20l82 16l45 -10q18 6 37.5 11.5t34.5 13.5q2 0 7 9t15 46q0 4 3 24.5t3 24.5q6 29 16.5 54.5t20.5 54.5q4 16 6 27.5t5.5 18.5t11.5 12t24 11q4 2 19.5 8.5t19.5 6.5h2q14 0 38 -17.5t24 -31.5v-107q4 -8 5 -18.5t1 -30.5q0 -31 -20.5 -57.5t-49 -49t-60.5 -39 t-54 -26.5q-2 -2 -14.5 -4t-14.5 -2q-23 -10 -44.5 -26.5t-49.5 -24.5q-2 0 -12.5 -1t-22.5 -2.5t-23.5 -2.5t-17.5 -1h-16q-10 0 -23.5 -1t-28.5 -1h-22q-12 0 -36 1t-26 1q-23 4 -45 10.5t-41 18.5z" />
<glyph unicode="d" horiz-adv-x="1277" d="M84 51q0 8 3 24.5t3 18.5q2 2 13.5 7t15.5 8q25 4 44 9t36 11q6 2 13 9t13 14.5t11.5 13.5t5.5 8t5 33t9 53q0 23 -7 40t-7 38q0 25 6 66.5t22 64.5v109q0 16 -14 29.5t-14 29.5l14 88q0 12 -5 37.5t-12.5 53.5t-15.5 51.5t-16 33.5l-37 37q-14 10 -33.5 20.5t-19.5 32.5 q0 14 16 19q57 10 111 10l49 -2q2 0 9 3t11 3l29 -6q27 4 53.5 6t53.5 2q29 0 58.5 -2t57.5 -6l23 6q35 -10 64.5 -13t58.5 -10q6 -2 19 -5t27.5 -6t26 -6t13.5 -3q4 -2 11 -8t11 -6q2 -2 8 -2h9q6 0 16 2q10 0 25 -9q2 -2 9 -8t15 -13t16.5 -13t10.5 -9q14 -10 31.5 -11 t31.5 -9q18 -10 41 -31.5t31 -40.5q2 -4 4 -15t4 -13q4 -6 17.5 -23.5t19.5 -21.5q2 -2 20.5 -13.5t22.5 -15.5q2 -2 4 -14.5t2 -14.5q2 -4 11.5 -24.5t11.5 -24.5l-15 -182q-12 -12 -16 -29.5t-5 -36t-3 -39t-13 -39.5q-25 -45 -50 -80.5t-64 -70.5l-23 -14l-21.5 -21.5 l-21.5 -21.5q-14 -10 -34.5 -11.5t-36.5 -11.5q-4 -2 -20.5 -12.5t-31.5 -16.5q-2 -2 -13 -4t-15 -2q-2 -2 -12.5 -7t-22.5 -11t-23.5 -12.5t-13.5 -6.5h-80q-4 0 -22.5 -6t-28.5 -8q-4 2 -17.5 5t-17.5 7l-360 -12q-2 0 -11.5 4t-20.5 7t-21.5 7.5t-12.5 4.5q-10 2 -31 2 q-18 0 -18 18v8zM549 94q47 0 95 12.5t95 22.5q4 2 18.5 7t18.5 9q2 2 12.5 11.5t21.5 21.5t21.5 22.5l16.5 16.5q2 2 10 10.5t15.5 17.5t14.5 17t9 12q2 0 4 5.5t4 9.5t7.5 18.5t7.5 16.5q6 10 14 20t8 23l-8 49q0 27 10 54.5t12 55.5v43q0 35 -9 67t-19 64q-8 23 -40 51.5 t-48 49.5q-14 20 -21.5 33.5t-36.5 23.5q-2 0 -14 3t-14 5q-2 0 -16.5 10.5t-26.5 18.5q-49 16 -98.5 29.5t-110.5 13.5q-6 0 -9.5 -1t-13.5 -7q-6 -4 -14 -15.5t-16.5 -26t-14.5 -28.5t-6 -20q0 -20 8 -37t8 -39v-12t-2 -9q-10 -133 -12 -245l6 -23q4 -6 4 -12q0 -4 2 -8 q2 -6 2 -19v-20v-17q0 -10 -2 -10q0 -2 -6 -13t-6 -16l21 -43q0 -2 1 -14t3 -26.5t3 -30t1 -23.5q6 -25 6 -51q0 -23 -6 -43q2 -14 20 -29z" />
<glyph unicode="e" horiz-adv-x="1091" d="M96 51q0 37 24.5 52.5t53.5 29.5t53.5 37t24.5 76v18t-2 19q-2 10 -3 22t-1 23q0 10 1 19t3 20q2 10 2 16v18q0 12 -1 23.5t-3 24.5q-2 14 -3 27t-1 28q0 14 1 26.5t3 24.5t4 24.5t2 26.5q0 23 -4 43.5t-8 42.5q-10 41 -11 76q0 10 5 27q4 16 4 24l-2 4v4 q-2 6 -10.5 22.5t-10.5 20.5l-16.5 16.5t-25.5 27t-25.5 25.5t-16.5 15q-2 2 -5 6.5t-3 8.5q0 23 18.5 43t36.5 26q8 2 21.5 7.5t27 10.5t24.5 8t13 3t12.5 1t14.5 1q16 0 30.5 -3t30.5 -7q10 -2 20.5 -4t20.5 -2t18.5 1t18.5 3q20 4 35 4q23 0 41 -7t39 -7q2 0 24.5 -1.5 t32.5 -1.5q57 0 112.5 7.5t112.5 9.5q8 6 23 6q31 -14 46 -34.5t24 -49.5q0 -4 2 -24.5t4 -24.5q0 -2 3 -17.5t5 -74.5q0 -16 -15.5 -25.5t-29.5 -9.5q-27 0 -36 9t-32 26q-2 0 -7 3t-7 5q-2 0 -11.5 2t-11.5 4q-23 10 -37 26.5t-32 37.5q-6 0 -18.5 1t-28 2t-27.5 2t-18 3 q-2 0 -13.5 6t-15.5 6q-2 2 -14 2h-19q-47 0 -68.5 -30.5t-31.5 -69.5q0 -2 -3 -14.5t-5 -16.5q0 -2 2 -6t6 -27q0 -37 -10.5 -72.5t-10.5 -74.5q0 -23 25 -26t41 -3h27q12 2 35.5 4t25.5 4q4 0 19.5 13.5t23.5 21.5q6 6 19.5 18.5t15.5 16.5q10 14 11 30.5t2 30t9.5 22.5 t34.5 9q35 0 49.5 -21.5t14.5 -54.5q0 -20 -4.5 -31.5t-10.5 -21.5t-10 -20.5t-4 -26.5t5 -25.5t9 -23.5l6 -78q2 -4 7.5 -21.5t7.5 -27.5q-2 -6 -2 -14t-2 -17q-2 -8 -2 -18q-4 -6 -18.5 -19.5t-24.5 -15.5q-4 0 -11.5 1t-9.5 5q-2 2 -4 13.5t-2 15.5q-10 20 -36.5 59 t-55.5 62q-12 10 -26.5 11t-24.5 1l-47 -15q-2 0 -10.5 3.5t-12.5 3.5h-4q-2 0 -4 1t-4 1q-6 0 -15.5 -7.5t-18.5 -17.5t-16.5 -21.5t-7.5 -17.5q0 -2 -1 -14t-1 -21v-16q0 -6 2 -12q0 -10 4.5 -34t8.5 -51.5t8 -51t6 -33.5q16 -16 23.5 -31.5t14.5 -27t18.5 -18.5t39.5 -7 q29 0 58.5 6t58.5 8h29q2 0 13 6t13 8l29 7q4 2 12 4t8 4q4 2 18.5 13t18.5 13q10 10 23.5 11.5t23.5 11.5q29 25 55.5 54.5t69.5 29.5h25q10 -6 12 -17.5t2 -21.5q0 -55 -28 -102q-2 -4 -14.5 -21.5t-14.5 -21.5q-2 -2 -4 -19.5t-4 -21.5q0 -8 -6 -15q-4 -6 -23.5 -25.5 t-26.5 -23.5h-10q-10 0 -21.5 -1t-21.5 -3q-12 -2 -24.5 -3t-24.5 -1q-25 0 -45.5 8t-48.5 8q-6 0 -19.5 -1t-15.5 -1l-55 -8q-27 -4 -53.5 -5t-55.5 -1h-86q-18 0 -32.5 4t-30.5 4q-12 0 -23.5 -7t-21.5 -7l-66 14q-4 0 -28.5 -6t-41.5 -8q-29 0 -60.5 14t-31.5 47z" />
<glyph unicode="f" horiz-adv-x="991" d="M94 53q0 20 9.5 29.5t22.5 13.5t28.5 8.5t27.5 14.5l25.5 25.5t23.5 25.5q2 0 5.5 9t3.5 14q2 6 5 25.5t3 23.5v71q0 2 2 15.5t4 21.5q0 2 3 14.5t5 14.5v137q4 10 12.5 25.5t8.5 27.5v4q-6 41 -9.5 81t-25.5 77v131l-6 6q-4 2 -11 9q-12 10 -34.5 23t-43 29.5t-36 36 t-15.5 40.5q0 27 23 28l100 6q2 2 10.5 5.5t12.5 3.5h24l58 -9q6 0 20.5 7.5t18.5 9.5l194 -8q10 0 19.5 4t21.5 4q18 0 32.5 -4t37.5 -4q33 0 62.5 8t60.5 8q25 0 50 -2t48 -6q18 -4 34.5 -26.5t16.5 -45.5q0 -8 -1 -15t-7 -7l-14 -43q4 -4 9 -21.5t5 -21.5q2 -2 2 -9 q0 -12 -17.5 -22t-27.5 -12q-4 0 -6 2l-8 4l-21 22l-43 21q-2 2 -7 8t-7 6q-49 29 -100.5 33t-106.5 4h-76l-18.5 -18.5l-18.5 -18.5q0 -4 -2 -8q-4 -8 -4 -12l-6 -43q-2 -4 -11 -15.5t-11 -13.5v-8l8 -41q0 -10 -2 -15.5t-13 -15.5v-100q0 -2 15.5 -18.5t25.5 -26.5 q8 -6 13.5 -7.5t13.5 -1.5l76 17h8l12 -8h49q10 0 19.5 1t19.5 7v4q0 10 2 25.5t4 19.5t11.5 19.5t11.5 17.5q10 16 18.5 37.5t30.5 21.5q31 0 48.5 -25.5t17.5 -54.5v-22l-7 -23v-49l-8 -29v-45l-6 -57q-4 -10 -16.5 -29.5t-26.5 -19.5q-18 0 -27.5 13.5t-16.5 29.5 t-15 29.5t-25 13.5l-76 -8h-36q-29 25 -60 24q-10 0 -20.5 -1t-20.5 -7q-8 -6 -21.5 -20.5t-13.5 -16.5v-157l7 -15v-51q0 -4 7 -15.5t7 -13.5q0 -4 3 -15t5 -13q0 -2 2 -4q4 -4 4 -5q4 -4 17 -12l12 -8q4 -2 25.5 -4t25.5 -4q2 0 14.5 -6.5t14.5 -8.5q16 -6 30 -6t27 -16 q4 -2 9 -13.5t5 -15.5t-2 -6t-2 -4t-2 -2q-16 -23 -39.5 -30t-52.5 -7h-8q-4 0 -27.5 1t-72 2t-136.5 5q-23 0 -42 -7t-42 -9q-10 -2 -22 -2h-21q-16 0 -30.5 1t-30.5 5q-12 12 -22.5 24.5t-10.5 28.5z" />
<glyph unicode="g" horiz-adv-x="1202" d="M532 -20l-20 8l-74 14q-27 4 -50 15.5t-50 19.5q-16 6 -32.5 9t-31.5 13l-4 4q-2 2 -4 3l-51 65q-2 4 -13.5 21.5t-15.5 23.5q-2 4 -4 6t-2 6q-10 29 -24.5 52.5t-26.5 50.5q-2 4 -4 11t-2 9q-6 45 -11.5 93.5t-5.5 95.5q0 45 8.5 87t22.5 85q0 4 2 15t4 15t14.5 20.5 t16.5 20.5q0 10 6 17q16 47 40 82t61 69l28 21l37 37l14 20q10 14 25.5 16.5t32.5 6.5q2 0 6 3t8 3l23 16q2 0 12 1t22.5 2t23.5 2t13 1t20.5 8.5t31.5 14.5q6 0 12 6q4 -2 16 -2h27h26t19 2q4 0 18.5 7t16.5 7l88 15h14l49 -15q4 0 15.5 -7t13.5 -7h72q2 0 7 -2t9 -4 q47 -29 76.5 -58.5t29.5 -91.5v-18l-6 -21q0 -2 -1 -12t-2 -20.5t-2 -20.5t-3 -12q0 -2 -16.5 -18.5t-26.5 -24.5t-20 -8t-17.5 5t-11.5 9q-23 29 -43 57.5t-42 54t-48.5 45t-61.5 32.5q-6 2 -27.5 7t-29.5 7h-16q-8 0 -27.5 -3t-41 -6t-40 -6.5t-26.5 -5.5q-8 -4 -31 -14 t-29 -16q-2 -2 -10 -10.5t-18.5 -17.5t-18.5 -18.5t-10 -11.5q-2 0 -6 -2l-9 -4q-78 -47 -121.5 -140t-43.5 -192q0 -41 5 -89t38 -77l28 -108q6 -23 27.5 -31t38.5 -18q2 -2 10 -14.5t17.5 -26.5t17.5 -27.5t12 -19.5q10 -14 25 -15q16 0 32 -8q4 0 15.5 -9t13.5 -11 q27 -16 51.5 -22.5t55.5 -6.5h24q4 0 18.5 7t18.5 7q2 2 13.5 4.5t15.5 2.5q27 8 37 19t14 26.5t8 33t19 37.5l8 166q0 16 -24.5 23.5t-54.5 14.5t-55.5 21.5t-25.5 43.5q0 10 16 20q2 2 21.5 10t28.5 11h2q20 0 38.5 -7.5t36.5 -7.5h4q2 0 5 2q59 4 121.5 9.5t123.5 5.5 l35 -2q4 0 7 -8.5t10 -39.5q0 -12 -13.5 -23t-31 -24.5t-31 -30t-13.5 -40.5q0 -14 7.5 -24.5t7.5 -20.5q0 -16 -7.5 -25.5t-7.5 -28.5l23 -94q0 -27 -9 -39t-28 -35q-6 -6 -8 -6q-2 -2 -16.5 -5t-18.5 -3q-20 -6 -35.5 -19.5t-44.5 -23.5q-2 0 -10 -1t-17.5 -3t-18.5 -3 t-11 -1q-23 -4 -48.5 -20.5t-47.5 -16.5h-11q-4 0 -8 2l-28 14h-43q-4 0 -11.5 2t-11.5 5h-109z" />
<glyph unicode="h" horiz-adv-x="1372" d="M367 -23q-27 0 -49.5 8.5t-47.5 8.5l-67 -17q-23 0 -46.5 2.5t-45.5 6.5q-16 4 -18.5 17t-2.5 30q0 18 15.5 26.5t36 14.5t39 13t24.5 22l14 49q0 2 5 11t9.5 19.5t9.5 18.5t5 10q6 14 7 26.5t1 26.5v70q-2 16 -8 33.5t-6 36.5q0 23 11 25.5t11 19.5q0 18 -11 32.5 t-11 34.5l6 33l-6 41l14 45l-8 111q0 12 4 23t4 26q0 18 -6 34.5t-8 36.5q-4 0 -18.5 3.5t-18.5 5.5q-4 0 -18.5 6t-18.5 8q-16 6 -34.5 10t-34 11.5t-27 18.5t-11.5 34q0 20 5.5 42.5t29.5 26.5q2 0 13.5 1t26 2t27.5 3.5t21 2.5h15q14 0 23 -4.5t26 -4.5q20 0 31.5 1 t33.5 8l21 6l39 -9q12 0 21 4.5t20 4.5q16 0 31.5 -9.5t33.5 -13.5q20 -2 43 -2t42.5 -5t31.5 -19.5t12 -42.5q0 -20 -26.5 -35t-38.5 -25q-2 -2 -13.5 -14.5t-15.5 -14.5h-4q-10 0 -17.5 4.5t-17.5 4.5h-4q-10 -6 -12 -22.5t-2 -22.5v-86q0 -4 -3 -24.5t-5 -25.5v-45 q0 -12 1 -27.5t4 -27.5t10 -21.5t21 -9.5l103 9q16 0 28.5 -4.5t34.5 -4.5h19q10 0 19 1t22 8q2 0 11 6t19 8q23 0 37.5 -11.5t42.5 -11.5h33q4 0 18.5 4.5t16.5 4.5q25 2 47 5t27 38v122q0 4 -4.5 20.5t-4.5 27.5q0 16 8.5 31.5t8.5 37.5q0 8 -8 12l-74 37q-2 0 -17.5 2 t-17.5 4q-2 0 -18.5 14.5t-24.5 22.5q-8 6 -15.5 13.5t-7.5 17.5v4q8 23 33 45.5t49 22.5q2 0 4.5 -1t6.5 -1h8q4 0 12 -3t10 -3h80q2 0 16.5 -2.5t30 -3.5t29.5 -2t18 -1h113q29 -2 58.5 -9t29.5 -42q0 -18 -7 -26.5t-19 -16.5l-11 -6q-2 -2 -10 -8t-17.5 -14.5 t-18.5 -14.5t-11 -6q-16 -10 -32.5 -14t-16.5 -29q0 -10 3 -19.5t3 -25.5q-2 -6 -4 -22.5t-2 -18.5q0 -4 -4 -9t-4 -7v-72q0 -2 -3.5 -12.5t-5.5 -20.5q-4 -18 -5 -30.5t-1 -30.5v-23q0 -2 3 -13t3 -16v-135q2 -4 5.5 -15t3.5 -13q2 -16 2 -31v-31q0 -20 -2 -41.5t-15 -62.5 l4 -8q2 -4 2 -7q4 -4 6.5 -12t2.5 -10l8 -37q4 -2 26.5 -13.5t30.5 -15.5q20 -8 50 -21t30 -44q0 -10 -8 -12h-15q-35 0 -54 -9.5t-54 -13.5h-29l-22 -6h-224q-18 0 -44.5 13t-26.5 36q0 16 13 34.5t30 22.5q4 2 22.5 4t20.5 5q4 2 17.5 15t19.5 21q10 10 10 29l-2 29l6 82 q0 12 -3 22t-3 21q0 23 14.5 49t14.5 49q0 12 -14.5 22.5t-24.5 16.5l-56 4l-131 -8q-20 0 -26 8h-95l-122 -14q-6 -2 -22.5 -10.5t-22.5 -12.5t-7 -14q0 -16 4.5 -28.5t4.5 -37.5l-9 -86v-28q2 -4 8.5 -24.5t6.5 -25.5v-36q2 -4 10 -20.5t12 -22.5q2 -4 7.5 -9.5t7.5 -5.5 l77 -14q4 0 12.5 -9.5t10.5 -13.5v-6q0 -4 1 -6t1 -4q0 -33 -33 -52.5t-63 -19.5l-49 17z" />
<glyph unicode="i" horiz-adv-x="786" d="M106 35q0 25 15.5 33t38 11t46 6t40.5 13q0 2 2 4l4 4q2 4 9 15.5t14.5 23t12.5 20.5t7 13q6 10 7 19.5t1 31.5q0 27 -7 37t-7 33l22 119q0 4 -2 15t-6 40v57q-2 4 -8 19.5t-6 25.5q10 29 12 59t2 60v39l-8 37q-2 14 -2 29v28v27q0 14 2 31q-4 12 -16.5 25.5t-18.5 17.5 q-23 16 -50.5 17t-50 4t-38 15.5t-15.5 51.5q0 23 20.5 31t39.5 10h67q53 0 106.5 2t106.5 6q8 6 20.5 7t25.5 1h77q4 0 21.5 -4t21.5 -4q16 0 34 -2t18 -12q2 -6 3 -11.5t1 -11.5q0 -12 -4 -29q-4 -12 -31 -21t-35 -13l-43 -37q-10 -6 -23.5 -8t-19.5 -15q-2 -2 -7 -13 t-7 -15q-2 -2 -2 -7q0 -2 -2 -6t-2 -8v-108q0 -4 2 -13.5t4 -23.5q-2 -4 -8.5 -29t-6.5 -29v-100l-8 -135l23 -105v-34q0 -4 -3 -16.5t-3 -18.5q0 -4 4 -12.5t9 -18.5t10 -18.5t5 -10.5q2 -10 4 -24.5t6.5 -28.5t13.5 -23.5t25 -9.5q12 0 22.5 4t20.5 4q8 0 21.5 -2t27 -8 t22.5 -14t9 -21q0 -37 -31.5 -51t-60.5 -14l-129 8h-33q-2 0 -13 -4t-15 -4h-121l-51 -6h-37q-12 0 -28.5 1t-31 5t-25 13.5t-10.5 25.5z" />
<glyph unicode="j" horiz-adv-x="710" d="M-88 -553q0 8 1 19.5t1 13.5q4 4 17.5 22.5t17.5 22.5q16 23 28.5 34t45.5 11q68 0 133 -33q2 -2 15 -12t15 -12h13q12 0 22 4t15 20l36 215v35v41q0 27 -1 57.5t-2 57t-3 37.5q0 6 -4 29.5t-4 27.5q0 2 -2 10t-2 12q0 10 2 15q0 4 2 8q0 4 4 17.5t4 17.5q2 4 2 37 q0 29 -1 60.5t-1 39.5q0 2 2 11t4 20.5t4.5 21.5t4.5 15v12q0 39 -18.5 70.5t-18.5 72.5q0 37 7 72t7 69q0 61 -4 117t-10 121q-4 8 -16.5 33.5t-18.5 34.5q-4 10 -8 11t-15 1q-10 0 -13 -2t-7 -4t-10 -4t-21 -2q-33 0 -53.5 22.5t-20.5 54.5v15q16 25 39 41t52 16h24 q6 0 25.5 -2t43 -4t43 -4t23.5 -2h277q6 -4 14 -8q16 -8 16 -15q10 -20 11 -39q0 -16 -11 -41q-6 -14 -27.5 -23t-25.5 -11h-43h-14q-4 0 -7 -4.5t-7 -6.5q-12 -29 -14.5 -63.5t-8.5 -61.5q0 -4 -4 -18t-4 -16q-4 -4 -7 -39t-7 -51v-9v-4q4 -4 12 -17t10 -18q0 -10 1 -33.5 t1 -52.5q0 -27 1 -51t1 -33q0 -90 -2 -164.5t-10 -164.5l22 -35v-45v-68q0 -4 -2 -14t-5 -21.5t-5 -21.5t-2 -12q0 -4 1 -28t1 -46q0 -25 -2 -29q0 -4 -3 -25.5t-5 -29.5q-4 -2 -9 -12.5t-5 -12.5q0 -4 1 -17t1 -24q0 -12 -2 -14q-12 -70 -54.5 -122t-83.5 -105 q-2 -4 -10 -12.5t-12 -12.5q-10 -6 -26.5 -19.5t-35 -25.5t-33 -21.5t-18.5 -11.5q-14 -8 -33.5 -10t-38.5 -2h-20q-35 0 -65.5 4t-54 17.5t-38 39t-14.5 66.5z" />
<glyph unicode="k" horiz-adv-x="1200" d="M879 6q-10 0 -17.5 -1t-17.5 -3q-12 -2 -24.5 -3t-24.5 -1l-43 2q-16 6 -24.5 16.5t-11.5 24.5t-4 29.5t-1 27.5q-2 6 -4 21.5t-4.5 32t-4.5 32t-2 21.5q-10 14 -15 27.5t-13 27.5l-23 23q0 2 -2 13t-4 13q-4 12 -19.5 38t-36 50.5t-41 43t-36.5 18.5q-6 -4 -22.5 -11.5 t-20.5 -11.5q-4 -2 -9 -9t-5 -11q-2 -23 -3.5 -45.5t-1.5 -44.5l5 -109q0 -2 -3.5 -10t-3.5 -17q0 -4 2 -8t5 -6v-29q4 -12 10 -15t10 -13l14 -27q4 -4 19.5 -17.5t17.5 -17.5v-14q0 -20 -17.5 -23.5t-33.5 -13.5h-98q-8 -8 -27 -8q-20 0 -35.5 5t-38.5 5l-106 -10h-19 q-6 0 -12 2q-4 0 -19.5 8t-23.5 12t-8 15q0 12 11 19t26.5 12.5t31 8.5t23.5 9q33 27 53.5 63.5t24.5 77.5v41q0 10 1 19.5t5 17.5q-2 20 -2 39v41v41q0 20 2 41q2 4 7 15.5t7 15.5l-8 43l8 77v46q0 4 -1 16t-2 25.5t-2 25.5t-1 19q-2 2 -7 9t-7 11l-8 14v56q-4 6 -11 14 q-12 16 -16 20q-10 10 -28.5 21.5l-37 23t-33 23.5t-14.5 29q0 10 18.5 16t29.5 8q18 2 34.5 3t36.5 1h31q8 -2 27 -2h16q8 0 18 4q53 -10 108.5 -9t111.5 -5q10 -6 13 -18.5t7 -22.5q-6 -4 -22.5 -20.5t-20.5 -22.5l-20 -41q-2 -2 -8.5 -7t-6.5 -7q-2 -4 -4 -21.5t-4 -21.5 l-27 -29q-2 -4 -2 -10v-23q0 -8 1 -16t8 -14l2 -47l-2 -46q-8 -6 -9 -22q0 -16 8.5 -24.5t14.5 -22.5q2 -2 5 -10.5t11 -10.5q27 0 27 35q33 20 39 48t22 59q4 6 14.5 21.5t14.5 19.5l43 51q2 2 4 16.5t2 16.5q4 12 12.5 24t10.5 27v49q4 6 18 13t16 14v22q6 25 38 37t55 12 q12 0 23 -1t24 -3q20 -4 32 -4h19q8 4 28.5 14.5t26.5 14.5h121q6 0 19.5 -2t26.5 -6.5t22.5 -9.5t9.5 -13q0 -16 -15.5 -38.5t-27.5 -29.5l-35 -8q-4 0 -22.5 -5t-26.5 -7q-12 -4 -25.5 -13.5t-23.5 -9.5l-33 9q-4 0 -20.5 -4.5t-36 -10.5t-37 -12t-21.5 -8 q-4 -4 -18 -18.5t-19 -18.5l-20 -14q-4 0 -14.5 -2t-14.5 -5q-10 -4 -19 -19t-15.5 -33.5t-10.5 -37t-4 -28.5q0 -16 2 -34t12 -32l56 -61q0 -8 3 -29.5t5 -28.5l14 -20v-35q4 -27 33 -41t43 -29q2 -4 8 -15t6 -15q2 -2 8.5 -10.5t6.5 -10.5q4 -4 15 -27.5t13 -27.5 q4 -6 13.5 -12t19.5 -13q6 -4 12.5 -8t10.5 -10q4 -2 9 -11.5t7 -9.5q4 -6 23.5 -25.5t25.5 -23.5q18 -18 56 -25t63 -24q6 -6 6 -8q4 -6 15.5 -18.5t22.5 -24.5t19.5 -23.5t8.5 -17.5q0 -16 -14.5 -22.5t-26.5 -6.5q-16 0 -29.5 4.5t-30.5 4.5q-18 0 -32 -7q-8 -4 -17.5 -6 t-27.5 -2q-2 0 -19.5 6t-21.5 9q-4 0 -24.5 2t-25.5 4q-25 6 -35.5 13t-41.5 7z" />
<glyph unicode="l" horiz-adv-x="1056" d="M94 61q0 20 10.5 29.5t25.5 14t32.5 6.5t30.5 10q27 16 33.5 41.5t17.5 50.5q6 63 6 127q0 23 -1 46.5t-3 45.5q8 10 16 26.5t8 35.5q0 2 -2 13t-4 23.5t-5 22.5t-3 12t-1 13.5t-1 21.5q0 4 1 8t1 6t-3 12.5t-3 22.5q0 4 5 15.5t9 19.5q-2 4 -4 15.5t-4 13.5v69 q0 4 -9 21.5t-11 21.5q-12 29 -13.5 58.5t-21.5 54.5l-17.5 17.5l-17.5 17.5q-2 2 -2 6v6q0 12 9 21.5t24 9.5h10q61 -6 119.5 -10.5t122.5 -4.5q14 0 26 6.5t29 8.5l45 2l45 -2q4 0 14 -7.5t15 -13.5l8 -8q0 -2 -3 -9t-5 -11q-4 -6 -14.5 -16.5t-14.5 -12.5t-24.5 -4 t-24.5 -2q-35 -8 -59.5 -48t-30.5 -73q-4 -23 -6.5 -44.5t-2.5 -43.5l15 -109q0 -18 -4 -35.5t-11 -33.5q0 -8 1.5 -26.5t1.5 -41.5t-1.5 -41t-1.5 -26q0 -4 -3 -24.5t-3 -25.5v-20q2 -4 13.5 -27.5t13.5 -29.5q0 -4 1 -13.5t1 -19.5t-1 -18.5t-1 -10.5q4 -4 15.5 -14 t13.5 -14v-11q0 -8 -4 -20q-2 -6 -3 -21q0 -10 11.5 -16t27 -10t29.5 -6.5t21 -2.5h16q8 2 31.5 4.5t50 4.5t49.5 4t31 2q51 29 95 67.5t83 81.5q8 8 12 21.5t21 13.5q16 0 30.5 -22.5t14.5 -36.5q0 -20 -4 -35.5t-4 -34.5v-12q-4 -4 -12.5 -15.5t-17.5 -23.5t-17.5 -23.5 t-10.5 -15.5l-12 -41q-2 -4 -13.5 -14.5t-15.5 -14.5q-8 -8 -28 -8h-35q-4 2 -21.5 8.5t-21.5 6.5h-70q-4 0 -15.5 4t-13.5 4t-9 -3t-11 -5t-14.5 -7.5t-14.5 -7.5h-112q-16 10 -34 12.5t-34 2.5h-25q-14 0 -26 -2.5t-29 -12.5q-29 -2 -59 -2h-58h-59q-29 0 -57 2l-35 15 q-14 6 -21.5 14t-7.5 24z" />
<glyph unicode="m" horiz-adv-x="1658" d="M1272 10q-37 0 -72 -6t-74 -6h-24t-25 2q-6 4 -23.5 21.5t-21.5 23.5q-4 2 -8 11.5t-4 11.5q0 25 23.5 34t53 17t57.5 20.5t36 42.5v125q2 2 7 16.5t5 16.5v12v13q-2 4 -12 22.5t-10 22.5q0 2 -2 13t-4.5 24.5t-4.5 24.5t-2 17v66v25q0 4 -5 23.5t-5 23.5q-2 8 -6 26.5 t-7 40t-6 41t-3 27.5q-2 2 -7 2h-6q-27 0 -43 -32t-24 -50q-4 -6 -14.5 -32.5t-21.5 -57.5t-21.5 -57.5t-12.5 -34.5q-10 -25 -28.5 -39.5t-28.5 -40.5q-4 -4 -7 -17.5t-3 -15.5q-2 -6 -6.5 -34.5t-6.5 -35.5q0 -4 -10 -22.5t-12 -22.5v-57q-2 -16 -8.5 -50t-16.5 -68 t-26.5 -60.5t-38.5 -26.5h-13q-31 25 -53 52.5t-37 62.5q-4 2 -7 19.5t-5 25.5q-2 2 -4 12.5t-3 21.5t-3 21.5t-2 12.5q0 6 -4.5 19t-6.5 15q-4 2 -13 11.5t-9 11.5q-4 6 -7 34.5t-5 35.5q0 2 -9.5 23.5t-13.5 31.5q-4 4 -7 13t-3 11q-4 2 -18.5 21.5t-16.5 23.5 q-2 2 -6 14.5t-7 26t-6.5 24.5t-3.5 15q-4 2 -7 10.5t-5 12.5q-4 2 -12 16.5t-10 18.5q-4 2 -12.5 21.5t-10.5 23.5q-8 8 -25.5 16t-19.5 6l-12 -12q-2 -6 -5 -21.5t-7.5 -34t-7.5 -35t-3 -22.5q-14 -63 -16 -125.5t-6 -126.5q0 -2 -2 -10t-5.5 -17t-5.5 -17.5t-2 -10.5v-53 v-51q6 -6 29 -27.5t31 -28.5q14 -10 30 -10q18 0 34 -3t27 -16.5t11 -45.5v-4q-4 -4 -11 -12.5t-11 -10.5q0 -2 -2 -2h-5q-2 0 -3 1t-5 1q-2 0 -21.5 5t-23.5 5t-18.5 -2t-31.5 -3t-32.5 -3t-19.5 -2q-4 -2 -39 -2h-53h-23h-29q-14 0 -25 1t-13 1h-31q-18 0 -33.5 5 t-27 15.5t-11.5 28.5q0 31 20.5 47.5t49 26.5t56.5 19.5t44 27.5q2 2 7 11t11.5 21.5t11.5 23t5 12.5q4 2 7 6t7 6q-16 16 -21 22.5t-5 22.5q0 2 2 6t2 6q0 8 5 38t10 64.5t10 64.5t5 38q2 6 4.5 29.5t3.5 50t3 50.5t4 30q4 45 19.5 87t15.5 89q0 33 -10.5 54.5t-39.5 41.5 q-6 0 -20 2t-30.5 4t-31 4t-20.5 2q-23 4 -40 12.5t-17 32.5q0 18 10 30.5t25.5 22t34 13.5t32.5 4q4 0 18.5 -6t16.5 -6q4 0 18.5 5t18.5 7h37q43 0 83 -2t85 -10q27 -4 46 -36t34.5 -73t25.5 -81t19 -60q0 -2 5 -12.5t11 -21.5t11 -22.5t7 -13.5q2 -4 6.5 -27.5t4.5 -29.5 q0 -2 4 -10t8 -17.5t7 -17.5t5 -10q2 -10 10.5 -40t12.5 -40q0 -6 3 -29.5t7 -28.5q12 -27 27.5 -47t30 -40.5t26.5 -43t18 -51.5q2 0 3 -1t3 -1q12 0 15.5 13.5t3.5 21.5q0 16 -8 27.5t-8 27.5q0 18 11 33.5t25.5 30t28.5 31t19 34.5q0 2 2 14.5t4 24.5t3 23.5t1 15.5 q2 2 5 11.5t7 13.5q20 31 43 65.5t37 69.5q16 45 30.5 99t26.5 95q8 33 13.5 54.5t14.5 34t28.5 18.5t56.5 8q4 0 19.5 2t33 3t32.5 3t19 2q29 2 71 7.5t71 5.5h6q2 -2 11 -7.5t11 -5.5q4 0 29 -5t29 -5q8 -4 10 -12t2 -17v-8q0 -35 -20.5 -40t-49.5 -15q-2 0 -11 -5t-11 -5 q-6 -2 -21 -2h-26h-29q-12 0 -16 2l-19 -19l17 -268v-262q29 -43 42 -97.5t17 -107.5l6 -6t6 -4q18 -10 54 -23.5t72 -30t62.5 -38t26.5 -45.5q0 -31 -31.5 -55.5t-56.5 -24.5h-14q-4 0 -20.5 2t-36 4t-36 4t-20.5 2h-57h-23q-6 0 -29.5 5t-27.5 5h-10v0z" />
<glyph unicode="n" horiz-adv-x="1343" d="M197 2q-23 0 -38.5 2t-37.5 6q-12 4 -14.5 7t-2.5 14q0 31 24 44t50 15h58q2 0 13 11.5t15 17.5q4 2 9.5 10t5.5 10q0 6 2 18.5t3 26t2 25.5t1 16l-8 92v17q0 16 8 22v52l-8 147v68q4 4 9 19t5 30q0 41 -11.5 74.5t-23.5 70.5q0 2 -3 11.5t-5 11.5q-4 10 -7 15t-14 13 q-4 2 -12 9.5t-18.5 15.5t-20.5 15t-14 12q-14 10 -32.5 18t-36 17.5t-31 22.5t-15.5 36q0 2 2 9t4 11t7.5 8.5t7.5 6.5h28q12 2 22.5 8t24.5 6q25 0 49.5 -5t49.5 -9q2 0 12 -1t22.5 -2.5t23.5 -2.5t13 -1q2 -2 16.5 -10t18.5 -12l37 -43q25 -18 48.5 -38.5t45.5 -41.5 q0 -2 6.5 -4t8.5 -2q6 -6 6 -8l16 -29l49 -51q2 -2 7.5 -13.5t7.5 -15.5q27 -41 59.5 -57.5t63.5 -50.5q27 -29 45 -57.5t41 -63.5q0 -2 3 -4t5 -4l20 -15q2 -2 12.5 -12t20.5 -20.5t19.5 -19.5t13.5 -11q2 -4 10 -9.5t10 -7.5q16 -12 32.5 -38.5t33.5 -26.5q12 0 22.5 7 t20.5 15q12 10 14 14.5t2 14.5l-16 107l8 102q-2 4 -8 15.5t-6 13.5v28q0 4 -3.5 11.5t-5.5 11.5v108q0 8 -2 33t-4 33q-4 10 -12 19.5t-20 9.5q-14 0 -27.5 -4.5t-30.5 -4.5q-8 0 -27.5 1t-40 5.5t-36 12.5t-15.5 24v37q0 29 6.5 50.5t43.5 21.5q33 0 65.5 -7t61.5 -7 q16 0 37.5 3t37.5 11h144q10 -6 21 -7t24 -1h28q16 -8 18.5 -24.5t2.5 -33.5v-6q0 -33 -29 -51l-65 -43q-2 -2 -16.5 -4t-18.5 -2q-4 -2 -10.5 -13.5t-12.5 -24.5t-10 -24.5t-4 -13.5l8 -37v-6t-2 -4q0 -2 -3 -7t-3 -9q-6 -25 -4 -64t-10 -57l-7 -185q2 -33 13.5 -60.5 t13.5 -57.5l8 -131q2 -10 6 -23q6 -23 17 -49v-109q0 -12 -13.5 -20t-23.5 -8q-27 0 -55.5 24.5t-44.5 40.5q-8 8 -24.5 27.5t-20.5 23.5q0 2 -5.5 14.5t-7.5 14.5t-9 9.5t-16.5 15.5t-16.5 16t-9 10q-35 35 -65 78q-14 20 -28.5 30.5t-29.5 26.5q0 2 -5 10.5t-9 12.5 q-2 4 -10.5 18.5t-10.5 16.5q-16 23 -41.5 36t-46.5 29l-20 23q-2 2 -8.5 10t-6.5 12l-43 35l-94 101q-4 6 -14 15t-20.5 20.5t-19.5 19.5t-11 10q-10 8 -27 8q-14 0 -19 -9t-5 -21v-13q0 -8 2 -8l6 -57v-101l6 -110q2 -2 5 -19.5t3 -21.5v-74q0 -2 3 -14t5 -15 q4 -29 9.5 -55t5.5 -55v-14q0 -6 -2 -13l8 -6q6 0 22.5 -2t35 -5t34.5 -5t22 -4q23 -2 27 -9.5t4 -25.5q0 -33 -23.5 -42t-50.5 -9t-38 5t-33 11q-6 0 -19.5 3t-17.5 3h-60z" />
<glyph unicode="o" horiz-adv-x="1298" d="M168 256q0 8 -2 21.5t-4 17.5t-11.5 11t-11.5 9q-6 10 -8 22.5t-6 22.5q-2 8 -7 23.5t-7 19.5q0 2 -6.5 11.5t-8.5 11.5q2 0 -4 6q-2 2 -2 6t3 15.5t3 13.5q0 6 1 23.5t1 37.5t-1 37t-1 25l8 22q0 4 2.5 25.5t4.5 26.5q2 4 13 18t15 18q0 2 -3 9.5t-3 11.5l-2 4l2 4 q10 16 22.5 36.5t28.5 35.5q12 10 25.5 19t23.5 24q10 14 18.5 30.5t18.5 32.5q0 2 6 8q27 18 53.5 40t55.5 38q4 4 21.5 12.5t21.5 10.5l29 22q2 0 13 1t23.5 2t22.5 2t14 1q2 2 16.5 8.5t18.5 6.5q20 6 45 11t47 5q29 0 58.5 -11t58.5 -17q66 -16 128.5 -28.5t117.5 -53.5 q4 -2 18.5 -17.5t18.5 -17.5q2 -2 14 -4t14 -2q10 -6 12.5 -23.5t8.5 -28.5q2 -4 11 -15t11 -13l7 -37q4 -4 14 -15.5t14 -13.5v-65q2 -16 17.5 -44t19.5 -51q6 -35 7 -56t1 -56v-45q0 -4 -3 -19.5t-5 -23.5q-4 -14 -9 -39t-5 -27q-2 -4 -9.5 -14t-15.5 -22.5t-16 -22.5 t-10 -12q0 -2 -4.5 -9.5t-9.5 -15.5t-9 -16.5t-6 -10.5q-16 -23 -35.5 -40t-36.5 -37q-10 -14 -13 -20.5t-15 -16.5q-16 -12 -30.5 -19.5t-29.5 -23.5q0 -2 -5 -11.5t-7 -9.5q-4 -4 -22.5 -5t-22.5 -3q-6 -4 -24.5 -11t-40 -16.5t-40 -18.5t-24.5 -13h-70q-106 0 -205 36 l-14 9l-6 6l-8 8q-2 2 -17.5 4t-19.5 4q-43 8 -76 30.5t-62.5 51.5t-56 59.5t-57.5 59.5v4zM442 186q-2 -4 -2 -10q0 -18 21.5 -28.5t32.5 -18.5q25 -18 50 -42t60 -24q12 -2 24.5 -3t24.5 -1q10 0 20.5 1t20.5 3l23 9l33 2l32 -2q2 0 6 2q2 2 4.5 3t4.5 3q4 2 9 5t11 7 q8 4 14 8l21.5 21.5l21.5 21.5l23 15q8 8 21.5 22.5t25.5 31.5t20.5 33.5t10.5 28.5q4 6 6 25.5t2 24.5q6 68 6 131q0 51 -6 100q-4 8 -5 15.5t-1 17.5v28q0 12 -2 19q-2 14 -12.5 25.5t-16.5 23.5q-10 23 -15 40t-13 40q0 2 -3 6q-4 4 -4 8l-22 37q0 2 -2 13.5t-4 15.5 q-25 35 -62 52t-76 34q-4 2 -12 4t-10 2h-49l-37 8h-72l-43 -20q-14 -6 -23.5 -7.5t-19.5 -9.5q-20 -14 -38.5 -28.5t-41.5 -28.5l-4 -4q-2 -2 -4 -2q0 -4 -2 -18.5t-4 -18.5l-14 -14q-6 -10 -16.5 -32t-12.5 -26v-35q-2 -4 -8 -22.5t-6 -22.5v-10l14 -70q0 -12 -7 -21 t-7 -24q0 -39 12 -65.5t16 -61.5l15 -129l14 -22l4 -8q2 -4 2 -6l51 -52v0z" />
<glyph unicode="p" horiz-adv-x="1058" d="M94 39q0 20 11.5 31.5t26.5 16.5t33.5 8t31.5 7q39 49 50 114t11 130q0 43 -2 85t-2 79v25q0 4 2 22t3 39.5t3 40t2 22.5q0 2 -2 14.5t-3 26t-3 24.5t-2 15q0 8 -2 33t-3 52.5t-3 52t-4 34.5q-12 23 -34 39.5t-42.5 30.5t-34.5 28.5t-14 34.5v15q0 20 12 22 q66 23 146.5 29t146.5 6h24q4 -2 18.5 -7t16.5 -5h68q4 0 25.5 -4t31.5 -8q66 -16 135.5 -29.5t128.5 -48.5q4 -6 15.5 -22.5t25 -35t24.5 -35l15 -22.5q2 -4 6.5 -12t4.5 -10q0 -4 3 -19.5t7 -36t7 -40t3 -29.5l2 -2q0 -2 1 -3.5t1 -3.5q0 -14 -7 -38.5t-19.5 -49 t-26.5 -46t-27 -29.5q-4 -2 -16 -9.5t-25.5 -14.5t-25 -13t-13.5 -8q-4 -2 -24.5 -16.5t-24.5 -16.5q-2 -2 -15 -7.5t-16 -5.5l-12 -6t-10 -6h-64q-49 0 -81.5 1t-85.5 11l-17 -8q-14 -8 -14 -14v-195q10 -16 11 -27.5t1 -27.5q0 -20 -6 -37.5t-6 -38.5v-4q4 -6 15 -18.5 t16 -16.5q14 0 33.5 2t39.5 2q31 0 54.5 -9t23.5 -42q0 -16 -12.5 -35.5t-32.5 -19.5h-436q-4 0 -15.5 3t-22.5 8t-20.5 12.5t-9.5 15.5zM461 569q2 -4 9 -12t11 -10h6h5q4 0 24.5 5t24.5 5h20h68h14q2 0 12.5 6t20.5 13.5t20.5 15.5t14.5 12q2 2 5 21.5t7 23.5 q4 20 19.5 34.5t15.5 37.5q0 2 -1 5t-1 7q-2 4 -2 6q0 14 -3 38t-7.5 47.5t-7.5 41t-5 21.5q-12 51 -51 74.5t-82 39.5h-8q-27 0 -59.5 -4t-61.5 -18q2 -16 2 -31v-28q0 -70 -5 -138.5t-5 -140.5v-72v0z" />
<glyph unicode="q" horiz-adv-x="1368" d="M1354 -319q-10 4 -34 14t-51.5 21.5t-52 20.5t-32.5 13q-6 0 -30 4t-28 6t-18 12.5t-16 10.5q-4 2 -7.5 4t-7.5 4l-8 4h-57h-23q-4 0 -17.5 10.5t-17.5 12.5q-76 37 -157.5 61.5t-163.5 52.5q-29 10 -55.5 22.5t-55.5 22.5q-4 0 -19.5 5.5t-32.5 11.5t-32.5 11t-17.5 7 q-8 2 -25.5 10.5t-19.5 12.5q-4 2 -18.5 16.5l-16.5 16.5q-4 2 -12.5 6t-10.5 6q-2 0 -12 9t-23.5 20.5t-25.5 21.5t-20 16q-23 20 -38.5 54.5t-31.5 60.5q-27 51 -47.5 102.5t-20.5 110.5v27q2 2 5 14t7.5 26.5t7.5 26t3 13.5q2 12 6 40.5t7 61.5t6 62.5t3 39.5 q33 23 45.5 60t34.5 65q4 4 22.5 17.5t22.5 17.5t18.5 7t16.5 3q2 2 13.5 11.5t22.5 18.5t21.5 17.5t14.5 10.5q29 23 57.5 36t67.5 21h30q23 6 41.5 14.5t35 15.5t36 11t43.5 4h6q45 -10 85 -12t87 -10q53 -8 109.5 -41t105.5 -78t89 -98.5t61 -102.5q0 -2 2 -10t4 -17.5 t3 -17.5t1 -10q2 -4 6 -17.5t6 -17.5v-119q0 -55 -1 -99t-9 -83t-27.5 -76t-54.5 -80q-8 -8 -27.5 -30.5t-41 -48t-40 -49t-26.5 -31.5q23 -35 72 -52.5t92 -17.5q20 0 29 2l12 -12q6 -4 21.5 -11.5t34 -16.5t34.5 -17.5t22 -10.5q4 -2 18.5 -6t16.5 -6q39 -23 68 -46.5 t72 -23.5q14 0 20 3q53 -25 102.5 -54.5t102.5 -48.5q8 -4 34.5 -12t34.5 -10q2 -2 21.5 -6.5t23.5 -6.5q2 -2 16.5 -12t16.5 -10h21h49q2 0 10 -4t12 -8q6 -4 23.5 -16.5t21.5 -16.5h195q14 0 42 14l38 19q51 20 101 36.5t104 32.5q25 6 47 15.5t49 9.5q0 -35 -11.5 -61.5 t-29.5 -50t-42 -44t-48 -41.5q-35 -33 -90.5 -56.5t-102.5 -33.5h-10h-24q-35 -8 -71 -21.5t-71 -13.5t-78 6t-77 17q-6 2 -32 10t-36 12q-2 2 -11 7.5t-12 5.5h-45q-2 0 -10 4t-14 6q-35 23 -64.5 30t-70.5 17q-10 2 -36 10t-34 12q-4 2 -22.5 11.5t-22.5 11.5q-2 0 -11 2 t-18.5 3t-17.5 3t-10 2q-4 2 -17.5 17.5t-15.5 17.5q-4 2 -23.5 6t-23.5 6q-2 0 -16.5 5.5t-16.5 5.5h-12v0zM420 240q20 -29 46 -47.5t53.5 -33t57 -27.5t56.5 -30q4 -2 18.5 -12t18.5 -10q2 0 16 -1t23 -1q35 0 58.5 13t53.5 13q12 0 21 -2l147 148l12 24q-2 10 -2 33v51 v52q0 25 2 34q0 4 2.5 19.5t3.5 32t3 32t2 19.5v12v10q-4 16 -7.5 47t-3.5 33q-2 2 -12 11.5t-12 11.5q-2 4 -5 17t-7 28.5t-7.5 29t-3.5 17.5q-2 4 -4 10q-2 4 -4 7t-2 5q-4 6 -11 19.5t-14.5 26l-13.5 22.5t-8 12q0 4 -4 7.5t-6 3.5q-4 2 -18.5 6t-16.5 6q-23 14 -42 38.5 t-48 28.5h-21h-49q-4 2 -17 7.5t-16 5.5h-18q-23 0 -53.5 -12.5t-61 -31t-57.5 -41t-41 -40.5q-25 -35 -37 -76t-18 -84t-10.5 -87t-14.5 -85v-4q0 -41 19.5 -73t29.5 -70q0 -6 3 -23.5t7.5 -38t7.5 -39t5 -24.5z" />
<glyph unicode="r" horiz-adv-x="1128" d="M68 51q0 2 5 12.5t9 14.5q16 23 44 31t56 8q18 0 29 -2q23 18 37 51q-4 12 -4 41q0 31 4 43q2 18 11 33.5t9 35.5v11l-14 28v35q-4 33 -9 64.5t-5 66.5l14 86l-2 45q0 14 2 21q6 37 6 76q0 35 -6 75q-2 14 -2 29q0 14 -4 27q-20 39 -51 61q-14 12 -30.5 15.5t-34 5.5 t-32 7t-24.5 23q-2 2 -2 4v5q0 23 21.5 27.5t37.5 6.5h49q16 2 35 9.5t37 7.5h8q6 0 6 -2q2 0 13.5 -7.5t15.5 -7.5h49l78 -6q2 -2 8 -2h12q18 0 30.5 4t33.5 4q43 0 88 -4t88 -16q29 -8 54.5 -13.5t49 -13.5t44 -21.5t38.5 -37.5q14 -20 22.5 -34.5t13.5 -28t6 -31t1 -43.5 q0 -25 -6 -46.5t-24 -39.5q-4 -4 -13.5 -14.5t-20.5 -21.5l-21.5 -21.5l-14.5 -14.5q-4 0 -15.5 -2t-13.5 -6q-2 0 -11 -4t-18.5 -9.5t-17.5 -9.5t-10 -4q-12 -4 -28.5 -6t-16.5 -18q0 -31 17.5 -66t39.5 -53q4 -2 12.5 -8.5t10.5 -6.5l8 -8q2 -2 10 -14t13 -14 q2 -2 16 -17.5t18 -19.5q2 -2 8.5 -14.5t13.5 -27t13 -27.5t8 -15q0 -2 6.5 -10.5t14.5 -19.5t16 -20.5t13 -15.5q14 -16 27.5 -26.5t29.5 -22.5l57 -43l74 -8q6 0 16.5 -5t20.5 -13.5t17 -17.5t7 -17q0 -4 -6 -15.5t-15 -23t-18.5 -20.5t-17.5 -9h-98q-14 10 -39 15t-41 8 h-86q-47 16 -69.5 48.5t-39.5 78.5q0 2 -4 11t-16 25l-8 35q0 8 -6 15q-6 10 -19.5 28.5t-26 36.5t-21.5 32.5t-11 16.5l-86 94q-16 16 -37 26.5t-43 10.5q-12 0 -15 -8q0 -4 1.5 -10t1.5 -14t-1.5 -15.5t-1.5 -9.5l-6 -31v-84q0 -4 -3 -16t-5 -19q0 -25 6 -41t17 -38 l-9 -37q0 -23 15.5 -27t35 -7t35 -11.5t15.5 -38.5q0 -18 -10.5 -26.5t-23.5 -12.5t-29.5 -5t-28.5 -1h-138q-6 0 -22 -2t-34.5 -4.5t-35 -4.5t-22.5 -4q-12 -10 -19.5 -12t-17.5 -2q-18 0 -29.5 7t-25.5 16q-2 0 -11.5 2t-11.5 4l-12 12t-8 10zM418 709q2 -4 4 -15.5 t2 -13.5q6 -23 7 -50.5t24 -41.5q23 -16 39 -22.5t47 -6.5q4 0 11 3t9 3l66 43q14 10 36.5 19.5t26.5 29.5q0 4 3 32t5 42v8q0 53 -19.5 104.5t-60.5 88.5q-14 12 -27 23.5t-34 11.5h-16l-72 -6q-31 -23 -38 -50.5t-7 -62.5v-88q0 -4 -2 -19.5t-4 -23.5v-8z" />
<glyph unicode="s" horiz-adv-x="849" d="M98 168q0 23 5.5 44t27.5 21h10q41 -16 58 -57l6 -29l7 -7t9 -7l12 -8q2 -2 7.5 -14.5t9.5 -14.5q2 -2 6 -7t8 -7q8 2 25 2q14 0 28.5 -3t24.5 -13q27 -6 53 -7q27 0 56 7q12 2 29.5 21.5t32.5 44t26.5 47t11.5 32.5v14q0 6 -1 15.5t-2 19.5t-2 18.5t-1 10.5 q-2 2 -8.5 10t-6.5 12q-10 16 -14 35t-22 29q-2 2 -11.5 4t-9.5 4q-2 0 -11 9t-11 12q-4 4 -20.5 14t-22.5 14q-4 4 -21.5 12.5t-21.5 10.5t-15.5 11t-13.5 11q-25 16 -43.5 25.5t-33.5 18.5t-29.5 22.5t-30.5 40.5q-4 6 -11.5 18t-13.5 23.5t-12 20.5t-6 11q-2 2 -5.5 13.5 t-3.5 15.5v143l3 11q4 10 7 24.5t7 28.5t6 23q8 33 21.5 36.5t35.5 20.5q2 2 13.5 13t23.5 23.5t22.5 22.5t12.5 15q8 6 23.5 9t19.5 5q68 20 139 20h35q6 0 23.5 -1t37 -2t37 -2t23.5 -1q10 -4 25.5 -14t29 -24.5t23.5 -32t10 -31.5q-2 -2 -4 -13.5t-2 -15.5v-57 q-2 -4 -7 -26.5t-10 -31.5q-2 -8 -18 -8h-25q-10 4 -17 21.5t-11 23.5l-17.5 17.5t-17.5 19.5q-2 0 -8 2t-8 4q-14 8 -16.5 24.5t-18.5 27.5q-4 2 -16.5 6t-27 8t-26.5 8l-18 6h-35q-4 -4 -12.5 -12t-17.5 -17.5t-17 -17.5l-10 -10q-16 -20 -19.5 -50t-3.5 -53 q0 -41 19.5 -68.5t46.5 -60.5q10 -14 23 -19t26.5 -8t26 -5t24.5 -11q4 -4 21.5 -19t21.5 -17q4 -4 21.5 -14.5t23.5 -14.5q2 -2 13.5 -7t15.5 -7q0 -2 4 -8.5t16 -28.5l57 -58l23 -14q16 -12 19.5 -35.5t3.5 -46.5v-76q-6 -10 -7.5 -21t-1.5 -22v-37q0 -4 -3 -14t-5 -14 q0 -4 -9 -15.5t-11 -13.5q-2 -4 -4 -15t-5 -14l-6 -22q-4 -4 -14 -15.5t-21.5 -23.5t-21.5 -23.5t-14 -15.5t-11.5 -9t-11.5 -7q-4 0 -25.5 -2t-25.5 -4q-29 -6 -56.5 -23.5t-58.5 -19.5q-2 0 -22.5 -1t-32.5 -1l-53 2q-4 2 -17.5 7t-17.5 7q-29 10 -58.5 11t-58.5 18 q-29 16 -53.5 51t-24.5 69v23z" />
<glyph unicode="t" horiz-adv-x="1241" d="M637 14q-25 0 -38 -11t-36 -11q-12 0 -24.5 4t-26.5 4q-29 -4 -51.5 -9t-44.5 -5h-25q-6 8 -6 20q0 27 12 43q4 4 15.5 14.5t15.5 14.5q14 12 27.5 15l27 6t27.5 10.5t31 25.5q2 2 5 7t3 8v106q-20 51 -21 102v13l13 45q0 2 -6.5 16t-6.5 19v22l9 64q0 10 -4.5 17 t-4.5 17l21 43q0 4 -7 14.5t-12 14.5v129l-10 23v129q0 12 -12 16t-29.5 5t-36.5 1q-18 0 -28 4q-4 2 -20.5 9.5t-28.5 7.5q-14 0 -23.5 -6.5t-18 -13.5t-17.5 -14t-21 -9q-2 0 -12.5 -1t-20.5 -3t-19.5 -3.5t-11.5 -1.5q-6 0 -14 -4q-4 -2 -8 -2q-4 -4 -15.5 -14t-13.5 -14 t-4 -15.5t-2 -13.5l-17 -16q-6 0 -10 -2q-2 -2 -6 -3q-2 0 -4 -2q-6 -4 -26.5 -23.5t-26.5 -25.5q-10 0 -18.5 7.5t-14.5 13.5v51q0 20 2 53t10 64.5t25.5 54.5t48.5 23l78 -11q8 0 21.5 1t15.5 1t13 3t50 3q29 4 59.5 9.5t59.5 5.5q16 0 31.5 -4t33.5 -4l72 8h17 q18 0 28 -15h86q2 0 14.5 3.5t14.5 5.5h14q16 -4 49 -6.5t37 -2.5l15 -6q2 -2 4 -2h6q18 0 31.5 12.5t27.5 18.5q10 2 26.5 8t18.5 6h107q4 -4 11 -6t11 -2h51q2 0 15.5 -14.5t17.5 -20.5q20 -25 28.5 -45t8.5 -55q0 -4 -3 -11t-5 -12v-114q0 -4 -4 -5t-8 -1q-8 0 -11.5 1 t-11.5 5l-57 35q-4 2 -15.5 12t-24.5 21.5t-24.5 20.5t-15.5 11q0 2 -9.5 8t-11.5 6l-28 23q-8 4 -27.5 12t-21.5 8h-115q-4 -2 -6 -4l-8 -4q-6 -4 -16.5 -10t-23 -12t-21.5 -11.5t-11 -7.5q-8 -4 -8 -12v-16l4 -9q2 -4 4 -6q10 -43 16 -83t13 -83q6 -43 13 -85t7 -85v-114 q0 -4 2 -16.5t3 -27t2 -27.5t1 -17l-8 -101q0 -10 1 -25.5t4 -31.5t8 -29.5t16 -19.5q6 0 18 -4t25.5 -9.5t26 -9.5t16.5 -6q23 -8 34 -18.5t11 -34.5q0 -35 -30 -48.5t-60 -13.5h-19l-22 15h-56q-4 0 -15 4t-24.5 7t-25.5 7t-14 4h-27v0z" />
<glyph unicode="u" horiz-adv-x="1325" d="M211 317q0 4 -2 18.5t-4 33t-4 36t-4 27.5v14l14 43v160q-4 10 -5 14.5t-1 8.5v26q-6 53 -20.5 102.5t-30.5 100.5q-12 14 -31 23.5t-27 25.5t-23.5 26.5t-29.5 16.5t-24.5 13.5t-10.5 17.5q0 25 21.5 31t44.5 6h37q2 0 10 3t12 3q8 2 35 4t37 2h14q6 0 11.5 1t9.5 1 q8 0 21 -1t15 -1l95 -6q4 0 19.5 2t33.5 4t34.5 5t20.5 3h2q29 0 46.5 -18.5t17.5 -42.5q0 -18 -14.5 -30.5t-36 -20.5t-44 -15.5t-36.5 -15.5q-8 -10 -22.5 -26.5t-14.5 -18.5q-2 -2 -4 -20.5t-2 -22.5l-9 -29v-223l9 -29v-108q2 -23 8 -40.5t6 -37.5l-8 -80q2 -4 4 -9 t4 -5q4 -6 23.5 -25.5l25.5 -25.5q2 0 8.5 -3.5t8.5 -5.5t12 -9t22.5 -15t22.5 -15.5t14 -9.5q41 -29 78 -29.5t88 -7.5q16 -2 31.5 -8t32.5 -6l45 8l57 -8q31 10 49.5 26.5t44.5 39.5q16 14 17 38q0 8 1 16.5t5 24.5q16 23 17 46.5t18 46.5v104q0 33 11 61.5t11 63.5v22 q0 12 -4 29q0 27 -1 48.5t-2 45t-3 51t-2 66.5q-6 16 -11.5 34.5t-21.5 29.5q-4 4 -20.5 11t-22.5 11q-14 6 -40 12.5t-50.5 14.5t-43 21.5t-18.5 33.5q0 45 38 54.5t77 9.5h51l37 -9h174q2 -2 13.5 -4t15.5 -4q6 0 20.5 -2t32 -4t32.5 -4t21 -2q12 -4 14.5 -12.5t2.5 -18.5 v-4q0 -23 -14.5 -30t-30.5 -23l-15.5 -15.5l-23.5 -23.5l-23.5 -23.5t-15.5 -17.5q-14 -12 -31.5 -34.5t-19.5 -43.5l-23 -203q-8 -14 -8 -30l2 -35q0 -2 -1 -11.5t-3 -20.5t-3 -21.5t-1 -12.5q-2 -49 -2 -88t-5 -74.5t-19.5 -71.5t-45.5 -75l-28 -29q-4 -4 -12.5 -13 t-17.5 -19.5t-18.5 -19.5t-15.5 -13q-10 0 -22.5 -1t-16.5 -5q-2 -2 -8 -8.5t-13.5 -14.5t-13.5 -14t-8 -6q-4 -4 -20.5 -12.5t-22.5 -10.5q-4 -2 -21.5 -4t-21.5 -2q-2 0 -11 -4t-20.5 -7t-21.5 -7.5t-12 -4.5q-8 -2 -17 -2h-24q-39 0 -64.5 10.5t-58.5 14.5h-45 q-23 2 -48.5 10t-45.5 19q-14 6 -41 19t-31 15q-2 2 -7 9.5t-11.5 15.5t-11.5 16.5t-5 10.5q-18 23 -36.5 41t-29.5 45z" />
<glyph unicode="v" horiz-adv-x="1052" d="M274 543q-2 4 -8 14t-6 12q-2 4 -4 17.5t-2 17.5q-2 4 -11.5 14.5t-9.5 12.5q-2 4 -7 20.5t-5 20.5q-2 4 -10 20.5t-10 20.5q-10 18 -13.5 38.5t-9.5 41.5q-10 33 -18 65.5t-21 61.5q-2 4 -10 8t-10 6q-18 8 -41 13t-43.5 13.5t-33.5 22.5t-13 41q0 23 17.5 33t37.5 10 h14l29 -4h31q27 0 43 -8q8 0 29.5 1t43.5 1q23 0 43.5 -1t30.5 -1q4 0 23.5 -2t29.5 -4q4 0 14.5 -3.5t12.5 -5.5q8 0 19.5 -1t22.5 -3t18.5 -8t7.5 -18q0 -23 -12.5 -33t-26.5 -23q-10 -10 -33 -32.5t-23 -34.5q0 -18 10.5 -38t16.5 -38q8 -16 20.5 -46t12.5 -32 q4 -4 5 -24.5t3 -24.5q2 -2 7 -12t5 -15q4 -4 9.5 -19t5.5 -20l6 -40q8 -29 20.5 -54.5t20.5 -54.5q2 -4 7 -24.5t7 -28.5q2 -12 4 -24.5t6 -22t12.5 -15.5t24.5 -6q14 0 24.5 1t22.5 11q2 6 9.5 18.5t15.5 26t14 26.5t8 20q0 2 2.5 12t4.5 22.5t4 23.5t2 13q8 31 24.5 56.5 t30.5 52.5q0 2 2 9t4 11q0 4 6 26.5t8 27.5q0 4 2.5 9t4.5 5q0 2 6 3t8 3q0 4 2 18.5t4 16.5q4 29 18.5 65.5t14.5 65.5q0 14 -1 22.5t-5 12.5t-12.5 7t-20.5 7q-29 10 -49.5 26.5t-20.5 45.5v10q0 4 2 6q2 4 15.5 14.5t17.5 12.5h6q2 0 4 1t4 1l89 -8q29 0 31.5 7t19.5 7 q10 0 20 -5t21 -9h108q6 0 23.5 -2.5t23.5 -6.5q8 -2 9 -16v-6q0 -23 -16.5 -38t-38 -28.5t-45 -25t-38.5 -25.5q-23 -23 -32 -51.5t-19 -56.5q-2 -2 -8 -13.5t-6 -13.5l-6 -41q-4 -2 -15.5 -7t-13.5 -5q-2 -2 -6 -14.5t-10.5 -27t-11.5 -28.5t-7 -18t-6 -17.5t-6 -17.5 q-2 -2 -7 -12.5t-7 -14.5l-5 -53l-14 -27q-2 -2 -4 -14t-2 -14q-4 -12 -14.5 -22.5t-14.5 -24.5q0 -2 -3 -18.5t-3 -20.5q-2 -2 -7 -10.5t-5 -10.5q-10 -16 -12 -28.5t-9 -30.5q-2 -4 -8 -17.5t-6 -17.5q-6 -14 -9 -27.5t-11 -27.5q-2 0 -7.5 -8.5t-5.5 -10.5 q-4 -4 -11 -29.5t-9 -29.5q0 -4 -7.5 -11.5t-7.5 -9.5l-4 -8t-2 -6q-2 -4 -4 -24.5t-2 -24.5q-2 0 -8 -9.5t-10 -13.5q-12 -23 -22.5 -33t-41.5 -10q-16 0 -34.5 9.5t-26.5 23.5q0 2 -4 19q-2 8 -2 14q0 4 -9.5 21.5t-11.5 21.5q-8 16 -8 26t-6 33q-10 45 -25.5 89t-34.5 85 l-20 43q0 2 -2 19.5t-4 21.5q0 2 -2 4q-4 4 -4 7q-2 4 -10.5 14t-10.5 12q-4 12 -5 23.5t-3 21.5t-7 18.5t-18 12.5v33z" />
<glyph unicode="w" horiz-adv-x="1484" d="M377 184q-25 37 -33 72t-14 67.5t-15.5 65.5t-35.5 68l-23 94v43q0 2 -12.5 21.5t-16.5 27.5l-22 29v57q0 6 -12.5 26.5t-14.5 24.5q-16 29 -25.5 61.5t-21.5 61.5q-6 14 -11 21.5t-14.5 11.5t-24.5 6t-42 6q-16 4 -29.5 10.5t-13.5 22.5q0 23 9 39t20 33l59 10h22 q33 -10 68 -17.5t70 -7.5q29 0 50 8.5t46 8.5q6 0 29.5 -2t27.5 -4q12 -10 27.5 -15.5t15.5 -21.5q0 -31 -20 -62q-8 -10 -26.5 -18t-22.5 -17l2 -36q4 -27 11 -68t13 -57l25 -25q20 -41 25.5 -92t15.5 -94l37 -66q4 -8 6 -22.5t6 -28.5t10 -24.5t19 -10.5q12 0 22 10.5 t17.5 23.5t12.5 26.5t9 19.5q0 2 9.5 11.5t13.5 11.5q14 18 19 41.5t10 48t15.5 46t32.5 36.5l3 47q0 10 -1.5 27.5t-1.5 19.5l-14 35q-4 12 -5 25.5t-3 29.5q-2 10 -3 23.5t-5 23.5q-10 20 -25.5 26.5t-34 10.5t-35 13t-26.5 40v10q0 10 2 22.5t8 16.5q12 8 33.5 9.5 t42.5 1.5h37q2 0 27.5 -7.5t39.5 -7.5l90 23l97 -17q10 0 20 4.5t25 4.5q59 0 59 -54q0 -31 -19.5 -41t-45 -14t-53 -6t-42.5 -17v-16q0 -12 4.5 -19.5t9.5 -13.5t10 -14t7 -21v-71q0 -4 7.5 -32t18.5 -65.5t23.5 -80.5t23.5 -80t18 -62.5t10 -25.5q6 -6 10 -7t8 -1 q8 0 13 1t14 7q0 2 2 7t4 9q16 47 45.5 88t46.5 88q2 4 4 18.5t2 18.5q10 29 19.5 46.5t15.5 39.5l6 51q14 27 33.5 52.5t19.5 60.5q-2 27 -15 39t-29.5 18t-34 11.5t-25.5 15.5l-6 24q0 18 18 37q2 4 8 7.5t33 3.5h27q10 0 34 -5q37 0 63 3.5t50 5.5q6 0 20.5 -2t18.5 -2 l59 2q20 0 27 -7q4 -6 10 -7t8 -9v-12q0 -23 -6 -34t-10 -17q-8 -8 -26.5 -15.5t-40 -14.5t-41 -18.5t-27.5 -25.5q-23 -33 -38 -63.5t-27.5 -61.5t-26 -61.5t-31.5 -63.5q-20 -39 -38.5 -72.5t-18.5 -81.5l-17 -20q0 -14 -8 -42t-18 -38l-17 -41l-37 -78q-10 -23 -15 -39 t-10 -30.5t-13.5 -29.5t-24.5 -36q-12 -18 -15 -35.5t-9.5 -30t-17.5 -20.5t-38 -8q-20 0 -30.5 3t-16.5 10t-12 18.5t-17 25.5q2 10 2 31q0 53 -19.5 95t-23.5 93l-8 84q-2 12 -11 36t-20.5 48.5t-24.5 43t-22 18.5q-12 0 -22 -7.5t-15 -15.5q-2 -4 -8 -18.5t-6 -18.5 q-12 -51 -31.5 -89t-42.5 -81l-20 -30q0 -2 -2 -8.5t-4 -8.5q0 -4 -4 -24.5t-6 -24.5q0 -2 -9.5 -14t-11.5 -15q-10 -25 -14 -55.5t-13.5 -56t-28 -43t-59.5 -17.5q-18 0 -31.5 5.5t-17.5 31.5l-16 129v0z" />
<glyph unicode="x" horiz-adv-x="1118" d="M72 29q-10 6 -15 20q0 2 6 8q16 10 45 25.5t50 26.5q45 20 76.5 54t66.5 68q4 0 12.5 6.5t10.5 6.5l29.5 29.5t27.5 29.5q8 8 9 21.5t5 21.5q2 0 4 2l4 4q20 16 50 44t30 55q0 23 -17 37t-28 30q0 2 -3 10.5t-7 16.5t-7 15t-3 9q-8 16 -14.5 19.5t-22.5 17.5 q-6 4 -25.5 23.5l-25.5 25.5q0 2 -6.5 11.5t-8.5 11.5l-20 22l-8 41q0 2 -6.5 11.5t-8.5 11.5q0 2 -3 10t-3 12q-12 29 -23.5 35t-27.5 23l-10 10t-18.5 17.5t-18.5 18.5t-10 11q-16 14 -41 14q-23 0 -39 15q-4 4 -12.5 12t-8.5 10v58l2 2l4 4l23 14q2 4 7 6t7 2 q29 2 57.5 3t57.5 1h57q29 0 58 -4q4 -2 18 -5t19 -3q4 0 19 -1t33.5 -2t35 -2t20.5 -1q37 -4 37 -37q0 -16 -9 -28.5t-20.5 -24.5t-20.5 -24.5t-9 -30.5q0 -43 28 -78l45 -43q2 -4 3 -22.5t3 -22.5l29 -29q2 0 5 -1t14 -1q14 0 24 2q4 2 19.5 4t17.5 4q2 0 7 5t7 10l15 43 q10 29 23.5 47t13.5 51v24l-9 15v43q0 4 -9 8t-19.5 12t-19.5 21.5t-9 36.5q0 4 1 10t7 6q23 -2 43 -2h45h43t41 2q27 10 60.5 12t62.5 2q2 0 9.5 -3t15.5 -5l16 -4t10 -2l21 2l22 -2q2 0 10.5 -9t10.5 -14q2 0 2 -6q0 -18 -14.5 -28.5t-34 -17.5t-39 -12t-29.5 -13 q-49 -39 -97 -81t-83 -93q-16 -23 -25.5 -52.5t-25.5 -48.5q-2 -4 -13.5 -15t-15.5 -16q-6 -6 -6 -16v-33l6 -14q4 -10 5 -25.5t9 -25.5q2 -2 14.5 -13.5t14.5 -15.5q4 -4 12.5 -14t10.5 -15l20 -43q4 -4 15.5 -18t13.5 -18q10 -12 14 -33t14 -31q4 -4 15.5 -12t13.5 -10 q16 -12 17 -28.5t12 -29.5l12 -8q4 -4 10 -6q16 -12 17 -16q0 -4 12 -21q16 -16 35.5 -29.5t36.5 -27.5q4 -2 9 -7.5t7 -7.5q0 -8 6 -14q4 -4 18.5 -12t18.5 -11v-4v-4q0 -2 2 -2q0 -10 -9 -16t-22.5 -10t-27 -5.5t-21.5 -1.5l-88 9q-20 0 -35.5 -4.5t-34.5 -4.5 q-12 0 -18 2.5t-12 5.5t-13.5 5t-23.5 2l-113 -8q-14 0 -20 9t-6 21q0 16 10 25.5t23.5 16.5t23.5 16.5t10 23.5q0 16 -13 36t-24 34q-2 4 -10 18.5t-12 16.5q-2 4 -17.5 18t-17.5 19q-8 14 -5 32.5t-18 24.5l-30 2q-8 0 -32 -1t-32 -7v-23q-4 -18 -14 -32.5t-21.5 -27.5 t-20.5 -29.5t-9 -39.5q0 -6 2 -8q0 -2 3 -13.5t3 -15.5v-28q0 -6 8 -6q8 -6 19.5 -10.5t21.5 -9.5t17.5 -12t7.5 -18q0 -16 -11.5 -25t-27 -13.5t-33.5 -5.5t-31 -1h-28q-72 2 -147.5 3.5t-147.5 11.5z" />
<glyph unicode="y" horiz-adv-x="1040" d="M553 14h-31q-18 0 -20 -2q-18 -2 -38 -9t-40 -7h-12q-4 2 -28 8t-34 8q0 2 -10 5t-12 3q-4 2 -23.5 4.5t-21.5 2.5q-10 4 -11 20q0 4 1 8t1 6q0 20 12.5 32.5t31 21t38 13.5t33.5 9q27 4 37 10.5t10 38.5q0 10 -4 22.5t-4 27.5q0 23 11.5 43t11.5 45q0 16 -11.5 26 t-11.5 29q0 10 4 20.5t4 22.5v2l-2 2q-8 27 -20.5 63.5t-24.5 65.5q-10 20 -26.5 35.5t-26.5 32.5q-23 35 -42.5 68.5t-41.5 62.5q-4 4 -16.5 16t-14.5 14q-2 4 -4 23.5t-4 23.5l-8 9q-4 4 -8 7t-7 5q-4 2 -16 13.5t-27.5 23.5t-29 23.5t-19.5 17.5q-4 2 -15 10t-15 14 q-14 8 -28.5 13.5t-27 11.5t-20.5 16.5t-8 30.5q0 29 30.5 34t57.5 5h26q4 0 15.5 -1t21.5 -1q12 0 22.5 -1t12.5 -1q2 -2 10 -5t10 -3q4 0 26 3t26 5h22q23 0 43.5 -8.5t42.5 -8.5l64 9q23 0 45 -8.5t22 -34.5q0 -8 -12 -22.5t-26.5 -32t-27 -33t-12.5 -23.5 q0 -23 17.5 -42t28.5 -36l38 -67q2 -4 4.5 -30t2.5 -34l26 -28q14 -23 15.5 -43.5t21.5 -30.5q6 -4 23.5 -14.5t21.5 -12.5h29q0 49 22.5 77t46.5 62q6 8 14.5 29t14.5 43.5t11 45t5 34.5q0 33 -14 56.5t-31 52.5q-2 4 -4 11t-2 11q0 20 7.5 30.5t23.5 20.5q12 12 29 13 l32 -3q2 0 17.5 4.5t19.5 4.5q2 0 16.5 -3t22.5 -6q2 0 4 -2q4 -4 11 -4q6 -2 14 -4q16 -2 34.5 -3t35.5 -1q16 0 31.5 1t31.5 3q8 -10 26.5 -19t18.5 -26q-2 -4 -4 -6q-2 -4 -4 -5t-2 -3l-6 -6q-4 -2 -17.5 -9.5t-29 -14.5t-28.5 -14t-15 -9q-4 0 -16.5 -14.5t-16.5 -16.5 q-2 -4 -18.5 -12.5t-20.5 -10.5q-12 -10 -19.5 -23.5t-17.5 -23.5q-2 -2 -14.5 -10t-16.5 -10q0 -2 -5 -15.5t-9 -17.5q-4 -2 -5 -14.5t-3 -14.5q-4 -4 -19.5 -19t-19.5 -20q-12 -16 -14.5 -38.5t-6.5 -38.5q-4 -4 -12 -21.5t-14 -21.5q0 -4 -12.5 -19.5t-16.5 -19.5 q-2 -2 -4 -12.5t-2 -12.5q-2 -10 -2 -18v-17v-28q0 -12 -1 -23.5t-7 -28.5q-2 -4 -6 -10l-9 -12q-4 -14 -5 -25.5t-1 -25.5v-17q0 -8 1 -22.5t2 -28.5t2 -26.5t1 -16.5q2 -2 4.5 -9t4.5 -11t7 -12.5t11 -17.5t11 -18.5t7 -11.5q8 -12 21.5 -19t27 -14.5t22.5 -17.5t9 -25 q0 -20 -6 -30.5t-17.5 -16.5t-25.5 -9t-31 -9l-14 -6l-31 6q-8 4 -31.5 10t-27.5 6q-2 2 -18 2h-25z" />
<glyph unicode="z" horiz-adv-x="1069" d="M608 35l-123 -17q-25 0 -46 11.5t-48 11.5q-29 0 -59.5 -4t-63.5 -4t-53 3t-51 7l-29 4q-16 6 -30.5 22.5t-14.5 36.5v15l78 78l37 61q10 14 16 10t19 13q14 18 21 37.5t18 35.5q31 43 34 95q51 39 88 75q35 35 58 66q8 23 15 44t18 42q4 12 17 24.5t21 24.5t7.5 24.5 t9.5 22.5l37 17q2 2 7 13t9 25.5t8 27.5t4 20q10 8 13.5 27.5t3.5 29.5q0 14 -22.5 23.5t-35.5 9.5q-16 2 -30.5 3t-28.5 1l-59 -4q-23 -12 -56 -13h-84q-31 -2 -60.5 -19t-56 -40t-51 -46.5t-43.5 -37.5l-12 -2q-10 0 -16 13.5t-8 23.5l98 207q4 14 18 24h11 q25 -8 29.5 -15t21.5 -15q45 -6 74.5 -7.5t68.5 -1.5q29 0 52.5 9.5t47.5 9.5q145 -29 291 -31q29 0 53.5 8t51.5 8q8 0 22.5 -2t27.5 -6t22.5 -12t9.5 -23l-2 -8q-25 -33 -46.5 -71.5t-46.5 -67.5q-29 -33 -49 -66.5t-33 -74.5l-77 -76l-21 -49l-49 -49q-39 -37 -52.5 -76 t-37.5 -80l-35 -39q-10 -25 -26.5 -44t-28.5 -36q-12 -20 -19.5 -40.5t-17.5 -43.5q-2 -2 -2 -4v-4q0 -29 21.5 -38t45.5 -11q29 -4 68 -7t68 -3q156 0 268 100q14 14 21.5 23.5t14.5 17.5t17 15t29 16q6 0 16 -7.5t13 -13.5q0 -8 -3.5 -21.5t-7.5 -21.5q-2 -90 -24 -186 q-12 -23 -37 -26t-53 -3q-74 0 -139.5 15.5t-131.5 15.5z" />
<glyph unicode="{" horiz-adv-x="813" d="M500 479l3 -15t3 -9q10 -47 22.5 -100.5t12.5 -92.5l-41 -233q-2 -12 -3 -19.5t-1 -15.5q0 -39 7 -74t11 -72q0 -2 4 -9t8 -9q12 -18 17.5 -39.5t11.5 -44t15.5 -43t29.5 -33.5q16 -10 37.5 -17t42 -16.5t34 -24.5t13.5 -40q0 -33 -31.5 -48.5t-58.5 -15.5 q-6 0 -12.5 5.5t-8.5 7.5h-41q-70 33 -113.5 68.5t-71.5 79.5t-40 99.5t-16 127.5q-2 8 -5 31.5t-6.5 51t-5.5 52t-2 32.5q-2 8 -2 25v41v205v43t2 29q0 2 -1 16t-3 31.5t-5 33t-9 19.5q-4 4 -6 7t-4 7q-10 14 -12.5 16.5t-6.5 12.5q-2 2 -2 10q0 10 -2 14q-4 14 -30.5 19.5 t-56.5 13.5t-54.5 25.5t-24.5 58.5q0 25 21.5 35t48.5 16.5t50.5 12.5t29.5 20l8 43q10 12 23.5 14.5t25.5 6.5t20.5 19t8.5 54q0 25 -12.5 38.5t-12.5 31.5l-4 23q0 -2 10 32q0 37 12.5 78t12.5 80q0 4 -6 16.5t-10 16.5l-9 217q0 20 39 82q14 25 25.5 48t13.5 44q0 2 2 5 t14.5 14.5t40 33t76.5 60.5q18 0 35 9t32 19t32.5 19.5t38.5 9.5q8 0 23 -4t31.5 -11.5t29 -16.5t12.5 -19q0 -12 -11.5 -22.5t-26.5 -18.5t-31.5 -14.5t-24.5 -12.5l-50 -49l-41 -6q-4 -4 -12 -23.5t-17 -41t-18.5 -39t-13.5 -19.5v-33q0 -16 2 -47t10 -47l15 -29 q0 -18 -2 -29.5t-4 -25.5q-2 -8 -3.5 -17.5t-1.5 -23.5q0 -10 1 -26.5t1 -18.5l9 -20v-152q-16 -14 -20.5 -28.5t-6.5 -28.5l12 -50q0 -29 -18.5 -68.5t-41 -76.5t-43 -63.5t-24.5 -30.5q23 -41 36.5 -62.5t23.5 -40t19.5 -39t21.5 -55.5z" />
<glyph unicode="|" horiz-adv-x="454" d="M174 -506v74q0 186 -12 364q-2 39 -8.5 78t-6.5 84l21 53q0 18 -10.5 33t-10.5 39q4 57 6.5 102.5t2.5 88.5q0 63 -6 135v121q-20 82 -21 161q0 47 4 89t14 94q-2 4 -8 20.5t-8 26.5l16 59q0 14 -8 31.5t-8 40.5l8 137l-18 406q0 10 4 26.5t22 20.5q33 6 54 6q23 0 37 -6 t26 -11q0 -4 3 -23.5t3 -29.5q4 0 6.5 -12t4.5 -25v-24l12 -56l-31 -163l19 -146l-11 -53q10 -35 12.5 -43t2.5 -12q0 -18 -2 -25.5t-13 -19.5q8 -10 14.5 -40t11.5 -66t7 -67.5t2 -43.5l-24 -168q0 -31 12 -66t12 -63q0 -39 -12 -80t-12 -76t9 -72t9 -74l-6 -45v-55 q0 -18 -1 -28.5t-1 -14.5v-6q4 -6 11 -35t13.5 -62.5t11.5 -63t5 -40.5l-19 -69q0 -23 4.5 -33t4.5 -23l-25 -168q0 -31 7 -57.5t9 -62.5q-12 -4 -12 -21v-4q0 -23 -10 -49.5t-62 -26.5q-20 0 -32.5 5t-22.5 34z" />
<glyph unicode="}" horiz-adv-x="808" d="M53 -477v4q0 4 18.5 17.5t45 29.5t56.5 34.5t50 33.5q2 14 14.5 24t27 21.5t25.5 24t11 32.5q0 6 -5 11t-5 18q0 10 4 17t16 24l-20 118q0 6 2 22.5t2 39.5q0 14 -2 30.5t-2 22.5l-15 74l9 53l-9 31q0 29 12.5 56.5t12.5 57.5l-10 37q0 43 21.5 78t48 62.5t48 50 t21.5 39.5l-18 18q-10 27 -15.5 44.5t-11.5 32.5t-17.5 30.5t-31.5 38.5q-20 63 -31.5 99t-17.5 53.5t-9 22.5l-2 5v2q0 2 1.5 5t1.5 9q0 12 -2.5 28.5t-8.5 43.5q0 41 9.5 71.5t33.5 59.5l2 53l-12 98l10 64q-12 27 -17 38t-5 42q0 10 2 16l-49 139l-111 54q-6 14 -15.5 17 t-17.5 4t-13 8.5t-5 31.5q0 25 18.5 44.5t38.5 19.5q66 0 116 -24.5t101 -59.5q14 -12 18.5 -21.5t22.5 -11.5q14 -18 35 -43t37 -52.5t28.5 -57t12.5 -58.5q0 -4 -1 -7t-1 -7q-2 -6 -2 -11l-17 -51q0 -47 17.5 -92t17.5 -92q0 -18 -13 -26.5t-13 -28.5q0 -8 1 -13.5 t7 -15.5v-109q-8 -6 -8 -20l26 -82l-6 -27q0 -4 -1 -20.5t-1 -26.5l2 -51q12 -6 17.5 -19.5t9.5 -28.5t10 -28.5t20 -19.5q29 -10 54.5 -11t44 -7.5t30 -24t11.5 -62.5q0 -29 -34 -38t-75 -24t-74.5 -49t-33.5 -112v-24q0 -4 2 -7q14 -8 16 -24.5t2 -34.5l-29 -178l17 -248 v-49q-14 -16 -21.5 -28.5t-11.5 -24t-7 -24.5t-9 -34q-12 -35 -34 -56.5t-45.5 -34.5t-44 -25.5t-30.5 -28.5l-86 -25q-2 -6 -15.5 -13t-28.5 -14.5t-29.5 -11.5t-18.5 -4q-8 0 -20.5 7.5t-22.5 16.5t-18.5 20.5t-8.5 21.5z" />
<glyph unicode="~" horiz-adv-x="1277" d="M180 588q0 51 29 76.5t65 56.5q2 0 10.5 9t10.5 11q6 4 16.5 11.5t21.5 14.5t19 13t10 6h37q2 0 11.5 1t19.5 3.5t20.5 5.5t14.5 5q4 0 23.5 4t21.5 4q4 0 18.5 -3t33 -6t36.5 -7.5t29 -6.5q18 -4 26.5 -10t16.5 -11t19 -9t36 -4q70 0 137.5 34.5t118.5 79.5h55 q8 0 10.5 -13t2.5 -24v-6q0 -23 -1 -29t-12 -30q-16 -41 -31.5 -66.5t-37 -42t-51 -28t-72.5 -23.5q-41 -10 -63.5 -22.5t-69.5 -12.5h-62q-20 2 -35.5 10.5t-32 16.5t-35 14t-42.5 6q-41 0 -76 -4t-74 -20q-16 -6 -30.5 -17.5t-29.5 -22.5t-31.5 -19.5t-37.5 -8.5 q-20 0 -32.5 24t-12.5 40z" />
<glyph unicode="&#xa1;" horiz-adv-x="569" d="M391 1409q0 -35 -8 -67.5t-37 -55.5q-6 0 -26.5 -1t-26.5 -1q-51 0 -92 22.5t-41 82.5q0 66 28.5 96.5t96.5 30.5h22q14 0 28.5 -2.5t20.5 -12.5q4 -8 17.5 -33.5t17.5 -33.5v-25v0zM379 909q0 -12 -1 -45t-3 -69.5t-4 -68.5t-2 -44q-12 -4 -13 -20v-11q0 -33 15.5 -64.5 t19.5 -64.5v-149q0 -4 5 -17.5t5 -15.5q4 -12 8.5 -39t4.5 -31v-96v-96q-6 -20 -26.5 -46t-41.5 -26q-4 0 -24.5 7t-24.5 7q-2 0 -10 -5t-11 -9h-10h-12q-23 16 -51.5 40t-38.5 54q-2 2 -3 12.5t-1 22.5v23v16v41q0 29 4 33q0 6 3 27.5t7 46t7 47t5 28.5q0 4 -1 32t-1 50 q0 27 2 31q0 8 3.5 29.5t5.5 27.5v422q0 8 2 25.5t4 36t4 34t4 19.5q4 16 18.5 30.5t32.5 14.5h6q59 -41 86 -90t27 -125v-25z" />
<glyph unicode="&#xa2;" horiz-adv-x="1179" d="M215 -203q16 35 33.5 71t36.5 77q8 16 10 32.5t4 20.5q0 12 6 19.5t12.5 13.5t11.5 11t5 15q0 29 -17.5 54.5t-42 48t-51 44t-43.5 42.5q-2 35 -12 69.5t-20.5 68.5t-19.5 67.5t-9 68.5q0 14 12 19q2 14 2 30v33q0 47 5 95t34 91q2 0 20.5 21.5t40.5 48.5l58 70 q18 53 58 78.5t89 40t102.5 24.5t97.5 29.5t71.5 55.5t27.5 104v16l21 20l61 138q2 8 15 8q47 0 72.5 -16.5t25.5 -51.5v-28l-90 -232q0 -8 30.5 -29.5t68.5 -55.5t68.5 -76t30.5 -89q0 -10 -8 -23.5t-18 -25.5t-21.5 -22.5t-17.5 -12.5q-25 -10 -42.5 -12t-29.5 -2 q-43 0 -50 21.5t-7 54.5q0 29 -7.5 53.5t-50.5 36.5q-12 -27 -27.5 -62.5t-30.5 -72.5t-27.5 -73t-20.5 -60v-35q-2 -4 -5 -15.5t-5 -13.5q-45 -74 -80 -152.5t-35 -171.5q0 -27 13.5 -42t33 -22t43 -8t43.5 -1h41l6 14l131 72q8 2 21 26l119 93q10 10 15 11t17 1 q25 0 39.5 -15.5t14.5 -39.5q0 -16 -11.5 -33t-26 -33t-28.5 -33.5t-20 -38.5q-43 -35 -73 -64.5t-60.5 -52t-67.5 -41t-90 -30.5q-12 -2 -45 -14.5t-54 -14.5q-27 0 -47 10.5t-43 10.5t-42 -12.5t-34.5 -30t-26.5 -38t-13 -36.5v-53q-4 -10 -16.5 -33t-29 -45.5t-35 -38.5 t-32.5 -16h-8zM375 399q10 -4 16 -5t12 -1q31 0 41.5 13.5t13.5 31t8 34.5t26 24q4 8 9 35.5t5 52.5q12 27 30.5 67.5t36 85.5t28.5 86t11 66q0 12 -18.5 15t-38.5 3h-33q-51 0 -87 -22.5t-58.5 -59.5t-32.5 -82t-10 -90q0 -25 10 -41t10 -39l-14 -59q0 -31 12.5 -57.5 t22.5 -57.5z" />
<glyph unicode="&#xa3;" d="M553 334q0 2 -5 7t-9 5q-8 4 -33 8t-33 8h-158q-29 8 -35 18.5t-6 37.5v20q0 27 15 39q6 6 26.5 21.5t24.5 19.5q8 2 31.5 6t48 8.5t47 8.5t31.5 4h30h11q4 0 23.5 15t29.5 24q4 4 14 13t10 11q4 8 14.5 28.5l21 41t19.5 39t13 24.5q0 4 4 19.5t8 33t8.5 33t4.5 19.5 q2 2 8 14t12 26.5t12.5 26t6.5 13.5q2 6 12 35.5t21.5 62.5t20.5 62.5t13 35.5q2 4 12.5 20.5t14.5 20.5q23 47 40 98.5t40 98.5q2 4 12 20.5t12 20.5q4 4 9.5 14t5.5 12q2 4 6 32t6 32t13 15.5t25.5 24.5t26 24.5l15.5 15.5q2 4 12 26.5t14 26.5q2 4 18.5 20.5l20.5 20.5 q4 2 13.5 24.5t11.5 26.5l106 107q2 2 12.5 6t12.5 6q4 0 9 6t7 6q35 29 70 46.5t76 50.5q66 23 129 22q35 0 66.5 -4t66.5 -8q16 -12 31 -23q12 -10 25 -18t22 -15q2 0 6 -5t6 -7q8 -8 19.5 -21.5t21.5 -25.5q12 -14 26 -31v-26q0 -27 -1 -46.5t-11 -45.5 q-6 -12 -29.5 -23.5t-52 -21t-55.5 -15.5t-37 -6q-29 0 -50.5 13.5t-40.5 29.5t-37.5 30.5t-41.5 18.5q-2 0 -20.5 1t-28.5 1q-8 0 -24.5 -1t-18.5 -1q-4 0 -19.5 -11t-19.5 -15q-39 -23 -73.5 -70t-57.5 -86q-6 -12 -19.5 -35.5t-25.5 -46t-21.5 -42t-11.5 -24.5 q-18 -35 -18 -63q0 -29 -11 -70q0 -2 -4 -9t-8 -15t-8 -16.5t-6 -10.5q0 -2 -2 -11t-4 -20.5t-4 -21.5t-2 -12q-2 -4 -12.5 -19.5t-14.5 -19.5q-29 -53 -43 -103.5t-37 -105.5q-23 -66 -44 -128.5t-21 -133.5v-15q0 -10 2 -18t12 -10h78q53 0 89 7t87 7q12 0 31.5 -3 t38 -11.5t32 -20.5t13.5 -31q0 -23 -24 -50t-42 -44q-23 2 -42 3t-42 1q-66 0 -130.5 -8t-129.5 -20l-15.5 -15.5t-23.5 -24t-23.5 -23.5t-15.5 -17q-4 -4 -13 -23.5t-20.5 -42t-21.5 -42t-12 -25.5q0 -2 -6.5 -9.5t-12.5 -15.5l-12 -16t-8 -10q-2 -4 -6.5 -19.5t-6.5 -19.5 q-2 -6 -11 -25.5t-20.5 -41t-22.5 -41t-13 -23.5q0 -4 -6.5 -18.5t-12.5 -30t-11 -29t-7 -15.5q-4 -10 -14.5 -30.5t-12.5 -24.5q-12 -16 -33.5 -31.5t-21.5 -40.5v-4q0 -2 4 -2q18 -27 43 -44t59 -21h68h25q10 0 25.5 -1t31.5 -4t29.5 -11.5t19.5 -22.5q8 0 28.5 -3t44 -5 t44 -4.5t29.5 -2.5h45q53 0 97 4.5t80 19.5t65.5 44t54.5 78q10 18 12 38.5t2 41.5v18q0 31 -6 53.5t-17.5 43t-26 40t-30.5 41.5q-6 8 -15.5 21.5t-17.5 26t-14 22.5l-6 10q-2 4 -2 10v13q0 20 3 32.5t25 12.5q0 -2 2 -2h5q2 -2 6 -2q2 0 12 -6.5t22.5 -14.5t24.5 -16 l21 -14q0 -2 5 -6.5t9 -6.5q6 -8 20.5 -29.5t31.5 -44t31.5 -43t20.5 -28.5q0 -4 1 -15.5t3 -24.5t3.5 -24.5t1.5 -17.5q0 -8 1 -20.5t1 -24.5t1 -22.5t1 -12.5q0 -12 -4.5 -32.5t-9.5 -41t-9 -37t-4 -18.5q-2 -4 -13.5 -17.5t-24.5 -28.5t-25.5 -28.5t-14.5 -15.5 q-4 -4 -13 -20.5t-13 -20.5q0 -2 -4.5 -10.5t-9.5 -16.5t-9 -15t-6 -9q-2 -4 -17.5 -8.5t-19.5 -6.5q-4 0 -15.5 -6t-23.5 -12t-24.5 -12t-14.5 -9q-4 0 -14 -2t-21.5 -4t-20.5 -4t-11 -2q-2 -2 -12.5 -7t-14.5 -9q-4 0 -28.5 1t-47.5 1q-25 0 -28 -2q-2 0 -10.5 -2 t-16.5 -4t-15.5 -4t-9.5 -2q-6 2 -28.5 14t-26.5 14h-55h-23q-45 10 -88 26.5t-85 31t-86 24.5t-93 10q-4 0 -9 -1t-9 -1h-11q-4 0 -15 -18.5t-13 -20.5q-35 -51 -81 -84.5t-110 -33.5h-31q-6 4 -26.5 13t-28.5 13q-8 6 -23.5 21.5t-15.5 19.5q-10 37 -10 68q0 29 10 63 q0 4 15.5 17.5t23.5 21.5q6 4 18.5 12.5t24.5 16.5l22.5 15t14.5 7q4 2 19.5 5.5t34 5.5t33.5 3t19 1q2 2 12.5 7t12.5 5q2 2 12.5 5t20.5 8t20.5 9.5t12.5 6.5q2 0 6 10t8 14q20 49 40.5 97.5t37.5 99.5q12 37 20 73.5t19 71.5q18 51 36.5 98.5t18.5 100.5v39z" />
<glyph unicode="&#xa4;" horiz-adv-x="1157" d="M100 401q0 12 15.5 37t37 50.5t42 48t32.5 28.5v15q0 2 3 13t3 15q-6 37 -28.5 79t-22.5 95v78q6 6 16.5 27.5t18.5 46t14.5 47.5t6.5 33q0 12 -12.5 27.5t-29 32t-31.5 29.5t-22 23q-4 2 -12 11.5t-18.5 21.5t-19.5 23.5t-11 15.5q8 37 38 54.5t60 17.5q25 0 36 -16.5 t36 -18.5q12 -31 38.5 -68t67.5 -37h15q45 20 102 45t111 25h16q12 0 14 -2q4 -6 29 -17.5t55.5 -20.5t58 -16t40.5 -7q33 0 52 23.5t38 37.5l84 76h35q4 0 20 -18.5t21 -28.5q0 -2 1 -16.5t1 -18.5l-2 -35q-6 -16 -29 -23.5t-35 -17.5q-4 -4 -15.5 -16.5t-23.5 -28.5 t-21.5 -30.5t-11.5 -20.5v-2q0 -18 11.5 -40t25 -43.5t24.5 -45t11 -47.5l-12 -109q-2 0 -6 -10t-7.5 -23.5t-6.5 -25.5t-5 -17l-15 -12t-7 -6q-8 -6 -8 -21q0 -20 6 -46.5t14 -24.5l35 -15q23 -14 42 -47.5t36 -64.5q8 -10 8 -17q0 -23 -24.5 -46t-47.5 -23q-12 4 -30.5 11 t-18.5 9l-115 109q-4 2 -12 5t-14 3h-2q-25 -4 -48.5 -14.5t-47 -21.5t-50 -19t-57.5 -8q-4 0 -9 1t-10 11h-14q-51 0 -91 10t-73 25q-23 10 -23.5 17t-17.5 7q-12 0 -30.5 -22.5t-44 -50t-56 -50t-65.5 -22.5q-25 4 -41.5 23t-16.5 44zM430 602l27 -29q20 -4 41 -10 q16 -4 32.5 -9t26.5 -7h25q78 0 132 29.5t91 101.5q4 8 23.5 34.5t27.5 39.5l-10 51l10 43v14q-10 25 -21.5 43.5t-23.5 33.5t-25.5 31.5t-25.5 37.5q-2 2 -4 5t-4 3q-39 6 -64.5 23.5t-71.5 37.5q-12 -2 -38.5 -7t-56 -11t-55.5 -11.5t-36 -7.5q-18 -16 -32.5 -38.5 t-37.5 -32.5l-57 -125v-103q6 -4 18.5 -21.5t25.5 -39t22.5 -41t9.5 -25.5z" />
<glyph unicode="&#xa5;" horiz-adv-x="1720" d="M504 147q0 16 10 32t27 16h86q2 16 22 16q27 0 31 2t14 2q16 0 28.5 14.5t20 34t10.5 39t3 29.5l2 51q0 35 -8.5 66.5t-47.5 31.5q-47 2 -72.5 4t-38.5 4.5t-17.5 3.5t-8.5 1q-27 0 -35 -4.5t-8 -8.5q-53 -6 -98 -6q-51 0 -100 6q-14 0 -16.5 17.5t-2.5 29.5q0 8 2 22.5 t7 28t13.5 23.5t22.5 10q31 0 49.5 -1t27.5 -2t11 -1h8h25q8 0 20.5 1t26.5 3q12 0 23 -6l69 15l56 -17q25 0 53.5 9.5t28.5 39.5q0 12 -2.5 41t-10.5 56.5t-21.5 49t-35.5 21.5q-4 0 -18.5 -9t-16.5 -9q-4 0 -23.5 2t-27.5 4q-2 0 -6 5t-4 7h-97q0 -12 -18 -12l-88 12 l-55 -12q-4 6 -14.5 20.5t-10.5 30.5q0 25 20.5 52.5t38.5 50.5q6 2 17 2q16 0 26.5 -5.5t26.5 -5.5h14q25 0 37 15h129q10 0 10 10q0 4 -14 22.5t-30.5 41t-33 43t-18.5 26.5q-16 37 -33.5 77t-44.5 71l-30 34l-21 35q-10 16 -28.5 40t-40 48.5t-43 45t-35.5 28.5 q-25 14 -56.5 16t-59.5 6.5t-46 20.5t-18 57q0 14 12 25.5t28.5 18.5t36 10.5t31.5 3.5q25 0 34 -11.5t30 -15.5q2 0 13 3t13 5l60 -8l53 27l137 -13l88 13q16 0 36.5 -4.5t39 -13.5t31 -25.5t12.5 -38.5v-15q-25 -16 -60.5 -34.5t-68.5 -18.5v-4q0 -45 19.5 -83t45 -73.5 t52 -71.5t39.5 -77l24 -19q10 -4 11 -11t5 -32q6 -14 22.5 -43.5t20.5 -40.5q6 -10 13.5 -25t16.5 -29.5t18.5 -25t17.5 -10.5q6 0 21 15q33 33 51 59.5t33.5 51t31 52t41.5 66.5q16 27 44 58.5t54.5 66.5t46 72t19.5 73q0 8 -9 16.5t-21.5 14.5t-25 9t-18.5 3l-37 11 q-25 31 -29.5 37t-4.5 8q0 20 22.5 41.5t40.5 31.5q16 0 24.5 -1t16.5 -3q12 0 23 13q16 2 29.5 3t25.5 1q16 0 31.5 -1t31.5 -3q10 -10 15.5 -11.5t19.5 -1.5q2 0 13.5 6.5t15.5 6.5q2 0 11 -2t20.5 -4.5t21.5 -4.5t14 -2t13.5 3t11.5 10q41 0 80 -8.5t57 -10.5 q16 -8 29.5 -29.5t13.5 -39.5q0 -12 -17.5 -23.5t-39 -20t-42 -13.5t-28.5 -5l-49 12l-61 -43q-35 -29 -59.5 -54t-44 -51t-38 -53.5t-43.5 -62.5q-25 -33 -53.5 -65.5t-58 -65.5t-55 -67.5t-42.5 -71.5q14 -10 56.5 -16.5t81.5 -6.5h43q16 0 31.5 7.5t35.5 7.5q51 0 77 -29 t26 -76q0 -35 -11 -37q-33 -6 -50 -12t-44 -6q-39 0 -73.5 9t-73.5 9q-27 0 -50.5 -9t-48.5 -9l-55 12q-4 -10 -14 -32.5t-12 -28.5l4 -131q16 0 22 13t19 13q16 0 49 -14t51 -20q16 4 31 4h28l60 -2h43q23 0 45 -2q6 0 19.5 -6.5t26.5 -14.5t23.5 -14t10.5 -8v-70 q0 -4 -9.5 -8t-21.5 -8.5t-22 -7.5l-11 -3h-80l-139 13q-18 0 -32.5 -9.5t-49.5 -9.5q-2 0 -15.5 3t-17.5 3q-6 0 -15 -2t-11 -4l-8 -90q0 -33 3 -55.5t12 -39t24.5 -31.5t37.5 -34l119 -16q25 -4 52.5 -18.5t27.5 -45.5q0 -18 -9 -33.5t-26 -15.5q-25 -12 -46 -15t-44 -3 q-55 0 -117 18q-27 -12 -59.5 -15t-67.5 -3h-53l-129 8q-31 0 -46 -12.5t-42 -12.5q-35 0 -65.5 24.5t-30.5 61.5z" />
<glyph unicode="&#xa6;" horiz-adv-x="438" d="M104 -154q0 23 -10 48.5t-10 42.5q0 27 10 51t10 53q0 12 -2 21.5t-6 19.5q-12 25 -12 51q0 45 12.5 90t12.5 94v21q23 27 46 42t54 15q59 0 102 -39t43 -100q0 -12 -4 -28.5t-4 -32.5v-29q0 -12 4 -27q2 -16 3 -32.5t1 -32.5v-39q0 -16 -1 -27.5t-7 -21.5 q-6 -23 -7 -44.5t-1 -41.5q0 -23 1 -42.5t7 -41.5q10 -18 12 -28.5t2 -29.5q0 -16 -3 -38.5t-11 -43t-23.5 -35t-37.5 -14.5q-37 0 -74 8.5t-66.5 27t-48 47t-18.5 71.5v4q2 4 12 22.5t10 22.5zM104 1161q0 23 -10 48.5t-10 47.5q0 27 10 50.5t10 52.5q0 10 -2 19.5t-6 21.5 q-12 20 -12 49q0 47 12.5 90t12.5 92v27q23 25 46 38t54 13q59 0 102 -36t43 -97l-8 -64v-30q0 -12 4 -31q2 -14 3 -30.5t1 -32.5v-39q0 -10 -1 -24.5t-7 -25.5q-6 -23 -7 -44t-1 -37q0 -23 1 -43.5t7 -42.5q10 -16 12 -27.5t2 -28.5q0 -16 -3 -38.5t-11 -44t-23.5 -37 t-37.5 -15.5q-37 0 -74 8t-66.5 26.5t-48 49.5t-18.5 74q2 6 12 25.5t10 23.5z" />
<glyph unicode="&#xa7;" horiz-adv-x="1134" d="M96 -367q0 39 20.5 63.5t51.5 38t67.5 18.5t69.5 5q47 0 89 -14t89 -14h27q2 4 8 15t13.5 24.5t13.5 25.5t8 19v59v25q0 27 -3 58.5t-13 47.5q-2 4 -14.5 16.5t-27 25.5t-26.5 24.5t-14 15.5q-4 4 -11.5 15.5t-16.5 24.5t-16.5 24.5t-9.5 17.5q-4 4 -8 21.5t-6 19.5 q-4 2 -14.5 8t-12.5 8q-47 31 -62 74t-36 90q-2 4 -10 19.5t-17.5 34t-16.5 35t-9 20.5q-4 8 -10 23.5t-6 19.5t1 32.5t1 55.5v20q0 10 -2 15q0 2 -3.5 12t-8.5 21.5t-10 21.5t-7 12v8v4q6 10 10 38t4 32q18 68 27.5 133.5t32.5 128.5q0 2 3 10.5t8 17.5t9 16t4 11 q39 96 80 192.5t98.5 173.5t140.5 125t207 48q35 0 70 -9t61.5 -27.5t43 -48.5t16.5 -68q0 -123 -125 -123q-10 2 -18 4q-16 2 -23 10q-6 0 -26.5 8t-43 17.5t-43 17.5t-24.5 12h-6q-6 0 -31 -12t-52.5 -29.5t-51 -33t-25.5 -21.5q-4 -6 -8 -22.5t-4 -20.5q-4 0 -4 -6v-6 q0 -51 23.5 -96.5t58 -86.5t72.5 -77.5t69 -73.5q125 -150 137 -340v-51v-129q0 -2 6 -25.5t6 -30.5v-20q0 -29 -11 -58.5t-15 -58.5q0 -2 -2 -14t-5.5 -25.5t-5.5 -26t-2 -16.5q-10 -41 -27.5 -89t-39.5 -89q-20 -35 -26.5 -74t-29.5 -77q-37 -63 -74.5 -103.5t-90.5 -87.5 q-31 -29 -62 -59.5t-64.5 -57t-71.5 -44t-85 -17.5q-61 0 -99 40t-59 97v12v0zM305 813q4 -4 13.5 -31.5t13.5 -38.5q0 -4 -1 -28.5t-1 -46.5v-21q0 -8 2 -10q0 -4 8 -11.5t17.5 -16.5t18.5 -17t11 -10q27 -35 47.5 -75t42 -79t48 -75t65.5 -60q4 0 5 -1t3 -1 q35 0 55.5 16.5t31.5 42t14 56t3 59.5q0 35 -11 65.5t-26.5 58t-32 56.5t-26.5 60q-2 2 -6 14t-9 26.5t-8 26.5t-5 14t-8.5 10.5t-13.5 17.5t-13 17.5t-6 10.5q-2 2 -7.5 14t-12.5 26.5t-12 27t-7 16.5q-2 2 -9.5 10t-16.5 18.5t-17.5 21.5t-14.5 19q-10 12 -12 14.5 t-16 2.5q-10 0 -21.5 -8.5t-21 -20.5t-16.5 -25.5t-11 -21.5q-2 -6 -7 -23.5t-11.5 -37t-12.5 -37t-6 -25.5z" />
<glyph unicode="&#xa8;" horiz-adv-x="1226" d="M291 1413q0 14 3 25.5t5 23.5q10 29 23.5 47.5t48.5 18.5q55 0 96 -35t41 -88q0 -16 -4 -36.5t-13.5 -38t-22.5 -29t-32 -11.5q-47 0 -79.5 18.5t-61.5 55.5zM719 1407q0 10 3 23.5t5 23.5q4 29 21.5 51.5t52.5 22.5q55 0 96 -37t41 -88q0 -18 -5 -39t-14.5 -38 t-23.5 -28.5t-33 -11.5q-47 0 -79.5 21.5t-57.5 52.5z" />
<glyph unicode="&#xa9;" horiz-adv-x="1796" d="M567 1237q20 20 37 41.5t41 38.5q27 23 58.5 35t60.5 28q49 0 95 11.5t87 11.5q27 0 62 -6q43 -16 79.5 -23.5t71.5 -11.5q18 0 23.5 8t15.5 21q31 0 31 -29l6 -53v-68q0 -18 6 -41.5t6 -42.5v-16t-2 -17q-4 -12 -8 -19t-8 -11q-2 -2 -6 -2q-12 0 -20.5 10t-10.5 16 q0 12 -5 16.5t-5 16.5q-8 25 -20.5 47.5t-35.5 38.5t-40 38.5t-35 35.5q-33 20 -63 28.5t-58 8.5q-8 2 -29.5 -4.5t-45.5 -15.5t-42 -16t-20 -9q-41 -29 -80 -64t-68 -88q-16 -47 -19 -73.5t-3 -47.5q0 -49 -9 -88l-4 -43l19 -135q25 -41 43 -65.5t30.5 -40t18.5 -24.5 t8 -20q59 -35 78.5 -51t21.5 -16l84 -31q57 -2 71.5 -3t21.5 -1q4 -4 20 2t32.5 14.5t28 18.5t9.5 16q12 2 25.5 14.5t25.5 29t22.5 31.5t16.5 21q6 10 21.5 31t25.5 21t16 -12.5t6 -18.5q-2 -16 -3 -25.5t-3 -17.5t-4 -14q-18 -39 -29.5 -59.5t-22.5 -34t-26.5 -27 t-40.5 -37.5q-10 -10 -16 -14.5t-27 -6.5q-43 -18 -67.5 -28t-37.5 -15.5t-20.5 -6.5t-13.5 -1q-10 0 -24.5 1t-36.5 3q-16 0 -53 5.5t-48 7.5q-16 -6 -38.5 2t-44 19t-37 21.5t-15.5 12.5q-92 88 -94 98q-23 47 -43.5 77t-30.5 60v5q0 4 -1 17t-3 39.5t-6 74.5l-10 84 q8 57 12 102t14 68l15 47q16 12 24 36.5t17 43.5zM207 428q-45 78 -84 165t-39 179v49q0 117 13.5 232.5t80.5 220.5l148 231q39 47 92 90t109.5 76t113.5 52.5t107 19.5l79 -14q18 0 29.5 2t34.5 12h96q39 0 73 -2t65.5 -10.5t61.5 -24.5t64 -45l131 -135l80 -39 q39 -27 54.5 -65t24.5 -78.5t18.5 -80.5t35.5 -71q25 -29 43.5 -42t30.5 -26.5t20.5 -32t14.5 -55.5q2 -25 4 -57.5t3 -66t2 -66.5t1 -60v-34q-4 -39 -23.5 -92.5t-41.5 -92.5q0 -2 -2 -6t-5 -8q-6 -25 -17 -66t-25.5 -83t-30 -76.5t-27.5 -46.5q-8 -2 -14 -7q-8 -4 -10 -6 t-5 -2q-39 -16 -68.5 -36.5t-54 -42t-48 -42t-52.5 -34.5t-61.5 -22.5t-66.5 -14.5t-66.5 -15.5t-61.5 -27.5h-114q-143 0 -235.5 28.5t-166.5 81t-143.5 125t-167.5 162.5zM190 932q0 -27 7.5 -67t19.5 -87t28.5 -98t33.5 -96q39 -78 94 -143.5t96 -98.5q53 -39 120.5 -88 t153.5 -74q55 -16 110.5 -21t109.5 -5q41 0 72.5 1t58.5 1q18 0 40.5 8t57.5 24q-2 0 5 4.5t18.5 10.5t20.5 11t11 7q27 14 44.5 22.5t30.5 17.5t25.5 23.5t32.5 41.5q25 33 49.5 57.5t45 48t36 52t21.5 73.5q4 4 7 17.5t7 29.5l8 41q8 31 16.5 53.5t14.5 46t9 48t3 59.5 q0 78 -13 145.5t-77 104.5l-18 22q0 57 -9.5 93t-24.5 64t-36.5 52.5t-44.5 57.5q-61 74 -107 103.5t-90 43.5t-94.5 27.5t-117.5 56.5l-226 25l-19 -9q-18 -8 -43.5 -19t-52 -24.5t-44.5 -25.5q-55 -37 -121 -114t-123 -168t-98.5 -186t-47.5 -169z" />
<glyph unicode="&#xaa;" horiz-adv-x="1019" d="M641 1133q-8 14 -9 30.5t-1 32.5q-12 10 -14.5 22.5t-6.5 47.5l-9 9t-11 9q-8 8 -24.5 9t-26.5 1q-6 -2 -21 -2q-14 0 -53 -2h-21q-23 0 -47 -15t-37 -34q-2 -2 -2 -12q0 -4 -2 -8q-4 -6 -7 -16.5t-9 -51.5l8 -39q0 -10 14.5 -19.5t22.5 -7.5q10 0 30.5 -4t20.5 -24 q0 -25 -26 -33q-8 -2 -34 -7t-36 -7l-21 8l-124 -8q-23 4 -33 8t-21 27q0 14 9.5 24t21.5 17.5t25.5 12.5t23.5 11q23 16 35 45q2 2 6 14.5t4 14.5q10 25 22.5 44t22.5 40q2 4 8.5 22.5t16.5 67.5q0 2 7 19.5t17 56.5q6 18 13.5 30.5t15.5 28.5l21 76q0 6 3 22.5t3 20.5v65 q0 6 6 18.5t14 16.5l74 39l20 23q16 0 25.5 -12.5t15.5 -24.5q2 -8 9.5 -34t9.5 -32l6 -35q12 -18 20.5 -42.5t14.5 -49.5q0 -10 1 -14t1 -6t2 -2q8 0 16 -16.5t33 -77.5q8 -8 16.5 -30t8.5 -34q6 -25 16 -49.5t29 -61.5q4 -14 7 -23t5 -20q0 -2 2 -10l4 -16t4 -15.5t2 -9.5 q2 -10 9.5 -20.5t13.5 -14.5q2 -2 17.5 -8t19.5 -8q23 -12 35 -15t12 -32q0 -12 -13.5 -21.5t-32 -15.5t-37 -8t-26.5 -2q-23 0 -41 6t-43 6l-67 -8q-8 0 -20.5 1t-25 5t-21.5 10t-9 19q0 16 14.5 22t31.5 11.5t31.5 12.5t14.5 25v7zM479 1352q4 -2 20.5 -5.5t24.5 -5.5 l58 2l-17 66q-2 8 -3 20.5t-1 16.5q0 23 -7 36t-17 34q-2 6 -11.5 14t-15.5 14q-4 2 -10 2q-8 0 -15.5 -5t-17.5 -5q-6 0 -14.5 -13.5t-15.5 -29.5t-12 -32.5t-5 -24.5v-66q4 -6 7 -15t11 -9q4 0 21.5 3t19.5 3z" />
<glyph unicode="&#xab;" horiz-adv-x="1013" d="M317 285h-2q-8 0 -18 10t-20.5 23.5t-18.5 25.5t-14 16l-31 11q-16 8 -41 24.5t-47.5 38t-38.5 44t-16 42.5q0 23 15 44.5t36.5 40t46.5 32.5t45 22q14 2 29.5 16.5t29 31t24.5 30t19 13.5q4 6 22.5 22t40 34.5t40 33t22.5 14.5q2 0 12.5 -1t22.5 -4t23.5 -7t13.5 -8 q0 -8 -7 -30t-9 -34q-8 -31 -23.5 -49.5t-32 -35.5t-34 -37.5t-29.5 -53.5q-16 -2 -29.5 -30.5t-23.5 -41.5q4 -6 10 -16t13 -20.5t14.5 -18.5t13.5 -8q6 -4 14 -13.5t15.5 -20.5t13.5 -21.5t10 -12.5l16 -18q20 -20 29 -39l19 -35q16 -33 22 -38t14 -23v-35 q-18 -16 -26 -19.5t-21 -3.5h-59q-6 23 -19.5 36t-28 22.5t-30 20t-27.5 26.5zM717 295h-4q-6 0 -16.5 10t-20.5 23.5t-18.5 26t-14.5 16.5l-31 14q-16 6 -41.5 22.5t-48 37t-39 44t-16.5 46.5t13.5 42t32.5 35.5t43 29.5t44 24q20 6 37.5 21t32 31.5t27 30t20.5 13.5 q2 4 19.5 20.5t39 35t41 32.5t23.5 14q2 0 12 -1t22.5 -3t22.5 -6t12 -8q0 -10 -6 -31.5t-8 -30.5q-10 -31 -25.5 -51t-31 -36.5t-30.5 -37t-28 -51.5q-10 0 -18 -9t-15.5 -21.5t-12.5 -23.5t-11 -17q10 -12 24.5 -39t26.5 -27q6 -2 14.5 -12t15.5 -22.5t13 -23t10 -12.5 q29 -31 35 -39t10 -22l19 -25q6 -18 11 -27t9 -14.5t8.5 -10.5t8.5 -15v-35q-18 -14 -26.5 -17t-20.5 -3h-60q-6 20 -19.5 33.5t-28.5 22.5t-30.5 19.5t-25.5 26.5z" />
<glyph unicode="&#xad;" horiz-adv-x="1026" d="M688 440l-14 2l-94 -16q-27 0 -50.5 8t-52.5 8q-23 0 -41 -6q-25 -10 -49 -10q-47 0 -91 10t-91 10q-45 25 -63.5 47.5t-18.5 53.5q0 59 37 102t100 43l64 -6h28h15q8 0 18 2q14 2 29.5 3t29.5 1h39q14 0 27.5 -1t26.5 -5q10 -2 20 -3t21 -1h81q10 0 20.5 1t20.5 3 q16 8 25.5 10t22.5 2q20 0 45.5 -3t48 -11t38 -22.5t15.5 -38.5q0 -35 -8 -72t-27.5 -65.5t-49.5 -47t-73 -18.5h-4q-4 2 -22.5 11t-22.5 9z" />
<glyph unicode="&#xae;" horiz-adv-x="1796" d="M207 436q-45 78 -84 165t-39 181v45q0 117 13.5 234t80.5 219l148 231q39 47 92 90.5t109.5 76t113.5 52t107 19.5l79 -12q18 0 29.5 2t34.5 10h96q39 0 73 -2t65.5 -10t61.5 -24.5t64 -45.5l131 -133l80 -39q39 -27 54.5 -64.5t24.5 -79.5t18.5 -82t35.5 -71 q25 -29 43.5 -42t30.5 -25.5t20.5 -31t14.5 -55.5q2 -27 4 -59.5t3 -66t2 -66.5t1 -59v-33q-4 -37 -23.5 -92.5t-41.5 -94.5q0 -2 -2 -5t-5 -9q-6 -25 -17 -65.5t-25.5 -81.5t-30 -77t-27.5 -48q-8 -2 -14 -4q-4 -2 -6 -2t-4 -2t-5 -3q-39 -18 -68.5 -39.5t-54 -43t-48 -42 t-52.5 -34.5t-61.5 -22.5t-66.5 -14.5t-66.5 -15.5t-61.5 -27.5h-114q-143 0 -236.5 27.5t-166.5 80t-142.5 126t-167.5 165.5zM186 940q0 -29 3.5 -67.5t12.5 -85t24.5 -96.5t37.5 -99q41 -84 100.5 -148.5t102.5 -95.5q53 -41 121.5 -89t154.5 -75q53 -16 109.5 -21 t110.5 -5q41 0 72.5 1t56.5 1q35 0 65.5 16.5t65.5 38.5q6 4 14 5t12 5q27 14 44.5 22.5t29.5 17.5t25.5 24.5t31.5 42.5q25 33 50.5 56.5t47 47t37 53t21.5 74.5q4 4 6 17.5t6 29.5q4 18 6 41q10 31 18.5 54.5t14.5 47t9 48t3 59.5q0 86 -13 150.5t-75 107.5 q-14 18 -16 25.5t-2 15.5q0 49 -10 82t-27.5 59.5t-39 51t-46.5 57.5q-59 78 -103 106.5t-89 41t-95.5 24.5t-117.5 55l-226 23l-19 -7q-20 -7 -45.5 -18.5t-52 -25t-44.5 -23.5q-57 -37 -123 -114.5t-123.5 -170t-98.5 -188.5t-47 -172zM1143 512q-39 31 -67.5 70t-51.5 82 q-10 35 -24.5 48t-20.5 23l-12 27l-22.5 22.5t-29.5 22.5q0 18 -15 36.5t-36.5 32t-44 21.5t-37.5 8q-12 0 -34.5 -7t-22.5 -26v-45q0 -8 4 -28l-6 -103v-90q4 -23 22 -24l27 -19q12 -10 35.5 -11t46.5 -3t39 -9.5t16 -25.5q0 -16 -23.5 -28.5t-41.5 -12.5q-16 0 -31.5 6 t-32.5 13q-25 4 -47 7t-49 7l-35 -2l-71 -4q-41 0 -63.5 1t-34 3t-13.5 4t-2 4q0 14 15.5 23.5t33.5 14.5t35.5 9t23.5 10q2 2 3.5 11.5t3.5 18.5t5 15.5t9 3.5q8 18 10 36t2 36l-4 72l8 108l-8 64q4 37 6 46t2 17q0 51 2 66.5t2 19.5v74l-8 107q-29 35 -56.5 50t-72.5 25 q-6 2 -6 11q0 8 11.5 15t24.5 10t27.5 5t20.5 2l37 -4l35 4l59 -10l121 2l53 4q29 0 54.5 -4t54.5 -10q23 -10 42 -14t46 -17q51 -31 77.5 -59.5t32.5 -91.5l7 -64q0 -14 -5.5 -17t-9.5 -14q-6 -18 -8 -34.5t-8 -28.5q-12 -10 -25.5 -20.5t-27.5 -26.5q-6 -8 -17.5 -14.5 t-23 -12.5t-20.5 -14t-9 -21q0 -10 8 -13t16 -11q2 0 7.5 -8.5t10.5 -16.5t9 -16l4 -8l86 -125q14 -16 27.5 -29.5t32.5 -25.5q8 -4 13 -24t19 -28q18 -20 38 -32.5t44 -30.5q8 -6 21.5 -10.5t26 -10.5t21.5 -15t9 -26q0 -14 -12 -17t-21 -3h-90q-20 10 -40.5 11t-45.5 3 q-10 2 -30.5 13.5t-30.5 19.5zM719 997q0 -33 19.5 -46t45.5 -13h23q2 10 17.5 17.5t36 12.5t41 8t30.5 5q12 4 23.5 17.5t21.5 21.5l20 41q23 39 23 69l-12 41q2 10 3 17.5t1 11.5q0 10 -15 25q-27 53 -73.5 72.5t-112.5 19.5q-2 0 -10 -1t-17.5 -3t-17.5 -3l-8 -1 q-4 -4 -7 -14.5t-6 -16.5q-8 -43 -11 -75t-13 -70q8 -35 8 -56z" />
<glyph unicode="&#xaf;" horiz-adv-x="1112" d="M74 1360q0 45 37 67q16 10 40.5 14.5t47.5 4.5q25 0 48 -2t52 -2h31q6 0 30.5 1t53 2t53.5 1h33q4 0 16 -1t25 -1q14 0 25.5 -1t13.5 -1q4 0 20 1t18 1q-2 0 5 0q6 0 13 1t11 1q6 0 4 0q0 -2 29 -2t106 -6q4 0 15.5 1t13.5 1h14q6 0 12.5 1t10.5 1t10 -1t12 -1h15l33 -2 q8 -2 18 -2q8 0 14.5 1t16.5 1q23 0 42 -9.5t27 -44.5q2 0 2 -10v-12q0 -33 -10 -50.5t-28.5 -25.5t-42 -9t-48.5 -1h-53q-4 0 -18.5 3t-18.5 3l-2 -1t-14 -1q-10 0 -33.5 -1t-64.5 -1h-15h-24t-26.5 1t-14.5 1q-23 -4 -50.5 -6t-31.5 -2h-82h-35q-29 0 -39 4q-14 0 -36.5 2 t-24.5 2h-90h-82q-4 0 -28 4t-38 14q-12 10 -15 31t-3 31z" />
<glyph unicode="&#xb0;" horiz-adv-x="1024" d="M293 1276q-23 47 -36 77t-13 52q0 55 7 103.5t32 85.5l55 88q8 10 28.5 26.5t45 30.5t47 24.5t37.5 10.5h92q29 0 50.5 -6t45.5 -27l51 -49l31 -16q14 -10 20.5 -24.5t9.5 -30t6 -30t13 -26.5q8 -12 14.5 -17t11.5 -9.5t9 -12.5t8 -22q0 -10 1 -41t1 -54q0 -6 -3 -19 t-8 -26.5t-9 -23.5l-4 -10q-4 -10 -11.5 -24.5t-15.5 -31t-16.5 -31t-12.5 -20.5q-18 -8 -28.5 -17.5t-18.5 -18.5t-15 -17t-20 -10q-23 -14 -47 -17.5t-49 -11.5h-39q-55 0 -91 10t-63.5 28.5t-54 45zM309 1461q0 -16 9.5 -45t22.5 -57.5t30.5 -54.5t34.5 -36 q18 -12 43.5 -23.5t55.5 -19.5t57.5 -12t47.5 -4q10 0 15.5 7t15.5 11q23 10 31 12t22 25t35 34t27 40q0 4 1 17t3 13q4 23 10 34t6 34q0 33 -18.5 55.5t-18.5 51.5q0 23 -11 37t-30 34q-18 27 -32.5 37t-29.5 16.5t-30.5 10.5t-36.5 18h-73q-4 0 -22.5 -9t-31.5 -18 q-23 -12 -45 -36.5t-42.5 -54t-33 -61t-12.5 -56.5z" />
<glyph unicode="&#xb1;" horiz-adv-x="1318" d="M129 827q27 27 96 27h23q10 0 26 -6h177q41 0 69.5 4t38.5 14q20 20 21 84l-23 279q0 31 6 56.5t17 39.5q20 16 61 16q29 0 53.5 -7t34.5 -21l33 -72q2 -2 5 -14.5t9 -71.5q-10 -4 -18 -12q-8 -12 -13.5 -24.5t-5.5 -28.5q0 -29 5.5 -61t9.5 -56q2 -16 3 -21.5t1 -9.5 q0 -18 -2 -37.5t-2 -32.5l2 -4q8 -8 10 -8q41 0 85 10.5t83 10.5q16 0 30.5 -4.5t26.5 -8.5h183q6 0 15 -3t11 -5q10 -10 10 -35v-90l-20 -22q-39 -39 -107 -39q-53 0 -107 12t-99 14l-25 -10l-76 -6q-6 -10 -10 -30.5t-7 -47t-5 -55.5t-2 -55q0 -25 2 -45.5t6 -30.5 q18 -20 21 -27.5t3 -17.5q0 -4 -12 -21.5t-12 -19.5l4 -58q0 -25 -10 -34q-16 -12 -54 -13q-31 0 -57.5 7.5t-34.5 13.5q-16 29 -22 63.5t-9.5 71.5t-6.5 75t-11 75l25 92q0 14 -9 24q-27 23 -53 23q-18 0 -38.5 -5t-45.5 -5q-29 0 -35 2q-6 8 -28 8l-27 -2q-37 -6 -72 -6 q-43 0 -86 6q-16 0 -30.5 4t-24.5 20q-16 25 -16 72q4 37 7 47t3 12zM109 49v55q0 16 1 33t8 30t22.5 22.5t43.5 13.5h78q33 4 68 6t71 2h74q25 0 36 4t32 4q53 0 103 -13t102 -13l174 20q18 0 32.5 -5t28.5 -5q16 0 24.5 4t18.5 8h2q2 0 3 1t3 1t15.5 -2t37.5 -6 q41 0 67 -4t44 -27q4 -4 4 -10q0 -8 -2 -14.5t-4 -14.5v-6q0 -4 1 -8t1 -12v-27q0 -6 -2 -10l-8 -33q-29 -27 -71 -34t-79 -7q-16 0 -32.5 1t-51.5 3q-25 2 -44 4t-40 2q-113 0 -223 -3t-221 -7q-51 -2 -101.5 -6t-97.5 -4q-33 0 -72.5 16t-45.5 41z" />
<glyph unicode="&#xb2;" horiz-adv-x="1026" d="M205 1145q0 6 5 18.5t9 18.5q6 10 31.5 21.5t36.5 19.5q29 20 59.5 35.5t54.5 38.5q25 23 50.5 53.5t48 65t37 71.5t14.5 72q0 33 -28.5 60.5t-67.5 27.5l-58 -12q-6 0 -14 -1t-14 -10q-12 -8 -22.5 -22t-20 -27.5t-21.5 -24t-31 -10.5q-6 0 -14 1.5t-14 7.5v22 q0 20 3 30.5t9 16.5t14.5 13.5t18.5 21.5l12 12q18 23 37.5 44.5t50.5 31.5l60 6l38 8q18 0 44 -3t51.5 -10t49 -18.5t38.5 -27.5q4 -8 9 -16t7 -11l25 -38v-91q0 -16 -10.5 -27t-18.5 -22q-4 -2 -7 -13t-16 -46l-4 -2q-16 -12 -18 -24.5t-16 -26.5q-16 -14 -33 -15.5 t-33 -9.5q-2 0 -16.5 -14.5l-16.5 -16.5q-4 0 -21.5 -13t-19.5 -15q-10 -4 -25.5 -23.5t-15.5 -28.5q0 -4 2 -4h27q35 0 70 -12h39q43 0 85 6t78 23q8 6 9.5 11t3.5 9q10 14 26.5 24.5t32.5 18.5l12 -39q0 -23 -20 -57q-2 -6 -4 -19.5t-7 -28.5t-13.5 -26.5t-20.5 -11.5 l-15 -2q-29 -4 -58.5 -9t-57.5 -5q-18 0 -35.5 10t-36.5 10q-16 0 -34.5 -1t-33.5 -5q-4 0 -10 -4t-10 -10q-59 14 -80 14q-12 0 -18 -2t-13 -2q-29 -4 -54 -7t-60 -3q-14 0 -27.5 4t-13.5 18v2z" />
<glyph unicode="&#xb3;" horiz-adv-x="1024" d="M403 873q0 31 7.5 38t37.5 15q8 4 19.5 8t19.5 4q25 0 44.5 -17t47.5 -17q37 0 69 23.5t48 55.5q2 2 3 11.5t1 13.5q8 8 18.5 11t10.5 14v79q0 10 -12.5 25.5t-16.5 19.5q-23 35 -53.5 54.5t-65.5 44.5q0 4 -8 12t-12 8q-16 0 -36.5 -10t-37.5 -10q-10 0 -18 11t-8 22 q0 16 13 27t30.5 18.5t35 13.5t27.5 10q2 0 11.5 11.5t13.5 13.5q16 14 34.5 22t28.5 27q29 45 48.5 82t19.5 76q0 4 -16.5 20t-26.5 29q-6 12 -20.5 16t-26.5 4q-29 -10 -48.5 -15t-46.5 -5h-34q-12 2 -16.5 13t-4.5 22q0 16 4 20l21 10q16 10 25 21.5t24 23.5 q27 18 64.5 28.5t72.5 10.5q16 0 29.5 -7t29.5 -13q53 -20 70.5 -44t32.5 -75q0 -10 3 -17.5t3 -17.5q0 -35 -20.5 -82t-43.5 -76q-12 -16 -27.5 -19t-27.5 -13q-10 -12 -14 -23.5t-14 -21.5q-16 -6 -17 -23v-4h2q4 -10 18.5 -23.5t32 -26.5t32.5 -25.5t22 -20.5 q2 -23 9 -38t15 -28.5t14.5 -31t6.5 -41.5q0 -8 -2 -24.5t-5.5 -35t-6.5 -34t-7 -21.5l-20 -25q-10 -12 -15.5 -30.5t-15.5 -28.5q-20 -23 -57 -47.5t-78 -47t-82 -37t-72 -14.5q-14 0 -22 10.5t-19 20.5q-23 14 -34 26.5t-11 43.5z" />
<glyph unicode="&#xb4;" horiz-adv-x="1226" d="M561 1227q0 51 17.5 94t45 82t59.5 76t60 73q23 31 42.5 58.5t42 48t52 32t74.5 11.5h17q4 -6 18.5 -27.5t16.5 -29.5v-17q0 -16 -1 -25.5t-10 -25.5q-16 -29 -34.5 -38t-34.5 -32q-4 -4 -12.5 -17t-10.5 -17q-29 -51 -59.5 -83t-65.5 -75q-2 -4 -7 -12.5t-11 -17.5 t-10.5 -17t-6.5 -11q-4 -6 -17 -19l-27.5 -27.5t-27 -28t-18.5 -17.5h-8q-25 0 -54.5 14.5t-29.5 47.5z" />
<glyph unicode="&#xb5;" horiz-adv-x="1423" d="M0 -340l109 346q4 2 12 10.5t10 12.5q2 2 4 15t4 26.5t4 26t2 16.5q0 6 3.5 20t6.5 29.5t7 29t4 17.5q2 2 12 21.5t12 23.5q2 6 6.5 15.5t8.5 19.5t7 17t3 9q2 4 3 19.5t3 34t3 34t1 19.5t4 19.5t8.5 34t7.5 37.5t5 30q2 2 7 21.5t5 23.5q8 45 15.5 98t19.5 105.5 t33.5 99.5t62.5 78q6 0 24.5 2t22.5 2q59 0 85 -33t26 -88q0 -43 -15.5 -95t-38 -104.5t-48 -99.5t-46.5 -84q0 -4 1.5 -8t1.5 -8q0 -29 -12.5 -60t-12.5 -59q0 -23 5 -47.5t15.5 -45t29 -33.5t46.5 -13q31 0 75 15t87 39.5t80 54.5t53 58q2 2 12.5 29t14.5 41 q12 43 29.5 85t29.5 83q18 66 35.5 131.5t34.5 130.5q25 41 62.5 54.5t80.5 29.5h2h2q0 2 2 2q2 -2 4 -2h2q43 -23 57.5 -50.5t14.5 -74.5v-35q0 -16 -2 -33.5t-10 -33.5q-4 -8 -14.5 -28.5t-21.5 -43t-21.5 -42t-14.5 -27.5q2 -2 2 -9q0 -18 -20.5 -40.5t-28.5 -34.5 q-18 -27 -34.5 -71t-26.5 -73l-6.5 -32.5t-4.5 -26.5q0 -2 3 -12.5t7.5 -21.5t8.5 -22.5t6 -15.5q4 -10 17.5 -27.5t17.5 -17.5h118q20 25 51 39t56 31q16 10 26.5 29.5t19.5 40t20.5 38t29.5 23.5q14 4 24.5 -4.5t18.5 -21.5t12.5 -27.5t4.5 -22.5q0 -41 -19.5 -81 t-49.5 -77t-62.5 -67.5t-59.5 -55.5q-10 -10 -25.5 -20t-34 -19.5t-34.5 -15.5t-29 -6h-4q-2 0 -4 2q-6 0 -19.5 2t-26.5 4t-23.5 4t-12.5 2q-55 8 -82.5 47t-43 82t-27 77t-33.5 34l-4 -2t-8.5 -12.5t-4.5 -12.5q-8 -12 -21 -35.5t-15 -23.5q-23 -23 -55.5 -46.5t-69.5 -43 t-75 -31.5t-73 -12q-29 0 -62.5 9t-56.5 28q-12 10 -19 22t-15.5 23.5t-19.5 19.5t-30 8q-20 0 -30.5 -12t-15.5 -28.5t-7 -36t-6 -31.5q-2 -4 -12 -23.5t-13 -23.5q0 -2 -1 -27.5t-1 -40.5q0 -49 14.5 -88t14.5 -90q0 -45 -6 -86t-45 -74q-8 -8 -25.5 -20.5t-19.5 -14.5 q-2 0 -8.5 -1t-10.5 -1t-10 1t-8 1q-10 4 -23.5 11.5t-28 14.5t-23.5 13t-9 9v106z" />
<glyph unicode="&#xb6;" horiz-adv-x="1468" d="M242 -475q0 33 16 60.5t42 48t57.5 30.5t62.5 10q45 0 67.5 -28.5t45 -63.5t56.5 -63.5t103 -28.5h31q2 0 11 6t19.5 13.5t21.5 15.5t18 12q39 33 53 64.5t14 83.5v12q0 2 -6 16.5t-6 16.5q0 35 12 61.5t12 56.5v11q0 6 -2 8q0 4 -2 21.5t-3 36t-3 35.5t-2 22q0 4 3 30.5 t7 36.5q2 2 7.5 16.5t5.5 18.5v90q0 2 2 11.5t4 18.5t4 17t2 10v19q0 20 -6 35.5t-6 38.5v32q0 2 11 11.5t11 11.5q2 4 -3 12t-7 10h-6h-19q-2 0 -9 5.5t-14 11.5t-13.5 12t-8.5 6h-22q-98 18 -190.5 31.5t-184.5 48.5q-25 8 -51.5 24.5t-42.5 32.5q-10 8 -31.5 31 t-47.5 48.5t-48.5 48l-32.5 32.5q-47 49 -64.5 105.5t-37.5 122.5q0 4 -5.5 17t-5.5 17v27v63q-2 4 -7 17.5t-5 17.5v31v29q0 4 11.5 21.5t11.5 21.5q2 2 2 16q0 12 -1 25.5t-1 17.5q8 53 47 102.5t67 88.5l4 12q2 4 7 10q4 6 17 21.5t29.5 32t30 30.5t17.5 18q0 4 4 13.5 t4 13.5q12 14 24.5 13t32.5 10q8 2 35 15t37 17q2 2 21.5 16.5t23.5 18.5q8 4 22.5 7t30 5.5t28.5 4.5t21 6q2 2 16.5 12t18.5 10q59 27 122 28t128 7q2 0 10.5 5t12.5 7h4h8q4 -2 16.5 -6t16.5 -6h342q16 8 26.5 10t24.5 2q35 0 66.5 -26.5t31.5 -61.5q0 -16 -12 -28.5 t-23 -20.5q-6 -2 -22 -4t-34.5 -3t-35 -3t-22.5 -2q-2 0 -16.5 -5t-18.5 -5q-23 -4 -48.5 -6.5t-50 -9.5t-44 -21.5t-27.5 -42.5v-80q0 -10 -1 -22.5t-1 -26.5q0 -18 2 -37t12 -31q0 -10 2 -40t4 -62.5t3 -61t1 -41.5q4 -158 5.5 -312.5t7.5 -313.5q0 -10 1 -35t2 -51.5 t3 -51t4 -32.5q0 -4 6 -23.5t6 -23.5v-103q0 -2 2 -10t3 -17.5t3.5 -17.5t2.5 -10q0 -41 -11.5 -66.5t-11.5 -60.5q0 -23 12.5 -30t12.5 -25q0 -2 -1 -3.5t-1 -3.5v-6q0 -4 -3.5 -15t-7.5 -24.5t-8 -26t-4 -14.5q0 -4 -1 -17t-3 -28.5t-4 -29t-2 -15.5q-2 -4 -12.5 -23.5 t-10.5 -23.5t-2 -15t-4 -24.5t-4 -25t-2 -15.5q-4 -14 -21.5 -42.5t-39 -59.5t-43 -56.5t-33.5 -33.5l-45 -23q-6 -4 -23.5 -17t-21.5 -18q-20 -16 -33.5 -27t-26 -20.5t-28 -16.5t-37.5 -15q-23 -8 -37 -9.5t-33 -13.5h-18t-25.5 -1t-26.5 -1h-16h-22t-27.5 1t-24.5 1h-10 q-4 0 -30.5 9t-41.5 14q-66 27 -97.5 65.5t-57.5 106.5q-4 0 -4 4v6z" />
<glyph unicode="&#xb7;" horiz-adv-x="792" d="M252 606q0 72 31.5 108t107.5 36q23 0 40.5 -6.5t39.5 -16.5q51 -25 60.5 -49.5t9.5 -77.5v-70q-2 -12 -13.5 -28.5t-27 -29.5t-33.5 -23.5t-35 -10.5q-37 8 -69.5 18.5t-57 29t-39 47t-14.5 73.5z" />
<glyph unicode="&#xb8;" horiz-adv-x="1015" d="M608 12v-12q4 -10 24.5 -18.5t29.5 -18.5q31 -37 67.5 -73.5t36.5 -71.5q8 -39 8 -84q0 -23 -2 -43.5t-6 -44.5l-4 -8q-2 -4 -4 -7.5t-2 -7.5q-25 -41 -56.5 -89t-68.5 -81q-2 -2 -17.5 -6t-17.5 -6q-4 0 -12.5 -10.5t-10.5 -12.5q-35 -27 -83 -36t-89 -21l-10 -10 q-31 -23 -63.5 -29t-67.5 -6h-35q-18 0 -36.5 3t-28.5 19q-4 10 -16.5 37t-14.5 33q0 -4 2 -6q0 -2 1 -4t1 0q0 18 23.5 23.5t38.5 11.5q2 2 21.5 9t23.5 7q2 0 11 1t20.5 2t21.5 2t14 1q35 4 78 30t70 46q8 8 23.5 18.5t29.5 22.5t26.5 25.5t16.5 25.5q10 33 22.5 63.5 t12.5 59.5q0 23 -10.5 36t-24.5 30q-23 20 -54.5 26t-72.5 6q-12 0 -22.5 -8t-20.5 -17t-20.5 -16.5t-22.5 -7.5q-23 0 -38 18.5t-15 39.5v2q0 2 2 4q0 2 2 4q14 25 46 49.5t56 42.5q6 4 22.5 7t35 7t32 10.5t13.5 16.5l8 4v2q0 2 2 4t4 6h100z" />
<glyph unicode="&#xb9;" horiz-adv-x="921" d="M242 1166q0 25 18.5 33t43 12t47 8t32.5 16q4 10 12.5 34t8.5 34l-21 102q0 4 2 16.5t5.5 25t6.5 22.5t3 12l-17 145q0 8 9 29q-31 33 -70 49q-12 4 -27.5 7.5t-29 8.5t-23.5 13t-10 22q0 23 19.5 26t31.5 3l82 -6q10 4 16 4h19q16 0 32.5 -2t32.5 -2q12 0 26.5 2t31.5 4 q12 12 48 16.5t54 4.5q10 0 32.5 -3t22.5 -26q0 -18 -13 -29.5t-30.5 -18.5t-37 -11.5t-31.5 -8.5q-10 -4 -19.5 -21.5t-15.5 -31.5l-10 -145l14 -111q-4 -41 -9 -54t-5 -26q0 -18 7 -32.5t9 -30.5q4 -2 23.5 -4t27.5 -4q6 -2 20.5 -10.5t30 -18.5t27.5 -21.5t12 -19.5v-2 q-2 -12 -22 -33l-111 -4l-69 6q-37 0 -76 -2t-74 -6l-14 -8q-27 0 -44.5 10.5t-27.5 26.5z" />
<glyph unicode="&#xba;" horiz-adv-x="1024" d="M154 1417l8 62q18 72 57 137l41 53l41 29q10 8 18 8t15 6l74 33q6 2 19 5t17 3q33 4 50 4h24q35 0 56.5 -7t41.5 -11q4 0 7.5 1t7.5 1q8 0 16 -4l8 -8l7 -7l69 -41q16 -10 23.5 -22t17.5 -27q6 -4 14.5 -18.5t12.5 -20.5l32 -98q4 -6 6.5 -17.5t2.5 -17.5l-4 -88 l-37 -104q-12 -20 -27.5 -39t-32.5 -37q-10 -16 -25.5 -25.5t-66.5 -31.5q-2 0 -14 -3.5t-17 -3.5q-14 -2 -22 -6t-23 -4l-71 -4q-6 0 -32 2t-36 2l-65 6l-95 60q-14 6 -21 20.5t-15 24.5q-10 12 -18.5 23.5t-14.5 21.5q-14 23 -27.5 43t-13.5 47zM307 1380q10 -14 10 -18 t5 -21q4 -25 17 -48t28 -40l26 -26q16 -18 30.5 -33.5t55.5 -26.5q35 0 70 13q12 0 20.5 2t26.5 14q16 10 31.5 21.5t25.5 21.5l52 76q6 25 6 41t-2 29.5t-4 25.5q-4 10 -8.5 21.5t-4.5 23.5l6 27q-4 18 -7 42.5t-13 35.5l-37 41q-4 4 -14.5 19t-26.5 34q-12 12 -24.5 22.5 t-30.5 14.5l-37 2l-31.5 7t-32.5 3l-47 -27l-69 -75q-2 -6 -6.5 -20.5t-14.5 -72.5l6 -36q0 -6 -1 -20t-5 -73z" />
<glyph unicode="&#xbb;" horiz-adv-x="1013" d="M696 285q-12 -16 -27.5 -26.5t-29.5 -21t-27.5 -22.5t-19.5 -35h-60q-12 0 -19 3t-26 20v35q2 8 5.5 13t8.5 10t10 13.5t15 24.5l15 35q4 12 10 21.5t33 35.5q4 2 11 12.5t14 21.5t15.5 20.5t14.5 13.5q6 0 13 8t14.5 18.5t13.5 20.5t10 16q-10 12 -23.5 41t-29.5 31 q-12 33 -29.5 53.5t-35 37.5t-32 35.5t-22.5 49.5q-2 12 -9 33.5t-7 30.5q2 4 12 8t22.5 7t23.5 4t13 1q4 0 22.5 -14.5t40 -33t39 -34.5t21.5 -22q8 0 19.5 -13.5t26 -30t28.5 -30.5t31 -17q20 -8 44.5 -22t46 -32.5t37 -40t15.5 -44.5q0 -20 -16.5 -42.5t-39 -44t-47 -38 t-40.5 -24.5l-31 -11q-6 -4 -14 -16t-18.5 -25.5t-20.5 -23.5t-19 -10h-2v0zM297 295q-10 -16 -25.5 -26.5t-31 -19.5t-28.5 -22.5t-19 -33.5h-60q-12 0 -20.5 3t-26.5 17v35q2 10 6 16t8 11.5t10.5 14.5t14.5 25l29 43q4 6 10 15.5t22 27.5q2 2 8.5 12.5t14.5 23t16 22.5 t15 12q12 0 26.5 26.5t24.5 39.5q-6 6 -12.5 17t-12.5 23.5t-13 21.5t-15 9q-12 31 -30 51.5t-34 37t-31.5 37t-23.5 50.5q-2 8 -8.5 30t-6.5 32q2 4 12.5 8t23 6t22.5 3t12 1q4 0 22.5 -14t40 -32.5t40 -35t22.5 -20.5q8 0 19.5 -13.5t26.5 -30t32.5 -32.5t40.5 -22 q18 -10 40.5 -23.5t42 -29t32 -35t12.5 -41.5q0 -20 -16.5 -44t-39 -45.5t-47 -38t-41.5 -22.5l-30 -14q-6 -4 -14.5 -16.5t-18.5 -26t-20.5 -23.5t-18.5 -10h-2v0z" />
<glyph unicode="&#xbc;" horiz-adv-x="1556" d="M1010 -242l12 41l-4 49q0 16 3 29.5t7 30.5q10 37 10 63q0 8 -8 16.5t-12 10.5l-90 4h-25q-14 0 -30 -4q-20 -4 -34 -7t-30 -3l-31 8q-4 0 -20 -8q-10 0 -14.5 8t-22.5 8q-12 0 -16 -2q-4 12 -5.5 21.5t-1.5 21.5q0 16 1 24.5t6 20.5q35 47 66.5 97.5t62.5 101.5l18 30 q8 10 16 11q10 0 19 12q4 12 4 23q4 4 17.5 15t13.5 17q23 39 39 68t22 37q27 35 41 62.5t18 31.5l25 27q20 25 29.5 39t46.5 14q12 0 20.5 -18.5t12.5 -43t5 -48t1 -34.5l-2 -36q-10 -12 -11.5 -21.5t-1.5 -23.5q0 -12 4.5 -19.5t4.5 -19.5v-93l-11 -141q0 -10 2 -21.5 t17 -13.5q14 -4 26 -4h27h25q14 0 30 4q12 10 24.5 12.5t27.5 2.5q8 0 23 -5.5t30.5 -13.5t28 -19t12.5 -22q0 -41 -18.5 -71.5t-63.5 -30.5q-16 0 -31.5 5t-40.5 5q-10 -2 -20 -2h-19q-31 0 -55.5 -9t-24.5 -46q-4 -6 -4 -21q0 -31 -1 -50t-1 -30q0 -10 -1 -16t-1 -12 q0 -10 6 -15.5t9 -15.5q4 -16 4 -29v-26v-27q0 -12 -4 -26q0 -6 -7.5 -15.5t-17.5 -18.5t-19.5 -15.5t-13.5 -6.5q-8 0 -15 7.5t-16 9.5q-25 6 -36 12t-16 15t-6 22.5t-7 36.5zM846 150q0 -18 24.5 -21.5t47.5 -3.5q8 0 32.5 2t49 6t44 12.5t19.5 18.5q0 8 -1 23.5t-3 30.5 t-3 27.5t-1 14.5q-6 16 -7 26.5t-1 20.5q0 27 -10.5 54.5t-39.5 27.5q-14 0 -27.5 -11t-24.5 -26.5t-21.5 -32t-16.5 -26.5l-49 -105q-10 -12 -11 -20t-1 -18zM174 746q0 25 18.5 33t43 12t47 8t32.5 16q4 10 12.5 34t8.5 34l-21 102q0 4 2 16.5t5.5 25t6.5 22.5t3 12 l-17 145q0 8 9 29q-31 33 -70 49q-12 4 -27.5 7.5t-29 8.5t-23.5 13t-10 22q0 23 19.5 26t31.5 3l82 -6q10 4 16 4h19q16 0 32.5 -2t32.5 -2q12 0 26.5 2t31.5 4q12 12 48 16.5t54 4.5q10 0 32.5 -3t22.5 -26q0 -18 -13 -29.5t-30.5 -18.5t-37 -11.5t-31.5 -8.5 q-10 -4 -19.5 -21.5t-15.5 -31.5l-10 -145l14 -111q-4 -41 -9 -54t-5 -26q0 -18 7 -32.5t9 -30.5q4 -2 23.5 -4t27.5 -4q6 -2 20.5 -10.5t30 -18.5t27.5 -21.5t12 -19.5v-2q-2 -12 -22 -33l-111 -4l-69 6q-37 0 -76 -2t-74 -6l-14 -8q-27 0 -44.5 10.5t-27.5 26.5zM190 -10 q8 33 27 48t37 44l18 24q4 16 12.5 24.5t16.5 21.5l25 43q0 4 16 10t20 10l11 41q8 23 30.5 35t32.5 28q10 10 28.5 34t20.5 30q2 2 13.5 22.5t28 42t32.5 40t29 18.5q35 31 58.5 71.5t43.5 75.5l72 82q23 41 37 63.5t22 35t13.5 16.5t9.5 6l24 33q12 29 28.5 39t37.5 37 q37 41 64.5 84t56.5 84q10 18 25.5 32.5t31.5 30.5q2 4 11.5 16.5t20.5 27.5t20.5 31.5t15.5 26.5q12 23 26.5 39.5t48.5 16.5q8 0 9.5 -1t5.5 -1q16 -4 20 -7.5t13 -17.5l-13 -49l-20 -21q-12 -16 -15.5 -34.5t-15.5 -38.5q-8 -12 -20.5 -16.5t-28.5 -12.5q-4 -6 -6 -13 t-6 -24q-12 -23 -44 -44t-53 -38q-25 -18 -24 -30l-13 -29q-12 -25 -30.5 -45.5t-36.5 -32.5q-4 -10 -3 -16t-1 -11q-10 -31 -20.5 -37t-20.5 -16q-8 -10 -23.5 -30.5t-17.5 -34.5q-6 -25 -17.5 -40.5t-23.5 -24.5t-21.5 -14t-11.5 -9q0 -4 -7 -10.5t-9 -8.5 q-14 -39 -39 -57.5t-57 -42.5q-10 -10 -16.5 -19.5t-10.5 -19.5q-4 -31 -8 -41t-8 -18q-23 -12 -32 -27.5t-12 -18.5q-4 -4 -24.5 -13t-24.5 -9q-8 -6 -15 -21.5t-14.5 -34t-14.5 -35t-15 -22.5q-4 -4 -19.5 -11t-13.5 -11q2 -8 2 -19q0 -4 -2 -8q-6 -23 -22.5 -33 t-26.5 -12q-10 -20 -13 -30.5t-18 -14.5q-2 -4 -2 -12t-6 -19q-6 -29 -17.5 -41t-43.5 -28q-16 -8 -17.5 -22.5t-9.5 -29.5q-10 -10 -16 -14t-11.5 -6t-9.5 -7t-10 -18l-37 -6q-16 4 -22.5 32t-4.5 32z" />
<glyph unicode="&#xbd;" horiz-adv-x="1556" d="M793 14q0 6 5 18.5t9 18.5q6 10 31.5 21.5t36.5 19.5q29 20 59.5 35.5t54.5 38.5q25 23 50.5 53.5t48 65t37 71.5t14.5 72q0 33 -28.5 60.5t-67.5 27.5l-58 -12q-6 0 -14 -1t-14 -10q-12 -8 -22.5 -22t-20 -27.5t-21.5 -24t-31 -10.5q-6 0 -14 1.5t-14 7.5v22 q0 20 3 30.5t9 16.5t14.5 13.5t18.5 21.5l12 12q18 23 37.5 44.5t50.5 31.5l60 6l38 8q18 0 44 -3t51.5 -10t49 -18.5t38.5 -27.5q4 -8 9 -16t7 -11l25 -38v-91q0 -16 -10.5 -27t-18.5 -22q-4 -2 -7 -13t-16 -46l-4 -2q-16 -12 -18 -24.5t-16 -26.5q-16 -14 -33 -15.5 t-33 -9.5q-2 0 -16.5 -14.5l-16.5 -16.5q-4 0 -21.5 -13t-19.5 -15q-10 -4 -25.5 -23.5t-15.5 -28.5q0 -4 2 -4h27q35 0 70 -12h39q43 0 85 6t78 23q8 6 9.5 11t3.5 9q10 14 26.5 24.5t32.5 18.5l12 -39q0 -23 -20 -57q-2 -6 -4 -19.5t-7 -28.5t-13.5 -26.5t-20.5 -11.5 l-15 -2q-29 -4 -58.5 -9t-57.5 -5q-18 0 -35.5 10t-36.5 10q-16 0 -34.5 -1t-33.5 -5q-4 0 -10 -4t-10 -10q-59 14 -80 14q-12 0 -18 -2t-13 -2q-29 -4 -54 -7t-60 -3q-14 0 -27.5 4t-13.5 18v2zM174 746q0 25 18.5 33t43 12t47 8t32.5 16q4 10 12.5 34t8.5 34l-21 102 q0 4 2 16.5t5.5 25t6.5 22.5t3 12l-17 145q0 8 9 29q-31 33 -70 49q-12 4 -27.5 7.5t-29 8.5t-23.5 13t-10 22q0 23 19.5 26t31.5 3l82 -6q10 4 16 4h19q16 0 32.5 -2t32.5 -2q12 0 26.5 2t31.5 4q12 12 48 16.5t54 4.5q10 0 32.5 -3t22.5 -26q0 -18 -13 -29.5t-30.5 -18.5 t-37 -11.5t-31.5 -8.5q-10 -4 -19.5 -21.5t-15.5 -31.5l-10 -145l14 -111q-4 -41 -9 -54t-5 -26q0 -18 7 -32.5t9 -30.5q4 -2 23.5 -4t27.5 -4q6 -2 20.5 -10.5t30 -18.5t27.5 -21.5t12 -19.5v-2q-2 -12 -22 -33l-111 -4l-69 6q-37 0 -76 -2t-74 -6l-14 -8q-27 0 -44.5 10.5 t-27.5 26.5zM190 -10q8 33 27 48t37 44l18 24q4 16 12.5 24.5t16.5 21.5l25 43q0 4 16 10t20 10l11 41q8 23 30.5 35t32.5 28q10 10 28.5 34t20.5 30q2 2 13.5 22.5t28 42t32.5 40t29 18.5q35 31 58.5 71.5t43.5 75.5l72 82q23 41 37 63.5t22 35t13.5 16.5t9.5 6l24 33 q12 29 28.5 39t37.5 37q37 41 64.5 84t56.5 84q10 18 25.5 32.5t31.5 30.5q2 4 11.5 16.5t20.5 27.5t20.5 31.5t15.5 26.5q12 23 26.5 39.5t48.5 16.5q8 0 9.5 -1t5.5 -1q16 -4 20 -7.5t13 -17.5l-13 -49l-20 -21q-12 -16 -15.5 -34.5t-15.5 -38.5q-8 -12 -20.5 -16.5 t-28.5 -12.5q-4 -6 -6 -13t-6 -24q-12 -23 -44 -44t-53 -38q-25 -18 -24 -30l-13 -29q-12 -25 -30.5 -45.5t-36.5 -32.5q-4 -10 -3 -16t-1 -11q-10 -31 -20.5 -37t-20.5 -16q-8 -10 -23.5 -30.5t-17.5 -34.5q-6 -25 -17.5 -40.5t-23.5 -24.5t-21.5 -14t-11.5 -9 q0 -4 -7 -10.5t-9 -8.5q-14 -39 -39 -57.5t-57 -42.5q-10 -10 -16.5 -19.5t-10.5 -19.5q-4 -31 -8 -41t-8 -18q-23 -12 -32 -27.5t-12 -18.5q-4 -4 -24.5 -13t-24.5 -9q-8 -6 -15 -21.5t-14.5 -34t-14.5 -35t-15 -22.5q-4 -4 -19.5 -11t-13.5 -11q2 -8 2 -19q0 -4 -2 -8 q-6 -23 -22.5 -33t-26.5 -12q-10 -20 -13 -30.5t-18 -14.5q-2 -4 -2 -12t-6 -19q-6 -29 -17.5 -41t-43.5 -28q-16 -8 -17.5 -22.5t-9.5 -29.5q-10 -10 -16 -14t-11.5 -6t-9.5 -7t-10 -18l-37 -6q-16 4 -22.5 32t-4.5 32z" />
<glyph unicode="&#xbe;" horiz-adv-x="1277" d="M1133 -242l12 41l-4 49q0 16 3 29.5t7 30.5q10 37 10 63q0 8 -8 16.5t-12 10.5l-90 4h-25q-14 0 -30 -4q-20 -4 -34 -7t-30 -3l-31 8q-4 0 -20 -8q-10 0 -14.5 8t-22.5 8q-12 0 -16 -2q-4 12 -5.5 21.5t-1.5 21.5q0 16 1 24.5t6 20.5q35 47 66.5 97.5t62.5 101.5l18 30 q8 10 16 11q10 0 19 12q4 12 4 23q4 4 17.5 15t13.5 17q23 39 39 68t22 37q27 35 41 62.5t18 31.5l25 27q20 25 29.5 39t46.5 14q12 0 20.5 -18.5t12.5 -43t5 -48t1 -34.5l-2 -36q-10 -12 -11.5 -21.5t-1.5 -23.5q0 -12 4.5 -19.5t4.5 -19.5v-93l-11 -141q0 -10 2 -21.5 t17 -13.5q14 -4 26 -4h27h25q14 0 30 4q12 10 24.5 12.5t27.5 2.5q8 0 23 -5.5t30.5 -13.5t28 -19t12.5 -22q0 -41 -18.5 -71.5t-63.5 -30.5q-16 0 -31.5 5t-40.5 5q-10 -2 -20 -2h-19q-31 0 -55.5 -9t-24.5 -46q-4 -6 -4 -21q0 -31 -1 -50t-1 -30q0 -10 -1 -16t-1 -12 q0 -10 6 -15.5t9 -15.5q4 -16 4 -29v-26v-27q0 -12 -4 -26q0 -6 -7.5 -15.5t-17.5 -18.5t-19.5 -15.5t-13.5 -6.5q-8 0 -15 7.5t-16 9.5q-25 6 -36 12t-16 15t-6 22.5t-7 36.5zM969 150q0 -18 24.5 -21.5t47.5 -3.5q8 0 32.5 2t49 6t44 12.5t19.5 18.5q0 8 -1 23.5t-3 30.5 t-3 27.5t-1 14.5q-6 16 -7 26.5t-1 20.5q0 27 -10.5 54.5t-39.5 27.5q-14 0 -27.5 -11t-24.5 -26.5t-21.5 -32t-16.5 -26.5l-49 -105q-10 -12 -11 -20t-1 -18zM260 590q0 31 7.5 38t37.5 15q8 4 19.5 8t19.5 4q25 0 44.5 -17t47.5 -17q37 0 69 23.5t48 55.5q2 2 3 11.5 t1 13.5q8 8 18.5 11t10.5 14v79q0 10 -12.5 25.5t-16.5 19.5q-23 35 -53.5 54.5t-65.5 44.5q0 4 -8 12t-12 8q-16 0 -36.5 -10t-37.5 -10q-10 0 -18 11t-8 22q0 16 13 27t30.5 18.5t35 13.5t27.5 10q2 0 11.5 11.5t13.5 13.5q16 14 34.5 22t28.5 27q29 45 48.5 82t19.5 76 q0 4 -16.5 20t-26.5 29q-6 12 -20.5 16t-26.5 4q-29 -10 -48.5 -15t-46.5 -5h-34q-12 2 -16.5 13t-4.5 22q0 16 4 20l21 10q16 10 25 21.5t24 23.5q27 18 64.5 28.5t72.5 10.5q16 0 29.5 -7t29.5 -13q53 -20 70.5 -44t32.5 -75q0 -10 3 -17.5t3 -17.5q0 -35 -20.5 -82 t-43.5 -76q-12 -16 -27.5 -19t-27.5 -13q-10 -12 -14 -23.5t-14 -21.5q-16 -6 -17 -23v-4h2q4 -10 18.5 -23.5t32 -26.5t32.5 -25.5t22 -20.5q2 -23 9 -38t15 -28.5t14.5 -31t6.5 -41.5q0 -8 -2 -24.5t-5.5 -35t-6.5 -34t-7 -21.5l-20 -25q-10 -12 -15.5 -30.5t-15.5 -28.5 q-20 -23 -57 -47.5t-78 -47t-82 -37t-72 -14.5q-14 0 -22 10.5t-19 20.5q-23 14 -34 26.5t-11 43.5zM313 -10q8 33 27 48t37 44l18 24q4 16 12.5 24.5t16.5 21.5l25 43q0 4 16 10t20 10l11 41q8 23 30.5 35t32.5 28q10 10 28.5 34t20.5 30q2 2 13.5 22.5t28 42t32.5 40 t29 18.5q35 31 58.5 71.5t43.5 75.5l72 82q23 41 37 63.5t22 35t13.5 16.5t9.5 6l24 33q12 29 28.5 39t37.5 37q37 41 64.5 84t56.5 84q10 18 25.5 32.5t31.5 30.5q2 4 11.5 16.5t20.5 27.5t20.5 31.5t15.5 26.5q12 23 26.5 39.5t48.5 16.5q8 0 9.5 -1t5.5 -1q16 -4 20 -7.5 t13 -17.5l-13 -49l-20 -21q-12 -16 -15.5 -34.5t-15.5 -38.5q-8 -12 -20.5 -16.5t-28.5 -12.5q-4 -6 -6 -13t-6 -24q-12 -23 -44 -44t-53 -38q-25 -18 -24 -30l-13 -29q-12 -25 -30.5 -45.5t-36.5 -32.5q-4 -10 -3 -16t-1 -11q-10 -31 -20.5 -37t-20.5 -16 q-8 -10 -23.5 -30.5t-17.5 -34.5q-6 -25 -17.5 -40.5t-23.5 -24.5t-21.5 -14t-11.5 -9q0 -4 -7 -10.5t-9 -8.5q-14 -39 -39 -57.5t-57 -42.5q-10 -10 -16.5 -19.5t-10.5 -19.5q-4 -31 -8 -41t-8 -18q-23 -12 -32 -27.5t-12 -18.5q-4 -4 -24.5 -13t-24.5 -9q-8 -6 -15 -21.5 t-14.5 -34t-14.5 -35t-15 -22.5q-4 -4 -19.5 -11t-13.5 -11q2 -8 2 -19q0 -4 -2 -8q-6 -23 -22.5 -33t-26.5 -12q-10 -20 -13 -30.5t-18 -14.5q-2 -4 -2 -12t-6 -19q-6 -29 -17.5 -41t-43.5 -28q-16 -8 -17.5 -22.5t-9.5 -29.5q-10 -10 -16 -14t-11.5 -6t-9.5 -7t-10 -18 l-37 -6q-16 4 -22.5 32t-4.5 32z" />
<glyph unicode="&#xbf;" horiz-adv-x="903" d="M793 1446q0 -16 -9.5 -35.5t-24 -36t-32.5 -29t-37 -12.5q-82 6 -111.5 48t-29.5 114q0 18 10 31.5t25.5 21.5t33 12.5t31.5 4.5q63 0 103.5 -24.5t40.5 -94.5zM260 520v-4q12 -39 23.5 -69.5t27 -55t37 -46t55.5 -42.5q8 -6 15.5 -16.5t9.5 -16.5l51 -63 q35 0 59.5 -16.5t57.5 -20.5q27 -33 39 -53.5t12 -53.5q0 -18 -6 -38.5t-25 -30.5h-28q-31 0 -52.5 14.5t-39 33.5t-35 38.5t-39.5 30.5l-55 16q-43 23 -74 61.5t-64 69.5q-2 2 -10 6l-12 6q-16 10 -34.5 33t-33 49.5t-24 53t-9.5 45.5q0 35 11.5 66.5t21.5 62.5l15 137 q6 25 26.5 42t34.5 34l4 4q2 2 2 4t2 6q29 45 59.5 68.5t65.5 34t77 13.5t93 9q25 6 27 20.5t14 36.5q0 2 9.5 15.5t13.5 15.5q10 23 14 51.5t10 53t21.5 42t48.5 17.5l29 -6q4 -2 8 -9.5t4 -11.5q2 -43 3 -85t1 -87v-55q0 -27 -4 -56q0 -59 -39 -81.5t-92.5 -30.5 t-108.5 -11t-88 -20q-12 -6 -15 -20.5t-7 -24.5q-8 -12 -15.5 -14t-19.5 -2q-14 0 -19 -2q-12 -2 -22 -22.5t-17.5 -45.5t-10.5 -48.5t-3 -31.5z" />
<glyph unicode="&#xc0;" d="M861 1769v-8q0 -10 -2 -19t-7 -24q-4 -4 -6 -7t-12 -5q-8 0 -15.5 -1t-13.5 -1q-23 0 -35 2t-20 6l-8 4q-10 6 -16.5 14.5t-13.5 18.5t-20.5 22.5t-37.5 24.5q-35 25 -52.5 42t-33.5 30q-16 16 -43 41.5t-52.5 53.5t-45 55.5t-19.5 52.5v8q0 12 2 20l8 12q6 14 25.5 20.5 t42.5 10.5q14 0 25.5 1t21.5 1q14 0 22 -2q25 -23 36.5 -38t18.5 -28.5t17 -26.5t35 -28q33 -47 43 -58t14 -13l6 -2q25 -12 29 -21q10 -4 14.5 -7t6.5 -5q10 -25 24.5 -43.5t27.5 -34.5t23.5 -33t10.5 -35zM-74 45q0 23 14.5 35t35 18t42 10.5t33.5 12.5q6 4 22.5 19.5 t24.5 19.5l58 28q10 4 25.5 27t31.5 50.5t30.5 55t20.5 39.5q2 2 3 12.5t1 16.5q2 4 5 12.5t3 10.5q2 2 8.5 11t13.5 18.5t13 18.5t6 11l3 8q2 8 3 17.5t2 17.5t1 10q8 39 21 77t26.5 76t24 77t14.5 80l82 225q16 47 19 99t17 104q20 47 49 91t52 95q10 27 11 55.5t17 52.5 q6 8 30 32t51.5 48.5t53 44t37.5 19.5q23 0 31 -17q6 -4 12.5 -15t6.5 -13q6 -23 16 -43.5t18 -44.5l-2 -27q0 -16 8.5 -34.5t12.5 -30.5q12 -41 22.5 -80t16.5 -78q4 -25 15 -44.5t11 -43.5l-2 -19q20 -18 31.5 -33.5t19 -32t13.5 -34.5t20 -45q12 -23 18.5 -44.5t10.5 -43 t8 -45t15 -49.5q2 -4 8 -19.5t6 -19.5v-45q0 -2 5 -10.5t10 -18.5t10.5 -19.5t5.5 -13.5q0 -2 2 -18.5t4 -18.5l33 -32q16 -14 14 -37t10 -45q14 -33 24.5 -68t28.5 -69q10 -25 17.5 -52.5t7.5 -54.5v-14q16 -27 34.5 -48.5t30.5 -41.5q10 -27 21.5 -42.5t23 -24.5t22.5 -14 t22 -12q27 -16 54 -22t70 -14l33 -9q16 -10 19.5 -27.5t3.5 -31.5q0 -25 -19.5 -36t-40.5 -11l-100 6h-25q-12 10 -37.5 11t-29.5 3h-141q-10 12 -17.5 14.5t-21.5 2.5q-47 0 -100.5 -12.5t-112.5 -12.5h-27q-18 0 -35.5 1t-30.5 9q-6 2 -6 21l2 18q2 8 2 19q0 8 9 10 q20 8 47.5 13t52.5 11.5t42 17.5t17 32v2q-2 29 -5 62.5t-3 68.5q0 12 -7 25.5t-9 23.5v72q-2 16 -14.5 49t-31 66.5t-40 59t-41.5 25.5q-31 0 -63.5 -13t-65.5 -13q-29 0 -54.5 11t-60.5 11h-76q-25 0 -49 -3t-47 -15q-37 -23 -67.5 -58.5t-45.5 -89.5l-8 -82q0 -4 -2 -13 t-5 -19.5t-5 -19.5t-2 -11t-1 -7t-1 -9q0 -23 7 -32t17 -28q6 -10 16.5 -28.5t20.5 -30.5q16 -14 44 -22.5t55.5 -17.5t47 -23.5t19.5 -39.5v-8q-6 -47 -34.5 -61.5t-73.5 -14.5l-103 27h-43q-41 0 -86 -5t-61 -15q-59 -2 -110.5 -4.5t-55.5 -2.5q-16 0 -34.5 5.5t-36 14.5 t-29 21.5t-11.5 28.5zM537 848q-2 -14 -3.5 -26.5t-1.5 -22.5q0 -33 15.5 -44.5t48.5 -11.5q4 0 6 2t2 5q2 0 15.5 2t19.5 4q10 -2 20.5 -4t16.5 -2h186q80 0 80 73q0 10 -8 26.5t-18.5 37t-20.5 41t-14 41.5q0 8 -7 14l-55 82q0 6 -4 12t-6 13l-6 24q-6 25 -14.5 60.5 t-20.5 67.5t-26.5 54.5t-32.5 22.5q-10 0 -26.5 -31t-36 -79t-39 -104t-35 -108.5t-25.5 -93.5t-10 -55z" />
<glyph unicode="&#xc1;" d="M882 1759q0 20 8.5 36.5t21.5 34t27.5 36t24.5 41.5q0 6 17 14q2 10 24 27l7 2q4 0 15 12t40 59q25 14 35 27.5t17 27t16.5 30t31.5 38.5q20 4 37 4q16 0 37 2q25 -4 43 -9t24 -17l11 -15v-18v-10q0 -25 -17.5 -53.5t-42 -57t-50 -54.5t-40.5 -44l-32.5 -32.5 t-51.5 -41.5q-23 -14 -35 -26.5t-18 -23.5t-12 -19.5t-17 -14.5l-6 -6q-12 -4 -27.5 -7t-39.5 -3h-17q-10 4 -13 5t-7 5q-6 18 -7.5 29.5t-3.5 21.5zM-74 45q0 23 14.5 35t35 18t42 10.5t33.5 12.5q6 4 22.5 19.5t24.5 19.5l58 28q10 4 25.5 27t31.5 50.5t30.5 55t20.5 39.5 q2 2 3 12.5t1 16.5q2 4 5 12.5t3 10.5q2 2 8.5 11t13.5 18.5t13 18.5t6 11l3 8q2 8 3 17.5t2 17.5t1 10q8 39 21 77t26.5 76t24 77t14.5 80l82 225q16 47 19 99t17 104q20 47 49 91t52 95q10 27 11 55.5t17 52.5q6 8 30 32t51.5 48.5t53 44t37.5 19.5q23 0 31 -17 q6 -4 12.5 -15t6.5 -13q6 -23 16 -43.5t18 -44.5l-2 -27q0 -16 8.5 -34.5t12.5 -30.5q12 -41 22.5 -80t16.5 -78q4 -25 15 -44.5t11 -43.5l-2 -19q20 -18 31.5 -33.5t19 -32t13.5 -34.5t20 -45q12 -23 18.5 -44.5t10.5 -43t8 -45t15 -49.5q2 -4 8 -19.5t6 -19.5v-45 q0 -2 5 -10.5t10 -18.5t10.5 -19.5t5.5 -13.5q0 -2 2 -18.5t4 -18.5l33 -32q16 -14 14 -37t10 -45q14 -33 24.5 -68t28.5 -69q10 -25 17.5 -52.5t7.5 -54.5v-14q16 -27 34.5 -48.5t30.5 -41.5q10 -27 21.5 -42.5t23 -24.5t22.5 -14t22 -12q27 -16 54 -22t70 -14l33 -9 q16 -10 19.5 -27.5t3.5 -31.5q0 -25 -19.5 -36t-40.5 -11l-100 6h-25q-12 10 -37.5 11t-29.5 3h-141q-10 12 -17.5 14.5t-21.5 2.5q-47 0 -100.5 -12.5t-112.5 -12.5h-27q-18 0 -35.5 1t-30.5 9q-6 2 -6 21l2 18q2 8 2 19q0 8 9 10q20 8 47.5 13t52.5 11.5t42 17.5t17 32v2 q-2 29 -5 62.5t-3 68.5q0 12 -7 25.5t-9 23.5v72q-2 16 -14.5 49t-31 66.5t-40 59t-41.5 25.5q-31 0 -63.5 -13t-65.5 -13q-29 0 -54.5 11t-60.5 11h-76q-25 0 -49 -3t-47 -15q-37 -23 -67.5 -58.5t-45.5 -89.5l-8 -82q0 -4 -2 -13t-5 -19.5t-5 -19.5t-2 -11t-1 -7t-1 -9 q0 -23 7 -32t17 -28q6 -10 16.5 -28.5t20.5 -30.5q16 -14 44 -22.5t55.5 -17.5t47 -23.5t19.5 -39.5v-8q-6 -47 -34.5 -61.5t-73.5 -14.5l-103 27h-43q-41 0 -86 -5t-61 -15q-59 -2 -110.5 -4.5t-55.5 -2.5q-16 0 -34.5 5.5t-36 14.5t-29 21.5t-11.5 28.5zM537 848 q-2 -14 -3.5 -26.5t-1.5 -22.5q0 -33 15.5 -44.5t48.5 -11.5q4 0 6 2t2 5q2 0 15.5 2t19.5 4q10 -2 20.5 -4t16.5 -2h186q80 0 80 73q0 10 -8 26.5t-18.5 37t-20.5 41t-14 41.5q0 8 -7 14l-55 82q0 6 -4 12t-6 13l-6 24q-6 25 -14.5 60.5t-20.5 67.5t-26.5 54.5t-32.5 22.5 q-10 0 -26.5 -31t-36 -79t-39 -104t-35 -108.5t-25.5 -93.5t-10 -55z" />
<glyph unicode="&#xc2;" d="M808 2150q16 0 36 -9t34 -25q23 -23 48.5 -47.5t23.5 -55.5q4 -4 12 -15t17.5 -23.5t18.5 -25t13 -18.5q16 -16 23.5 -22t11.5 -10.5t9 -12.5t18 -28q4 -4 4 -15v-16q0 -8 -1 -14.5t-9 -14.5h-29q-10 4 -15.5 7t-12.5 8.5t-19.5 16.5t-36.5 30q-4 2 -17.5 14t-21.5 16 q-25 27 -36 42.5t-19.5 25.5t-18.5 17t-30 18q-6 -6 -20.5 -16.5t-30 -22.5t-28 -23.5t-14.5 -19.5q-29 -12 -41 -22.5t-20 -20.5t-19.5 -23.5t-35.5 -32.5q-10 0 -30 -5t-26 -5h-8q-18 0 -23.5 4t-5.5 15q0 10 7.5 22t13.5 21q2 4 11 14t21.5 22.5t24 22.5t15.5 14 q0 12 19.5 37t47.5 62q14 20 31.5 39.5t44.5 46.5q12 14 29.5 21t33.5 7zM-74 45q0 23 14.5 35t35 18t42 10.5t33.5 12.5q6 4 22.5 19.5t24.5 19.5l58 28q10 4 25.5 27t31.5 50.5t30.5 55t20.5 39.5q2 2 3 12.5t1 16.5q2 4 5 12.5t3 10.5q2 2 8.5 11t13.5 18.5t13 18.5t6 11 l3 8q2 8 3 17.5t2 17.5t1 10q8 39 21 77t26.5 76t24 77t14.5 80l82 225q16 47 19 99t17 104q20 47 49 91t52 95q10 27 11 55.5t17 52.5q6 8 30 32t51.5 48.5t53 44t37.5 19.5q23 0 31 -17q6 -4 12.5 -15t6.5 -13q6 -23 16 -43.5t18 -44.5l-2 -27q0 -16 8.5 -34.5t12.5 -30.5 q12 -41 22.5 -80t16.5 -78q4 -25 15 -44.5t11 -43.5l-2 -19q20 -18 31.5 -33.5t19 -32t13.5 -34.5t20 -45q12 -23 18.5 -44.5t10.5 -43t8 -45t15 -49.5q2 -4 8 -19.5t6 -19.5v-45q0 -2 5 -10.5t10 -18.5t10.5 -19.5t5.5 -13.5q0 -2 2 -18.5t4 -18.5l33 -32q16 -14 14 -37 t10 -45q14 -33 24.5 -68t28.5 -69q10 -25 17.5 -52.5t7.5 -54.5v-14q16 -27 34.5 -48.5t30.5 -41.5q10 -27 21.5 -42.5t23 -24.5t22.5 -14t22 -12q27 -16 54 -22t70 -14l33 -9q16 -10 19.5 -27.5t3.5 -31.5q0 -25 -19.5 -36t-40.5 -11l-100 6h-25q-12 10 -37.5 11t-29.5 3 h-141q-10 12 -17.5 14.5t-21.5 2.5q-47 0 -100.5 -12.5t-112.5 -12.5h-27q-18 0 -35.5 1t-30.5 9q-6 2 -6 21l2 18q2 8 2 19q0 8 9 10q20 8 47.5 13t52.5 11.5t42 17.5t17 32v2q-2 29 -5 62.5t-3 68.5q0 12 -7 25.5t-9 23.5v72q-2 16 -14.5 49t-31 66.5t-40 59t-41.5 25.5 q-31 0 -63.5 -13t-65.5 -13q-29 0 -54.5 11t-60.5 11h-76q-25 0 -49 -3t-47 -15q-37 -23 -67.5 -58.5t-45.5 -89.5l-8 -82q0 -4 -2 -13t-5 -19.5t-5 -19.5t-2 -11t-1 -7t-1 -9q0 -23 7 -32t17 -28q6 -10 16.5 -28.5t20.5 -30.5q16 -14 44 -22.5t55.5 -17.5t47 -23.5 t19.5 -39.5v-8q-6 -47 -34.5 -61.5t-73.5 -14.5l-103 27h-43q-41 0 -86 -5t-61 -15q-59 -2 -110.5 -4.5t-55.5 -2.5q-16 0 -34.5 5.5t-36 14.5t-29 21.5t-11.5 28.5zM537 848q-2 -14 -3.5 -26.5t-1.5 -22.5q0 -33 15.5 -44.5t48.5 -11.5q4 0 6 2t2 5q2 0 15.5 2t19.5 4 q10 -2 20.5 -4t16.5 -2h186q80 0 80 73q0 10 -8 26.5t-18.5 37t-20.5 41t-14 41.5q0 8 -7 14l-55 82q0 6 -4 12t-6 13l-6 24q-6 25 -14.5 60.5t-20.5 67.5t-26.5 54.5t-32.5 22.5q-10 0 -26.5 -31t-36 -79t-39 -104t-35 -108.5t-25.5 -93.5t-10 -55z" />
</font>
</defs>
</svg>
